v 0.045000 0.000000 0.900000
v 0.031820 0.031820 0.900000
v 0.000000 0.045000 0.900000
v -0.031820 0.031820 0.900000
v -0.045000 0.000000 0.900000
v -0.031820 -0.031820 0.900000
v -0.000000 -0.045000 0.900000
v 0.031820 -0.031820 0.900000
v 0.022500 0.000000 1.120000
v 0.015910 0.015910 1.120000
v 0.000000 0.022500 1.120000
v -0.015910 0.015910 1.120000
v -0.022500 0.000000 1.120000
v -0.015910 -0.015910 1.120000
v -0.000000 -0.022500 1.120000
v 0.015910 -0.015910 1.120000
vn 0.991450 0.082134 0.101398
vn 0.642983 0.759139 0.101398
vn -0.082134 0.991450 0.101398
vn -0.759139 0.642983 0.101398
vn -0.991450 -0.082134 0.101398
vn -0.642983 -0.759139 0.101398
vn 0.082134 -0.991450 0.101398
vn 0.759139 -0.642983 0.101398
vn 0.974346 -0.201794 0.099649
vn 0.831656 0.546277 0.099649
vn 0.201794 0.974346 0.099649
vn -0.546277 0.831656 0.099649
vn -0.974346 0.201794 0.099649
vn -0.831656 -0.546277 0.099649
vn -0.201794 -0.974346 0.099649
vn 0.546277 -0.831656 0.099649
f 1//1 2//2 10//10
f 1//1 10//10 9//9
f 2//2 3//3 11//11
f 2//2 11//11 10//10
f 3//3 4//4 12//12
f 3//3 12//12 11//11
f 4//4 5//5 13//13
f 4//4 13//13 12//12
f 5//5 6//6 14//14
f 5//5 14//14 13//13
f 6//6 7//7 15//15
f 6//6 15//15 14//14
f 7//7 8//8 16//16
f 7//7 16//16 15//15
f 8//8 1//1 9//9
f 8//8 9//9 16//16
