# procedurally generated apple mesh
v 0.000000 0.000000 1.000000
v 0.000000 0.000000 1.000000
v 0.000000 0.000000 1.000000
v 0.000000 0.000000 1.000000
v 0.000000 0.000000 1.000000
v 0.000000 0.000000 1.000000
v 0.000000 0.000000 1.000000
v -0.000000 0.000000 1.000000
v -0.000000 0.000000 1.000000
v -0.000000 0.000000 1.000000
v -0.000000 0.000000 1.000000
v -0.000000 0.000000 1.000000
v -0.000000 0.000000 1.000000
v -0.000000 -0.000000 1.000000
v -0.000000 -0.000000 1.000000
v -0.000000 -0.000000 1.000000
v -0.000000 -0.000000 1.000000
v -0.000000 -0.000000 1.000000
v -0.000000 -0.000000 1.000000
v 0.000000 -0.000000 1.000000
v 0.000000 -0.000000 1.000000
v 0.000000 -0.000000 1.000000
v 0.000000 -0.000000 1.000000
v 0.000000 -0.000000 1.000000
v 0.130526 0.000000 0.991445
v 0.131428 0.035216 1.033508
v 0.119821 0.069179 1.050932
v 0.096212 0.096212 1.033508
v 0.065263 0.113039 0.991445
v 0.032349 0.120730 0.949381
v 0.000000 0.122695 0.931958
v -0.032349 0.120730 0.949381
v -0.065263 0.113039 0.991445
v -0.096212 0.096212 1.033508
v -0.119821 0.069179 1.050932
v -0.131428 0.035216 1.033508
v -0.130526 0.000000 0.991445
v -0.120730 -0.032349 0.949381
v -0.106257 -0.061347 0.931958
v -0.088380 -0.088380 0.949381
v -0.065263 -0.113039 0.991445
v -0.035216 -0.131428 1.033508
v -0.000000 -0.138358 1.050932
v 0.035216 -0.131428 1.033508
v 0.065263 -0.113039 0.991445
v 0.088380 -0.088380 0.949381
v 0.106257 -0.061347 0.931958
v 0.120730 -0.032349 0.949381
v 0.258819 0.000000 0.965926
v 0.260607 0.069829 1.006907
v 0.237593 0.137174 1.023881
v 0.190777 0.190777 1.006907
v 0.129410 0.224144 0.965926
v 0.064145 0.239393 0.924945
v 0.000000 0.243290 0.907970
v -0.064145 0.239393 0.924945
v -0.129410 0.224144 0.965926
v -0.190777 0.190777 1.006907
v -0.237593 0.137174 1.023881
v -0.260607 0.069829 1.006907
v -0.258819 0.000000 0.965926
v -0.239393 -0.064145 0.924945
v -0.210695 -0.121645 0.907970
v -0.175248 -0.175248 0.924945
v -0.129410 -0.224144 0.965926
v -0.069829 -0.260607 1.006907
v -0.000000 -0.274348 1.023881
v 0.069829 -0.260607 1.006907
v 0.129410 -0.224144 0.965926
v 0.175248 -0.175248 0.924945
v 0.210695 -0.121645 0.907970
v 0.239393 -0.064145 0.924945
v 0.382683 0.000000 0.923880
v 0.385326 0.103248 0.963076
v 0.351298 0.202822 0.979312
v 0.282079 0.282079 0.963076
v 0.191342 0.331414 0.923880
v 0.094844 0.353961 0.884683
v 0.000000 0.359722 0.868447
v -0.094844 0.353961 0.884683
v -0.191342 0.331414 0.923880
v -0.282079 0.282079 0.963076
v -0.351298 0.202822 0.979312
v -0.385326 0.103248 0.963076
v -0.382683 0.000000 0.923880
v -0.353961 -0.094844 0.884683
v -0.311529 -0.179861 0.868447
v -0.259118 -0.259118 0.884683
v -0.191342 -0.331414 0.923880
v -0.103248 -0.385326 0.963076
v -0.000000 -0.405644 0.979312
v 0.103248 -0.385326 0.963076
v 0.191342 -0.331414 0.923880
v 0.259118 -0.259118 0.884683
v 0.311529 -0.179861 0.868447
v 0.353961 -0.094844 0.884683
v 0.500000 0.000000 0.866025
v 0.503453 0.134900 0.902768
v 0.458993 0.265000 0.917987
v 0.368553 0.368553 0.902768
v 0.250000 0.433013 0.866025
v 0.123919 0.462473 0.829283
v 0.000000 0.470000 0.814064
v -0.123919 0.462473 0.829283
v -0.250000 0.433013 0.866025
v -0.368553 0.368553 0.902768
v -0.458993 0.265000 0.917987
v -0.503453 0.134900 0.902768
v -0.500000 0.000000 0.866025
v -0.462473 -0.123919 0.829283
v -0.407032 -0.235000 0.814064
v -0.338553 -0.338553 0.829283
v -0.250000 -0.433013 0.866025
v -0.134900 -0.503453 0.902768
v -0.000000 -0.530000 0.917987
v 0.134900 -0.503453 0.902768
v 0.250000 -0.433013 0.866025
v 0.338553 -0.338553 0.829283
v 0.407032 -0.235000 0.814064
v 0.462473 -0.123919 0.829283
v 0.608761 0.000000 0.793353
v 0.612966 0.164244 0.827012
v 0.558835 0.322644 0.840955
v 0.448722 0.448722 0.827012
v 0.304381 0.527203 0.793353
v 0.150874 0.563071 0.759694
v 0.000000 0.572236 0.745752
v -0.150874 0.563071 0.759694
v -0.304381 0.527203 0.793353
v -0.448722 0.448722 0.827012
v -0.558835 0.322644 0.840955
v -0.612966 0.164244 0.827012
v -0.608761 0.000000 0.793353
v -0.563071 -0.150874 0.759694
v -0.495571 -0.286118 0.745752
v -0.412196 -0.412196 0.759694
v -0.304381 -0.527203 0.793353
v -0.164244 -0.612966 0.827012
v -0.000000 -0.645287 0.840955
v 0.164244 -0.612966 0.827012
v 0.304381 -0.527203 0.793353
v 0.412196 -0.412196 0.759694
v 0.495571 -0.286118 0.745752
v 0.563071 -0.150874 0.759694
v 0.707107 0.000000 0.707107
v 0.711990 0.190777 0.737107
v 0.649115 0.374767 0.749533
v 0.521213 0.521213 0.737107
v 0.353553 0.612372 0.707107
v 0.175248 0.654035 0.677107
v 0.000000 0.664680 0.664680
v -0.175248 0.654035 0.677107
v -0.353553 0.612372 0.707107
v -0.521213 0.521213 0.737107
v -0.649115 0.374767 0.749533
v -0.711990 0.190777 0.737107
v -0.707107 0.000000 0.707107
v -0.654035 -0.175248 0.677107
v -0.575630 -0.332340 0.664680
v -0.478787 -0.478787 0.677107
v -0.353553 -0.612372 0.707107
v -0.190777 -0.711990 0.737107
v -0.000000 -0.749533 0.749533
v 0.190777 -0.711990 0.737107
v 0.353553 -0.612372 0.707107
v 0.478787 -0.478787 0.677107
v 0.575630 -0.332340 0.664680
v 0.654035 -0.175248 0.677107
v 0.793353 0.000000 0.608761
v 0.798833 0.214047 0.634589
v 0.728288 0.420477 0.645287
v 0.584786 0.584786 0.634589
v 0.396677 0.687064 0.608761
v 0.196623 0.733808 0.582934
v 0.000000 0.745752 0.572236
v -0.196623 0.733808 0.582934
v -0.396677 0.687064 0.608761
v -0.584786 0.584786 0.634589
v -0.728288 0.420477 0.645287
v -0.798833 0.214047 0.634589
v -0.793353 0.000000 0.608761
v -0.733808 -0.196623 0.582934
v -0.645840 -0.372876 0.572236
v -0.537185 -0.537185 0.582934
v -0.396677 -0.687064 0.608761
v -0.214047 -0.798833 0.634589
v -0.000000 -0.840955 0.645287
v 0.214047 -0.798833 0.634589
v 0.396677 -0.687064 0.608761
v 0.537185 -0.537185 0.582934
v 0.645840 -0.372876 0.572236
v 0.733808 -0.196623 0.582934
v 0.866025 0.000000 0.500000
v 0.872007 0.233653 0.521213
v 0.795000 0.458993 0.530000
v 0.638353 0.638353 0.521213
v 0.433013 0.750000 0.500000
v 0.214634 0.801026 0.478787
v 0.000000 0.814064 0.470000
v -0.214634 0.801026 0.478787
v -0.433013 0.750000 0.500000
v -0.638353 0.638353 0.521213
v -0.795000 0.458993 0.530000
v -0.872007 0.233653 0.521213
v -0.866025 0.000000 0.500000
v -0.801026 -0.214634 0.478787
v -0.705000 -0.407032 0.470000
v -0.586392 -0.586392 0.478787
v -0.433013 -0.750000 0.500000
v -0.233653 -0.872007 0.521213
v -0.000000 -0.917987 0.530000
v 0.233653 -0.872007 0.521213
v 0.433013 -0.750000 0.500000
v 0.586392 -0.586392 0.478787
v 0.705000 -0.407032 0.470000
v 0.801026 -0.214634 0.478787
v 0.923880 0.000000 0.382683
v 0.930260 0.249263 0.398919
v 0.848109 0.489656 0.405644
v 0.680998 0.680998 0.398919
v 0.461940 0.800103 0.382683
v 0.228973 0.854538 0.366448
v 0.000000 0.868447 0.359722
v -0.228973 0.854538 0.366448
v -0.461940 0.800103 0.382683
v -0.680998 0.680998 0.398919
v -0.848109 0.489656 0.405644
v -0.930260 0.249263 0.398919
v -0.923880 0.000000 0.382683
v -0.854538 -0.228973 0.366448
v -0.752097 -0.434223 0.359722
v -0.625565 -0.625565 0.366448
v -0.461940 -0.800103 0.382683
v -0.249263 -0.930260 0.398919
v -0.000000 -0.979312 0.405644
v 0.249263 -0.930260 0.398919
v 0.461940 -0.800103 0.382683
v 0.625565 -0.625565 0.366448
v 0.752097 -0.434223 0.359722
v 0.854538 -0.228973 0.366448
v 0.965926 0.000000 0.258819
v 0.972597 0.260607 0.269800
v 0.886707 0.511941 0.274348
v 0.711990 0.711990 0.269800
v 0.482963 0.836516 0.258819
v 0.239393 0.893428 0.247838
v 0.000000 0.907970 0.243290
v -0.239393 0.893428 0.247838
v -0.482963 0.836516 0.258819
v -0.711990 0.711990 0.269800
v -0.886707 0.511941 0.274348
v -0.972597 0.260607 0.269800
v -0.965926 0.000000 0.258819
v -0.893428 -0.239393 0.247838
v -0.786325 -0.453985 0.243290
v -0.654035 -0.654035 0.247838
v -0.482963 -0.836516 0.258819
v -0.260607 -0.972597 0.269800
v -0.000000 -1.023881 0.274348
v 0.260607 -0.972597 0.269800
v 0.482963 -0.836516 0.258819
v 0.654035 -0.654035 0.247838
v 0.786325 -0.453985 0.243290
v 0.893428 -0.239393 0.247838
v 0.991445 0.000000 0.130526
v 0.998292 0.267492 0.136064
v 0.910133 0.525466 0.138358
v 0.730801 0.730801 0.136064
v 0.495722 0.858616 0.130526
v 0.245718 0.917032 0.124988
v 0.000000 0.931958 0.122695
v -0.245718 0.917032 0.124988
v -0.495722 0.858616 0.130526
v -0.730801 0.730801 0.136064
v -0.910133 0.525466 0.138358
v -0.998292 0.267492 0.136064
v -0.991445 0.000000 0.130526
v -0.917032 -0.245718 0.124988
v -0.807099 -0.465979 0.122695
v -0.671314 -0.671314 0.124988
v -0.495722 -0.858616 0.130526
v -0.267492 -0.998292 0.136064
v -0.000000 -1.050932 0.138358
v 0.267492 -0.998292 0.136064
v 0.495722 -0.858616 0.130526
v 0.671314 -0.671314 0.124988
v 0.807099 -0.465979 0.122695
v 0.917032 -0.245718 0.124988
v 1.000000 0.000000 0.000000
v 1.006907 0.269800 0.000000
v 0.917987 0.530000 0.000000
v 0.737107 0.737107 0.000000
v 0.500000 0.866025 0.000000
v 0.247838 0.924945 0.000000
v 0.000000 0.940000 0.000000
v -0.247838 0.924945 0.000000
v -0.500000 0.866025 0.000000
v -0.737107 0.737107 0.000000
v -0.917987 0.530000 0.000000
v -1.006907 0.269800 0.000000
v -1.000000 0.000000 0.000000
v -0.924945 -0.247838 0.000000
v -0.814064 -0.470000 0.000000
v -0.677107 -0.677107 0.000000
v -0.500000 -0.866025 0.000000
v -0.269800 -1.006907 0.000000
v -0.000000 -1.060000 0.000000
v 0.269800 -1.006907 0.000000
v 0.500000 -0.866025 0.000000
v 0.677107 -0.677107 0.000000
v 0.814064 -0.470000 0.000000
v 0.924945 -0.247838 0.000000
v 0.975081 0.000000 -0.128372
v 0.981816 0.263077 -0.133818
v 0.895112 0.516793 -0.136074
v 0.718739 0.718739 -0.133818
v 0.487541 0.844445 -0.128372
v 0.241662 0.901896 -0.122926
v 0.000000 0.916576 -0.120670
v -0.241662 0.901896 -0.122926
v -0.487541 0.844445 -0.128372
v -0.718739 0.718739 -0.133818
v -0.895112 0.516793 -0.136074
v -0.981816 0.263077 -0.133818
v -0.975081 0.000000 -0.128372
v -0.901896 -0.241662 -0.122926
v -0.793778 -0.458288 -0.120670
v -0.660234 -0.660234 -0.122926
v -0.487541 -0.844445 -0.128372
v -0.263077 -0.981816 -0.133818
v -0.000000 -1.033586 -0.136074
v 0.263077 -0.981816 -0.133818
v 0.487541 -0.844445 -0.128372
v 0.660234 -0.660234 -0.122926
v 0.793778 -0.458288 -0.120670
v 0.901896 -0.241662 -0.122926
v 0.921411 0.000000 -0.246891
v 0.927775 0.248596 -0.257366
v 0.845843 0.488348 -0.261705
v 0.679178 0.679178 -0.257366
v 0.460705 0.797965 -0.246891
v 0.228361 0.852254 -0.236417
v 0.000000 0.866126 -0.232078
v -0.228361 0.852254 -0.236417
v -0.460705 0.797965 -0.246891
v -0.679178 0.679178 -0.257366
v -0.845843 0.488348 -0.261705
v -0.927775 0.248596 -0.257366
v -0.921411 0.000000 -0.246891
v -0.852254 -0.228361 -0.236417
v -0.750087 -0.433063 -0.232078
v -0.623894 -0.623894 -0.236417
v -0.460705 -0.797965 -0.246891
v -0.248596 -0.927775 -0.257366
v -0.000000 -0.976695 -0.261705
v 0.248596 -0.927775 -0.257366
v 0.460705 -0.797965 -0.246891
v 0.623894 -0.623894 -0.236417
v 0.750087 -0.433063 -0.232078
v 0.852254 -0.228361 -0.236417
v 0.847330 0.000000 -0.350976
v 0.853182 0.228609 -0.365866
v 0.777838 0.449085 -0.372034
v 0.624573 0.624573 -0.365866
v 0.423665 0.733809 -0.350976
v 0.210001 0.783734 -0.336085
v 0.000000 0.796490 -0.329917
v -0.210001 0.783734 -0.336085
v -0.423665 0.733809 -0.350976
v -0.624573 0.624573 -0.365866
v -0.777838 0.449085 -0.372034
v -0.853182 0.228609 -0.365866
v -0.847330 0.000000 -0.350976
v -0.783734 -0.210001 -0.336085
v -0.689781 -0.398245 -0.329917
v -0.573733 -0.573733 -0.336085
v -0.423665 -0.733809 -0.350976
v -0.228609 -0.853182 -0.365866
v -0.000000 -0.898170 -0.372034
v 0.228609 -0.853182 -0.365866
v 0.423665 -0.733809 -0.350976
v 0.573733 -0.573733 -0.336085
v 0.689781 -0.398245 -0.329917
v 0.783734 -0.210001 -0.336085
v 0.758860 0.000000 -0.438128
v 0.764101 0.204740 -0.456716
v 0.696624 0.402196 -0.464416
v 0.559361 0.559361 -0.456716
v 0.379430 0.657192 -0.438128
v 0.188075 0.701904 -0.419540
v 0.000000 0.713329 -0.411840
v -0.188075 0.701904 -0.419540
v -0.379430 0.657192 -0.438128
v -0.559361 0.559361 -0.456716
v -0.696624 0.402196 -0.464416
v -0.764101 0.204740 -0.456716
v -0.758860 0.000000 -0.438128
v -0.701904 -0.188075 -0.419540
v -0.617761 -0.356664 -0.411840
v -0.513829 -0.513829 -0.419540
v -0.379430 -0.657192 -0.438128
v -0.204740 -0.764101 -0.456716
v -0.000000 -0.804392 -0.464416
v 0.204740 -0.764101 -0.456716
v 0.379430 -0.657192 -0.438128
v 0.513829 -0.513829 -0.419540
v 0.617761 -0.356664 -0.411840
v 0.701904 -0.188075 -0.419540
v 0.661465 0.000000 -0.507560
v 0.666034 0.178463 -0.529094
v 0.607217 0.350577 -0.538014
v 0.487571 0.487571 -0.529094
v 0.330733 0.572846 -0.507560
v 0.163936 0.611819 -0.486026
v 0.000000 0.621777 -0.477107
v -0.163936 0.611819 -0.486026
v -0.330733 0.572846 -0.507560
v -0.487571 0.487571 -0.529094
v -0.607217 0.350577 -0.538014
v -0.666034 0.178463 -0.529094
v -0.661465 0.000000 -0.507560
v -0.611819 -0.163936 -0.486026
v -0.538475 -0.310889 -0.477107
v -0.447883 -0.447883 -0.486026
v -0.330733 -0.572846 -0.507560
v -0.178463 -0.666034 -0.529094
v -0.000000 -0.701153 -0.538014
v 0.178463 -0.666034 -0.529094
v 0.330733 -0.572846 -0.507560
v 0.447883 -0.447883 -0.486026
v 0.538475 -0.310889 -0.477107
v 0.611819 -0.163936 -0.486026
v 0.559950 0.000000 -0.559950
v 0.563817 0.151074 -0.583707
v 0.514027 0.296773 -0.593547
v 0.412743 0.412743 -0.583707
v 0.279975 0.484931 -0.559950
v 0.138777 0.517923 -0.536193
v 0.000000 0.526353 -0.526353
v -0.138777 0.517923 -0.536193
v -0.279975 0.484931 -0.559950
v -0.412743 0.412743 -0.583707
v -0.514027 0.296773 -0.593547
v -0.563817 0.151074 -0.583707
v -0.559950 0.000000 -0.559950
v -0.517923 -0.138777 -0.536193
v -0.455835 -0.263176 -0.526353
v -0.379146 -0.379146 -0.536193
v -0.279975 -0.484931 -0.559950
v -0.151074 -0.563817 -0.583707
v -0.000000 -0.593547 -0.593547
v 0.151074 -0.563817 -0.583707
v 0.279975 -0.484931 -0.559950
v 0.379146 -0.379146 -0.536193
v 0.455835 -0.263176 -0.526353
v 0.517923 -0.138777 -0.536193
v 0.458200 0.000000 -0.597137
v 0.461364 0.123622 -0.622472
v 0.420621 0.242846 -0.632965
v 0.337742 0.337742 -0.622472
v 0.229100 0.396812 -0.597137
v 0.113559 0.423809 -0.571803
v 0.000000 0.430708 -0.561309
v -0.113559 0.423809 -0.571803
v -0.229100 0.396812 -0.597137
v -0.337742 0.337742 -0.622472
v -0.420621 0.242846 -0.632965
v -0.461364 0.123622 -0.622472
v -0.458200 0.000000 -0.597137
v -0.423809 -0.113559 -0.571803
v -0.373004 -0.215354 -0.561309
v -0.310250 -0.310250 -0.571803
v -0.229100 -0.396812 -0.597137
v -0.123622 -0.461364 -0.622472
v -0.000000 -0.485691 -0.632965
v 0.123622 -0.461364 -0.622472
v 0.229100 -0.396812 -0.597137
v 0.310250 -0.310250 -0.571803
v 0.373004 -0.215354 -0.561309
v 0.423809 -0.113559 -0.571803
v 0.358963 0.000000 -0.621742
v 0.361442 0.096848 -0.648120
v 0.329523 0.190250 -0.659046
v 0.264594 0.264594 -0.648120
v 0.179481 0.310871 -0.621742
v 0.088965 0.332021 -0.595363
v 0.000000 0.337425 -0.584437
v -0.088965 0.332021 -0.595363
v -0.179481 0.310871 -0.621742
v -0.264594 0.264594 -0.648120
v -0.329523 0.190250 -0.659046
v -0.361442 0.096848 -0.648120
v -0.358963 0.000000 -0.621742
v -0.332021 -0.088965 -0.595363
v -0.292219 -0.168712 -0.584437
v -0.243056 -0.243056 -0.595363
v -0.179481 -0.310871 -0.621742
v -0.096848 -0.361442 -0.648120
v -0.000000 -0.380500 -0.659046
v 0.096848 -0.361442 -0.648120
v 0.179481 -0.310871 -0.621742
v 0.243056 -0.243056 -0.595363
v 0.292219 -0.168712 -0.584437
v 0.332021 -0.088965 -0.595363
v 0.263743 0.000000 -0.636731
v 0.265564 0.071158 -0.663745
v 0.242112 0.139784 -0.674935
v 0.194407 0.194407 -0.663745
v 0.131871 0.228408 -0.636731
v 0.065366 0.243947 -0.609717
v 0.000000 0.247918 -0.598527
v -0.065366 0.243947 -0.609717
v -0.131871 0.228408 -0.636731
v -0.194407 0.194407 -0.663745
v -0.242112 0.139784 -0.674935
v -0.265564 0.071158 -0.663745
v -0.263743 0.000000 -0.636731
v -0.243947 -0.065366 -0.609717
v -0.214703 -0.123959 -0.598527
v -0.178582 -0.178582 -0.609717
v -0.131871 -0.228408 -0.636731
v -0.071158 -0.265564 -0.663745
v -0.000000 -0.279567 -0.674935
v 0.071158 -0.265564 -0.663745
v 0.131871 -0.228408 -0.636731
v 0.178582 -0.178582 -0.609717
v 0.214703 -0.123959 -0.598527
v 0.243947 -0.065366 -0.609717
v 0.172823 0.000000 -0.644983
v 0.174016 0.046628 -0.672347
v 0.158649 0.091596 -0.683682
v 0.127389 0.127389 -0.672347
v 0.086411 0.149669 -0.644983
v 0.042832 0.159852 -0.617619
v 0.000000 0.162453 -0.606284
v -0.042832 0.159852 -0.617619
v -0.086411 0.149669 -0.644983
v -0.127389 0.127389 -0.672347
v -0.158649 0.091596 -0.683682
v -0.174016 0.046628 -0.672347
v -0.172823 0.000000 -0.644983
v -0.159852 -0.042832 -0.617619
v -0.140689 -0.081227 -0.606284
v -0.117019 -0.117019 -0.617619
v -0.086411 -0.149669 -0.644983
v -0.046628 -0.174016 -0.672347
v -0.000000 -0.183192 -0.683682
v 0.046628 -0.174016 -0.672347
v 0.086411 -0.149669 -0.644983
v 0.117019 -0.117019 -0.617619
v 0.140689 -0.081227 -0.606284
v 0.159852 -0.042832 -0.617619
v 0.085427 0.000000 -0.648883
v 0.086017 0.023048 -0.676412
v 0.078421 0.045276 -0.687816
v 0.062969 0.062969 -0.676412
v 0.042714 0.073982 -0.648883
v 0.021172 0.079015 -0.621353
v 0.000000 0.080301 -0.609950
v -0.021172 0.079015 -0.621353
v -0.042714 0.073982 -0.648883
v -0.062969 0.062969 -0.676412
v -0.078421 0.045276 -0.687816
v -0.086017 0.023048 -0.676412
v -0.085427 0.000000 -0.648883
v -0.079015 -0.021172 -0.621353
v -0.069543 -0.040151 -0.609950
v -0.057843 -0.057843 -0.621353
v -0.042714 -0.073982 -0.648883
v -0.023048 -0.086017 -0.676412
v -0.000000 -0.090553 -0.687816
v 0.023048 -0.086017 -0.676412
v 0.042714 -0.073982 -0.648883
v 0.057843 -0.057843 -0.621353
v 0.069543 -0.040151 -0.609950
v 0.079015 -0.021172 -0.621353
v 0.000000 0.000000 -0.650000
v 0.000000 0.000000 -0.677577
v 0.000000 0.000000 -0.689000
v 0.000000 0.000000 -0.677577
v 0.000000 0.000000 -0.650000
v 0.000000 0.000000 -0.622423
v 0.000000 0.000000 -0.611000
v -0.000000 0.000000 -0.622423
v -0.000000 0.000000 -0.650000
v -0.000000 0.000000 -0.677577
v -0.000000 0.000000 -0.689000
v -0.000000 0.000000 -0.677577
v -0.000000 0.000000 -0.650000
v -0.000000 -0.000000 -0.622423
v -0.000000 -0.000000 -0.611000
v -0.000000 -0.000000 -0.622423
v -0.000000 -0.000000 -0.650000
v -0.000000 -0.000000 -0.677577
v -0.000000 -0.000000 -0.689000
v 0.000000 -0.000000 -0.677577
v 0.000000 -0.000000 -0.650000
v 0.000000 -0.000000 -0.622423
v 0.000000 -0.000000 -0.611000
v 0.000000 -0.000000 -0.622423
f 1 2 26
f 1 26 25
f 2 3 27
f 2 27 26
f 3 4 28
f 3 28 27
f 4 5 29
f 4 29 28
f 5 6 30
f 5 30 29
f 6 7 31
f 6 31 30
f 7 8 32
f 7 32 31
f 8 9 33
f 8 33 32
f 9 10 34
f 9 34 33
f 10 11 35
f 10 35 34
f 11 12 36
f 11 36 35
f 12 13 37
f 12 37 36
f 13 14 38
f 13 38 37
f 14 15 39
f 14 39 38
f 15 16 40
f 15 40 39
f 16 17 41
f 16 41 40
f 17 18 42
f 17 42 41
f 18 19 43
f 18 43 42
f 19 20 44
f 19 44 43
f 20 21 45
f 20 45 44
f 21 22 46
f 21 46 45
f 22 23 47
f 22 47 46
f 23 24 48
f 23 48 47
f 24 1 25
f 24 25 48
f 25 26 50
f 25 50 49
f 26 27 51
f 26 51 50
f 27 28 52
f 27 52 51
f 28 29 53
f 28 53 52
f 29 30 54
f 29 54 53
f 30 31 55
f 30 55 54
f 31 32 56
f 31 56 55
f 32 33 57
f 32 57 56
f 33 34 58
f 33 58 57
f 34 35 59
f 34 59 58
f 35 36 60
f 35 60 59
f 36 37 61
f 36 61 60
f 37 38 62
f 37 62 61
f 38 39 63
f 38 63 62
f 39 40 64
f 39 64 63
f 40 41 65
f 40 65 64
f 41 42 66
f 41 66 65
f 42 43 67
f 42 67 66
f 43 44 68
f 43 68 67
f 44 45 69
f 44 69 68
f 45 46 70
f 45 70 69
f 46 47 71
f 46 71 70
f 47 48 72
f 47 72 71
f 48 25 49
f 48 49 72
f 49 50 74
f 49 74 73
f 50 51 75
f 50 75 74
f 51 52 76
f 51 76 75
f 52 53 77
f 52 77 76
f 53 54 78
f 53 78 77
f 54 55 79
f 54 79 78
f 55 56 80
f 55 80 79
f 56 57 81
f 56 81 80
f 57 58 82
f 57 82 81
f 58 59 83
f 58 83 82
f 59 60 84
f 59 84 83
f 60 61 85
f 60 85 84
f 61 62 86
f 61 86 85
f 62 63 87
f 62 87 86
f 63 64 88
f 63 88 87
f 64 65 89
f 64 89 88
f 65 66 90
f 65 90 89
f 66 67 91
f 66 91 90
f 67 68 92
f 67 92 91
f 68 69 93
f 68 93 92
f 69 70 94
f 69 94 93
f 70 71 95
f 70 95 94
f 71 72 96
f 71 96 95
f 72 49 73
f 72 73 96
f 73 74 98
f 73 98 97
f 74 75 99
f 74 99 98
f 75 76 100
f 75 100 99
f 76 77 101
f 76 101 100
f 77 78 102
f 77 102 101
f 78 79 103
f 78 103 102
f 79 80 104
f 79 104 103
f 80 81 105
f 80 105 104
f 81 82 106
f 81 106 105
f 82 83 107
f 82 107 106
f 83 84 108
f 83 108 107
f 84 85 109
f 84 109 108
f 85 86 110
f 85 110 109
f 86 87 111
f 86 111 110
f 87 88 112
f 87 112 111
f 88 89 113
f 88 113 112
f 89 90 114
f 89 114 113
f 90 91 115
f 90 115 114
f 91 92 116
f 91 116 115
f 92 93 117
f 92 117 116
f 93 94 118
f 93 118 117
f 94 95 119
f 94 119 118
f 95 96 120
f 95 120 119
f 96 73 97
f 96 97 120
f 97 98 122
f 97 122 121
f 98 99 123
f 98 123 122
f 99 100 124
f 99 124 123
f 100 101 125
f 100 125 124
f 101 102 126
f 101 126 125
f 102 103 127
f 102 127 126
f 103 104 128
f 103 128 127
f 104 105 129
f 104 129 128
f 105 106 130
f 105 130 129
f 106 107 131
f 106 131 130
f 107 108 132
f 107 132 131
f 108 109 133
f 108 133 132
f 109 110 134
f 109 134 133
f 110 111 135
f 110 135 134
f 111 112 136
f 111 136 135
f 112 113 137
f 112 137 136
f 113 114 138
f 113 138 137
f 114 115 139
f 114 139 138
f 115 116 140
f 115 140 139
f 116 117 141
f 116 141 140
f 117 118 142
f 117 142 141
f 118 119 143
f 118 143 142
f 119 120 144
f 119 144 143
f 120 97 121
f 120 121 144
f 121 122 146
f 121 146 145
f 122 123 147
f 122 147 146
f 123 124 148
f 123 148 147
f 124 125 149
f 124 149 148
f 125 126 150
f 125 150 149
f 126 127 151
f 126 151 150
f 127 128 152
f 127 152 151
f 128 129 153
f 128 153 152
f 129 130 154
f 129 154 153
f 130 131 155
f 130 155 154
f 131 132 156
f 131 156 155
f 132 133 157
f 132 157 156
f 133 134 158
f 133 158 157
f 134 135 159
f 134 159 158
f 135 136 160
f 135 160 159
f 136 137 161
f 136 161 160
f 137 138 162
f 137 162 161
f 138 139 163
f 138 163 162
f 139 140 164
f 139 164 163
f 140 141 165
f 140 165 164
f 141 142 166
f 141 166 165
f 142 143 167
f 142 167 166
f 143 144 168
f 143 168 167
f 144 121 145
f 144 145 168
f 145 146 170
f 145 170 169
f 146 147 171
f 146 171 170
f 147 148 172
f 147 172 171
f 148 149 173
f 148 173 172
f 149 150 174
f 149 174 173
f 150 151 175
f 150 175 174
f 151 152 176
f 151 176 175
f 152 153 177
f 152 177 176
f 153 154 178
f 153 178 177
f 154 155 179
f 154 179 178
f 155 156 180
f 155 180 179
f 156 157 181
f 156 181 180
f 157 158 182
f 157 182 181
f 158 159 183
f 158 183 182
f 159 160 184
f 159 184 183
f 160 161 185
f 160 185 184
f 161 162 186
f 161 186 185
f 162 163 187
f 162 187 186
f 163 164 188
f 163 188 187
f 164 165 189
f 164 189 188
f 165 166 190
f 165 190 189
f 166 167 191
f 166 191 190
f 167 168 192
f 167 192 191
f 168 145 169
f 168 169 192
f 169 170 194
f 169 194 193
f 170 171 195
f 170 195 194
f 171 172 196
f 171 196 195
f 172 173 197
f 172 197 196
f 173 174 198
f 173 198 197
f 174 175 199
f 174 199 198
f 175 176 200
f 175 200 199
f 176 177 201
f 176 201 200
f 177 178 202
f 177 202 201
f 178 179 203
f 178 203 202
f 179 180 204
f 179 204 203
f 180 181 205
f 180 205 204
f 181 182 206
f 181 206 205
f 182 183 207
f 182 207 206
f 183 184 208
f 183 208 207
f 184 185 209
f 184 209 208
f 185 186 210
f 185 210 209
f 186 187 211
f 186 211 210
f 187 188 212
f 187 212 211
f 188 189 213
f 188 213 212
f 189 190 214
f 189 214 213
f 190 191 215
f 190 215 214
f 191 192 216
f 191 216 215
f 192 169 193
f 192 193 216
f 193 194 218
f 193 218 217
f 194 195 219
f 194 219 218
f 195 196 220
f 195 220 219
f 196 197 221
f 196 221 220
f 197 198 222
f 197 222 221
f 198 199 223
f 198 223 222
f 199 200 224
f 199 224 223
f 200 201 225
f 200 225 224
f 201 202 226
f 201 226 225
f 202 203 227
f 202 227 226
f 203 204 228
f 203 228 227
f 204 205 229
f 204 229 228
f 205 206 230
f 205 230 229
f 206 207 231
f 206 231 230
f 207 208 232
f 207 232 231
f 208 209 233
f 208 233 232
f 209 210 234
f 209 234 233
f 210 211 235
f 210 235 234
f 211 212 236
f 211 236 235
f 212 213 237
f 212 237 236
f 213 214 238
f 213 238 237
f 214 215 239
f 214 239 238
f 215 216 240
f 215 240 239
f 216 193 217
f 216 217 240
f 217 218 242
f 217 242 241
f 218 219 243
f 218 243 242
f 219 220 244
f 219 244 243
f 220 221 245
f 220 245 244
f 221 222 246
f 221 246 245
f 222 223 247
f 222 247 246
f 223 224 248
f 223 248 247
f 224 225 249
f 224 249 248
f 225 226 250
f 225 250 249
f 226 227 251
f 226 251 250
f 227 228 252
f 227 252 251
f 228 229 253
f 228 253 252
f 229 230 254
f 229 254 253
f 230 231 255
f 230 255 254
f 231 232 256
f 231 256 255
f 232 233 257
f 232 257 256
f 233 234 258
f 233 258 257
f 234 235 259
f 234 259 258
f 235 236 260
f 235 260 259
f 236 237 261
f 236 261 260
f 237 238 262
f 237 262 261
f 238 239 263
f 238 263 262
f 239 240 264
f 239 264 263
f 240 217 241
f 240 241 264
f 241 242 266
f 241 266 265
f 242 243 267
f 242 267 266
f 243 244 268
f 243 268 267
f 244 245 269
f 244 269 268
f 245 246 270
f 245 270 269
f 246 247 271
f 246 271 270
f 247 248 272
f 247 272 271
f 248 249 273
f 248 273 272
f 249 250 274
f 249 274 273
f 250 251 275
f 250 275 274
f 251 252 276
f 251 276 275
f 252 253 277
f 252 277 276
f 253 254 278
f 253 278 277
f 254 255 279
f 254 279 278
f 255 256 280
f 255 280 279
f 256 257 281
f 256 281 280
f 257 258 282
f 257 282 281
f 258 259 283
f 258 283 282
f 259 260 284
f 259 284 283
f 260 261 285
f 260 285 284
f 261 262 286
f 261 286 285
f 262 263 287
f 262 287 286
f 263 264 288
f 263 288 287
f 264 241 265
f 264 265 288
f 265 266 290
f 265 290 289
f 266 267 291
f 266 291 290
f 267 268 292
f 267 292 291
f 268 269 293
f 268 293 292
f 269 270 294
f 269 294 293
f 270 271 295
f 270 295 294
f 271 272 296
f 271 296 295
f 272 273 297
f 272 297 296
f 273 274 298
f 273 298 297
f 274 275 299
f 274 299 298
f 275 276 300
f 275 300 299
f 276 277 301
f 276 301 300
f 277 278 302
f 277 302 301
f 278 279 303
f 278 303 302
f 279 280 304
f 279 304 303
f 280 281 305
f 280 305 304
f 281 282 306
f 281 306 305
f 282 283 307
f 282 307 306
f 283 284 308
f 283 308 307
f 284 285 309
f 284 309 308
f 285 286 310
f 285 310 309
f 286 287 311
f 286 311 310
f 287 288 312
f 287 312 311
f 288 265 289
f 288 289 312
f 289 290 314
f 289 314 313
f 290 291 315
f 290 315 314
f 291 292 316
f 291 316 315
f 292 293 317
f 292 317 316
f 293 294 318
f 293 318 317
f 294 295 319
f 294 319 318
f 295 296 320
f 295 320 319
f 296 297 321
f 296 321 320
f 297 298 322
f 297 322 321
f 298 299 323
f 298 323 322
f 299 300 324
f 299 324 323
f 300 301 325
f 300 325 324
f 301 302 326
f 301 326 325
f 302 303 327
f 302 327 326
f 303 304 328
f 303 328 327
f 304 305 329
f 304 329 328
f 305 306 330
f 305 330 329
f 306 307 331
f 306 331 330
f 307 308 332
f 307 332 331
f 308 309 333
f 308 333 332
f 309 310 334
f 309 334 333
f 310 311 335
f 310 335 334
f 311 312 336
f 311 336 335
f 312 289 313
f 312 313 336
f 313 314 338
f 313 338 337
f 314 315 339
f 314 339 338
f 315 316 340
f 315 340 339
f 316 317 341
f 316 341 340
f 317 318 342
f 317 342 341
f 318 319 343
f 318 343 342
f 319 320 344
f 319 344 343
f 320 321 345
f 320 345 344
f 321 322 346
f 321 346 345
f 322 323 347
f 322 347 346
f 323 324 348
f 323 348 347
f 324 325 349
f 324 349 348
f 325 326 350
f 325 350 349
f 326 327 351
f 326 351 350
f 327 328 352
f 327 352 351
f 328 329 353
f 328 353 352
f 329 330 354
f 329 354 353
f 330 331 355
f 330 355 354
f 331 332 356
f 331 356 355
f 332 333 357
f 332 357 356
f 333 334 358
f 333 358 357
f 334 335 359
f 334 359 358
f 335 336 360
f 335 360 359
f 336 313 337
f 336 337 360
f 337 338 362
f 337 362 361
f 338 339 363
f 338 363 362
f 339 340 364
f 339 364 363
f 340 341 365
f 340 365 364
f 341 342 366
f 341 366 365
f 342 343 367
f 342 367 366
f 343 344 368
f 343 368 367
f 344 345 369
f 344 369 368
f 345 346 370
f 345 370 369
f 346 347 371
f 346 371 370
f 347 348 372
f 347 372 371
f 348 349 373
f 348 373 372
f 349 350 374
f 349 374 373
f 350 351 375
f 350 375 374
f 351 352 376
f 351 376 375
f 352 353 377
f 352 377 376
f 353 354 378
f 353 378 377
f 354 355 379
f 354 379 378
f 355 356 380
f 355 380 379
f 356 357 381
f 356 381 380
f 357 358 382
f 357 382 381
f 358 359 383
f 358 383 382
f 359 360 384
f 359 384 383
f 360 337 361
f 360 361 384
f 361 362 386
f 361 386 385
f 362 363 387
f 362 387 386
f 363 364 388
f 363 388 387
f 364 365 389
f 364 389 388
f 365 366 390
f 365 390 389
f 366 367 391
f 366 391 390
f 367 368 392
f 367 392 391
f 368 369 393
f 368 393 392
f 369 370 394
f 369 394 393
f 370 371 395
f 370 395 394
f 371 372 396
f 371 396 395
f 372 373 397
f 372 397 396
f 373 374 398
f 373 398 397
f 374 375 399
f 374 399 398
f 375 376 400
f 375 400 399
f 376 377 401
f 376 401 400
f 377 378 402
f 377 402 401
f 378 379 403
f 378 403 402
f 379 380 404
f 379 404 403
f 380 381 405
f 380 405 404
f 381 382 406
f 381 406 405
f 382 383 407
f 382 407 406
f 383 384 408
f 383 408 407
f 384 361 385
f 384 385 408
f 385 386 410
f 385 410 409
f 386 387 411
f 386 411 410
f 387 388 412
f 387 412 411
f 388 389 413
f 388 413 412
f 389 390 414
f 389 414 413
f 390 391 415
f 390 415 414
f 391 392 416
f 391 416 415
f 392 393 417
f 392 417 416
f 393 394 418
f 393 418 417
f 394 395 419
f 394 419 418
f 395 396 420
f 395 420 419
f 396 397 421
f 396 421 420
f 397 398 422
f 397 422 421
f 398 399 423
f 398 423 422
f 399 400 424
f 399 424 423
f 400 401 425
f 400 425 424
f 401 402 426
f 401 426 425
f 402 403 427
f 402 427 426
f 403 404 428
f 403 428 427
f 404 405 429
f 404 429 428
f 405 406 430
f 405 430 429
f 406 407 431
f 406 431 430
f 407 408 432
f 407 432 431
f 408 385 409
f 408 409 432
f 409 410 434
f 409 434 433
f 410 411 435
f 410 435 434
f 411 412 436
f 411 436 435
f 412 413 437
f 412 437 436
f 413 414 438
f 413 438 437
f 414 415 439
f 414 439 438
f 415 416 440
f 415 440 439
f 416 417 441
f 416 441 440
f 417 418 442
f 417 442 441
f 418 419 443
f 418 443 442
f 419 420 444
f 419 444 443
f 420 421 445
f 420 445 444
f 421 422 446
f 421 446 445
f 422 423 447
f 422 447 446
f 423 424 448
f 423 448 447
f 424 425 449
f 424 449 448
f 425 426 450
f 425 450 449
f 426 427 451
f 426 451 450
f 427 428 452
f 427 452 451
f 428 429 453
f 428 453 452
f 429 430 454
f 429 454 453
f 430 431 455
f 430 455 454
f 431 432 456
f 431 456 455
f 432 409 433
f 432 433 456
f 433 434 458
f 433 458 457
f 434 435 459
f 434 459 458
f 435 436 460
f 435 460 459
f 436 437 461
f 436 461 460
f 437 438 462
f 437 462 461
f 438 439 463
f 438 463 462
f 439 440 464
f 439 464 463
f 440 441 465
f 440 465 464
f 441 442 466
f 441 466 465
f 442 443 467
f 442 467 466
f 443 444 468
f 443 468 467
f 444 445 469
f 444 469 468
f 445 446 470
f 445 470 469
f 446 447 471
f 446 471 470
f 447 448 472
f 447 472 471
f 448 449 473
f 448 473 472
f 449 450 474
f 449 474 473
f 450 451 475
f 450 475 474
f 451 452 476
f 451 476 475
f 452 453 477
f 452 477 476
f 453 454 478
f 453 478 477
f 454 455 479
f 454 479 478
f 455 456 480
f 455 480 479
f 456 433 457
f 456 457 480
f 457 458 482
f 457 482 481
f 458 459 483
f 458 483 482
f 459 460 484
f 459 484 483
f 460 461 485
f 460 485 484
f 461 462 486
f 461 486 485
f 462 463 487
f 462 487 486
f 463 464 488
f 463 488 487
f 464 465 489
f 464 489 488
f 465 466 490
f 465 490 489
f 466 467 491
f 466 491 490
f 467 468 492
f 467 492 491
f 468 469 493
f 468 493 492
f 469 470 494
f 469 494 493
f 470 471 495
f 470 495 494
f 471 472 496
f 471 496 495
f 472 473 497
f 472 497 496
f 473 474 498
f 473 498 497
f 474 475 499
f 474 499 498
f 475 476 500
f 475 500 499
f 476 477 501
f 476 501 500
f 477 478 502
f 477 502 501
f 478 479 503
f 478 503 502
f 479 480 504
f 479 504 503
f 480 457 481
f 480 481 504
f 481 482 506
f 481 506 505
f 482 483 507
f 482 507 506
f 483 484 508
f 483 508 507
f 484 485 509
f 484 509 508
f 485 486 510
f 485 510 509
f 486 487 511
f 486 511 510
f 487 488 512
f 487 512 511
f 488 489 513
f 488 513 512
f 489 490 514
f 489 514 513
f 490 491 515
f 490 515 514
f 491 492 516
f 491 516 515
f 492 493 517
f 492 517 516
f 493 494 518
f 493 518 517
f 494 495 519
f 494 519 518
f 495 496 520
f 495 520 519
f 496 497 521
f 496 521 520
f 497 498 522
f 497 522 521
f 498 499 523
f 498 523 522
f 499 500 524
f 499 524 523
f 500 501 525
f 500 525 524
f 501 502 526
f 501 526 525
f 502 503 527
f 502 527 526
f 503 504 528
f 503 528 527
f 504 481 505
f 504 505 528
f 505 506 530
f 505 530 529
f 506 507 531
f 506 531 530
f 507 508 532
f 507 532 531
f 508 509 533
f 508 533 532
f 509 510 534
f 509 534 533
f 510 511 535
f 510 535 534
f 511 512 536
f 511 536 535
f 512 513 537
f 512 537 536
f 513 514 538
f 513 538 537
f 514 515 539
f 514 539 538
f 515 516 540
f 515 540 539
f 516 517 541
f 516 541 540
f 517 518 542
f 517 542 541
f 518 519 543
f 518 543 542
f 519 520 544
f 519 544 543
f 520 521 545
f 520 545 544
f 521 522 546
f 521 546 545
f 522 523 547
f 522 547 546
f 523 524 548
f 523 548 547
f 524 525 549
f 524 549 548
f 525 526 550
f 525 550 549
f 526 527 551
f 526 551 550
f 527 528 552
f 527 552 551
f 528 505 529
f 528 529 552
f 529 530 554
f 529 554 553
f 530 531 555
f 530 555 554
f 531 532 556
f 531 556 555
f 532 533 557
f 532 557 556
f 533 534 558
f 533 558 557
f 534 535 559
f 534 559 558
f 535 536 560
f 535 560 559
f 536 537 561
f 536 561 560
f 537 538 562
f 537 562 561
f 538 539 563
f 538 563 562
f 539 540 564
f 539 564 563
f 540 541 565
f 540 565 564
f 541 542 566
f 541 566 565
f 542 543 567
f 542 567 566
f 543 544 568
f 543 568 567
f 544 545 569
f 544 569 568
f 545 546 570
f 545 570 569
f 546 547 571
f 546 571 570
f 547 548 572
f 547 572 571
f 548 549 573
f 548 573 572
f 549 550 574
f 549 574 573
f 550 551 575
f 550 575 574
f 551 552 576
f 551 576 575
f 552 529 553
f 552 553 576
f 553 554 578
f 553 578 577
f 554 555 579
f 554 579 578
f 555 556 580
f 555 580 579
f 556 557 581
f 556 581 580
f 557 558 582
f 557 582 581
f 558 559 583
f 558 583 582
f 559 560 584
f 559 584 583
f 560 561 585
f 560 585 584
f 561 562 586
f 561 586 585
f 562 563 587
f 562 587 586
f 563 564 588
f 563 588 587
f 564 565 589
f 564 589 588
f 565 566 590
f 565 590 589
f 566 567 591
f 566 591 590
f 567 568 592
f 567 592 591
f 568 569 593
f 568 593 592
f 569 570 594
f 569 594 593
f 570 571 595
f 570 595 594
f 571 572 596
f 571 596 595
f 572 573 597
f 572 597 596
f 573 574 598
f 573 598 597
f 574 575 599
f 574 599 598
f 575 576 600
f 575 600 599
f 576 553 577
f 576 577 600
