mtllib apple_05_realistic.mtl
usemtl apple_mat
v 0.000000 0.000000 -1.000000
v 0.000000 0.000000 -1.000000
v 0.000000 0.000000 -1.000000
v 0.000000 0.000000 -1.000000
v 0.000000 0.000000 -1.000000
v 0.000000 0.000000 -1.000000
v 0.000000 0.000000 -1.000000
v 0.000000 0.000000 -1.000000
v 0.000000 0.000000 -1.000000
v -0.000000 0.000000 -1.000000
v -0.000000 0.000000 -1.000000
v -0.000000 0.000000 -1.000000
v -0.000000 0.000000 -1.000000
v -0.000000 0.000000 -1.000000
v -0.000000 0.000000 -1.000000
v -0.000000 0.000000 -1.000000
v -0.000000 0.000000 -1.000000
v -0.000000 -0.000000 -1.000000
v -0.000000 -0.000000 -1.000000
v -0.000000 -0.000000 -1.000000
v -0.000000 -0.000000 -1.000000
v -0.000000 -0.000000 -1.000000
v -0.000000 -0.000000 -1.000000
v -0.000000 -0.000000 -1.000000
v -0.000000 -0.000000 -1.000000
v 0.000000 -0.000000 -1.000000
v 0.000000 -0.000000 -1.000000
v 0.000000 -0.000000 -1.000000
v 0.000000 -0.000000 -1.000000
v 0.000000 -0.000000 -1.000000
v 0.000000 -0.000000 -1.000000
v 0.000000 -0.000000 -1.000000
v 0.309519 0.000000 -0.928571
v 0.312005 0.062062 -0.928571
v 0.299168 0.123919 -0.928571
v 0.269976 0.180392 -0.928571
v 0.226601 0.226601 -0.928571
v 0.173637 0.259866 -0.928571
v 0.116181 0.280487 -0.928571
v 0.057874 0.290951 -0.928571
v 0.000000 0.294043 -0.928571
v -0.057874 0.290951 -0.928571
v -0.116181 0.280487 -0.928571
v -0.173637 0.259866 -0.928571
v -0.226601 0.226601 -0.928571
v -0.269976 0.180392 -0.928571
v -0.299168 0.123919 -0.928571
v -0.312005 0.062062 -0.928571
v -0.309519 0.000000 -0.928571
v -0.295139 -0.058707 -0.928571
v -0.272749 -0.112976 -0.928571
v -0.244735 -0.163527 -0.928571
v -0.211125 -0.211125 -0.928571
v -0.170282 -0.254845 -0.928571
v -0.120714 -0.291430 -0.928571
v -0.062895 -0.316192 -0.928571
v -0.000000 -0.324995 -0.928571
v 0.062895 -0.316192 -0.928571
v 0.120714 -0.291430 -0.928571
v 0.170282 -0.254845 -0.928571
v 0.211125 -0.211125 -0.928571
v 0.244735 -0.163527 -0.928571
v 0.272749 -0.112976 -0.928571
v 0.295139 -0.058707 -0.928571
v 0.445075 0.000000 -0.857143
v 0.448648 0.089242 -0.857143
v 0.430190 0.178191 -0.857143
v 0.388214 0.259396 -0.857143
v 0.325842 0.325842 -0.857143
v 0.249682 0.373676 -0.857143
v 0.167064 0.403327 -0.857143
v 0.083220 0.418375 -0.857143
v 0.000000 0.422821 -0.857143
v -0.083220 0.418375 -0.857143
v -0.167064 0.403327 -0.857143
v -0.249682 0.373676 -0.857143
v -0.325842 0.325842 -0.857143
v -0.388214 0.259396 -0.857143
v -0.430190 0.178191 -0.857143
v -0.448648 0.089242 -0.857143
v -0.445075 0.000000 -0.857143
v -0.424397 -0.084418 -0.857143
v -0.392201 -0.162455 -0.857143
v -0.351918 -0.235144 -0.857143
v -0.303588 -0.303588 -0.857143
v -0.244858 -0.366456 -0.857143
v -0.173582 -0.419063 -0.857143
v -0.090440 -0.454670 -0.857143
v -0.000000 -0.467328 -0.857143
v 0.090440 -0.454670 -0.857143
v 0.173582 -0.419063 -0.857143
v 0.244858 -0.366456 -0.857143
v 0.303588 -0.303588 -0.857143
v 0.351918 -0.235144 -0.857143
v 0.392201 -0.162455 -0.857143
v 0.424397 -0.084418 -0.857143
v 0.535717 0.000000 -0.785714
v 0.540019 0.107416 -0.785714
v 0.517801 0.214480 -0.785714
v 0.467276 0.312224 -0.785714
v 0.392202 0.392202 -0.785714
v 0.300532 0.449777 -0.785714
v 0.201087 0.485468 -0.785714
v 0.100168 0.503580 -0.785714
v 0.000000 0.508931 -0.785714
v -0.100168 0.503580 -0.785714
v -0.201087 0.485468 -0.785714
v -0.300532 0.449777 -0.785714
v -0.392202 0.392202 -0.785714
v -0.467276 0.312224 -0.785714
v -0.517801 0.214480 -0.785714
v -0.540019 0.107416 -0.785714
v -0.535717 0.000000 -0.785714
v -0.510828 -0.101610 -0.785714
v -0.472075 -0.195540 -0.785714
v -0.423589 -0.283033 -0.785714
v -0.365416 -0.365416 -0.785714
v -0.294725 -0.441087 -0.785714
v -0.208933 -0.504408 -0.785714
v -0.108858 -0.547267 -0.785714
v -0.000000 -0.562503 -0.785714
v 0.108858 -0.547267 -0.785714
v 0.208933 -0.504408 -0.785714
v 0.294725 -0.441087 -0.785714
v 0.365416 -0.365416 -0.785714
v 0.423589 -0.283033 -0.785714
v 0.472075 -0.195540 -0.785714
v 0.510828 -0.101610 -0.785714
v 0.595393 0.000000 -0.714286
v 0.600174 0.119382 -0.714286
v 0.575482 0.238372 -0.714286
v 0.519328 0.347004 -0.714286
v 0.435892 0.435892 -0.714286
v 0.334009 0.499880 -0.714286
v 0.223488 0.539547 -0.714286
v 0.111326 0.559676 -0.714286
v 0.000000 0.565624 -0.714286
v -0.111326 0.559676 -0.714286
v -0.223488 0.539547 -0.714286
v -0.334009 0.499880 -0.714286
v -0.435892 0.435892 -0.714286
v -0.519328 0.347004 -0.714286
v -0.575482 0.238372 -0.714286
v -0.600174 0.119382 -0.714286
v -0.595393 0.000000 -0.714286
v -0.567732 -0.112929 -0.714286
v -0.524662 -0.217322 -0.714286
v -0.470775 -0.314561 -0.714286
v -0.406122 -0.406122 -0.714286
v -0.327556 -0.490222 -0.714286
v -0.232207 -0.560597 -0.714286
v -0.120984 -0.608230 -0.714286
v -0.000000 -0.625163 -0.714286
v 0.120984 -0.608230 -0.714286
v 0.232207 -0.560597 -0.714286
v 0.327556 -0.490222 -0.714286
v 0.406122 -0.406122 -0.714286
v 0.470775 -0.314561 -0.714286
v 0.524662 -0.217322 -0.714286
v 0.567732 -0.112929 -0.714286
v 0.686891 0.000000 -0.642857
v 0.692407 0.137728 -0.642857
v 0.663919 0.275004 -0.642857
v 0.599137 0.400330 -0.642857
v 0.502878 0.502878 -0.642857
v 0.385339 0.576700 -0.642857
v 0.257832 0.622462 -0.642857
v 0.128435 0.645685 -0.642857
v 0.000000 0.652546 -0.642857
v -0.128435 0.645685 -0.642857
v -0.257832 0.622462 -0.642857
v -0.385339 0.576700 -0.642857
v -0.502878 0.502878 -0.642857
v -0.599137 0.400330 -0.642857
v -0.663919 0.275004 -0.642857
v -0.692407 0.137728 -0.642857
v -0.686891 0.000000 -0.642857
v -0.654978 -0.130283 -0.642857
v -0.605290 -0.250719 -0.642857
v -0.543121 -0.362902 -0.642857
v -0.468533 -0.468533 -0.642857
v -0.377894 -0.565558 -0.642857
v -0.267891 -0.646747 -0.642857
v -0.139577 -0.701700 -0.642857
v -0.000000 -0.721236 -0.642857
v 0.139577 -0.701700 -0.642857
v 0.267891 -0.646747 -0.642857
v 0.377894 -0.565558 -0.642857
v 0.468533 -0.468533 -0.642857
v 0.543121 -0.362902 -0.642857
v 0.605290 -0.250719 -0.642857
v 0.654978 -0.130283 -0.642857
v 0.756289 0.000000 -0.571429
v 0.762362 0.151643 -0.571429
v 0.730997 0.302789 -0.571429
v 0.659669 0.440777 -0.571429
v 0.553684 0.553684 -0.571429
v 0.424270 0.634965 -0.571429
v 0.283882 0.685351 -0.571429
v 0.141411 0.710920 -0.571429
v 0.000000 0.718475 -0.571429
v -0.141411 0.710920 -0.571429
v -0.283882 0.685351 -0.571429
v -0.424270 0.634965 -0.571429
v -0.553684 0.553684 -0.571429
v -0.659669 0.440777 -0.571429
v -0.730997 0.302789 -0.571429
v -0.762362 0.151643 -0.571429
v -0.756289 0.000000 -0.571429
v -0.721152 -0.143446 -0.571429
v -0.666443 -0.276050 -0.571429
v -0.597994 -0.399567 -0.571429
v -0.515870 -0.515870 -0.571429
v -0.416073 -0.622698 -0.571429
v -0.294957 -0.712090 -0.571429
v -0.153679 -0.772595 -0.571429
v -0.000000 -0.794104 -0.571429
v 0.153679 -0.772595 -0.571429
v 0.294957 -0.712090 -0.571429
v 0.416073 -0.622698 -0.571429
v 0.515870 -0.515870 -0.571429
v 0.597994 -0.399567 -0.571429
v 0.666443 -0.276050 -0.571429
v 0.721152 -0.143446 -0.571429
v 0.785229 0.000000 -0.500000
v 0.791535 0.157446 -0.500000
v 0.758969 0.314375 -0.500000
v 0.684912 0.457643 -0.500000
v 0.574872 0.574872 -0.500000
v 0.440505 0.659263 -0.500000
v 0.294744 0.711576 -0.500000
v 0.146822 0.738124 -0.500000
v 0.000000 0.745968 -0.500000
v -0.146822 0.738124 -0.500000
v -0.294744 0.711576 -0.500000
v -0.440505 0.659263 -0.500000
v -0.574872 0.574872 -0.500000
v -0.684912 0.457643 -0.500000
v -0.758969 0.314375 -0.500000
v -0.791535 0.157446 -0.500000
v -0.785229 0.000000 -0.500000
v -0.748748 -0.148935 -0.500000
v -0.691945 -0.286613 -0.500000
v -0.620877 -0.414857 -0.500000
v -0.535610 -0.535610 -0.500000
v -0.431995 -0.646525 -0.500000
v -0.306244 -0.739338 -0.500000
v -0.159559 -0.802159 -0.500000
v -0.000000 -0.824491 -0.500000
v 0.159559 -0.802159 -0.500000
v 0.306244 -0.739338 -0.500000
v 0.431995 -0.646525 -0.500000
v 0.535610 -0.535610 -0.500000
v 0.620877 -0.414857 -0.500000
v 0.691945 -0.286613 -0.500000
v 0.748748 -0.148935 -0.500000
v 0.828675 0.000000 -0.428571
v 0.835329 0.166157 -0.428571
v 0.800961 0.331769 -0.428571
v 0.722807 0.482964 -0.428571
v 0.606678 0.606678 -0.428571
v 0.464878 0.695739 -0.428571
v 0.311052 0.750946 -0.428571
v 0.154945 0.778963 -0.428571
v 0.000000 0.787241 -0.428571
v -0.154945 0.778963 -0.428571
v -0.311052 0.750946 -0.428571
v -0.464878 0.695739 -0.428571
v -0.606678 0.606678 -0.428571
v -0.722807 0.482964 -0.428571
v -0.800961 0.331769 -0.428571
v -0.835329 0.166157 -0.428571
v -0.828675 0.000000 -0.428571
v -0.790175 -0.157176 -0.428571
v -0.730230 -0.302471 -0.428571
v -0.655229 -0.437810 -0.428571
v -0.565245 -0.565245 -0.428571
v -0.455896 -0.682297 -0.428571
v -0.323188 -0.780245 -0.428571
v -0.168387 -0.846541 -0.428571
v -0.000000 -0.870108 -0.428571
v 0.168387 -0.846541 -0.428571
v 0.323188 -0.780245 -0.428571
v 0.455896 -0.682297 -0.428571
v 0.565245 -0.565245 -0.428571
v 0.655229 -0.437810 -0.428571
v 0.730230 -0.302471 -0.428571
v 0.790175 -0.157176 -0.428571
v 0.882181 0.000000 -0.357143
v 0.889265 0.176886 -0.357143
v 0.852678 0.353191 -0.357143
v 0.769477 0.514148 -0.357143
v 0.645850 0.645850 -0.357143
v 0.494894 0.740661 -0.357143
v 0.331136 0.799434 -0.357143
v 0.164950 0.829259 -0.357143
v 0.000000 0.838072 -0.357143
v -0.164950 0.829259 -0.357143
v -0.331136 0.799434 -0.357143
v -0.494894 0.740661 -0.357143
v -0.645850 0.645850 -0.357143
v -0.769477 0.514148 -0.357143
v -0.852678 0.353191 -0.357143
v -0.889265 0.176886 -0.357143
v -0.882181 0.000000 -0.357143
v -0.841195 -0.167324 -0.357143
v -0.777379 -0.322001 -0.357143
v -0.697536 -0.466079 -0.357143
v -0.601741 -0.601741 -0.357143
v -0.485333 -0.726351 -0.357143
v -0.344056 -0.830624 -0.357143
v -0.179260 -0.901200 -0.357143
v -0.000000 -0.926290 -0.357143
v 0.179260 -0.901200 -0.357143
v 0.344056 -0.830624 -0.357143
v 0.485333 -0.726351 -0.357143
v 0.601741 -0.601741 -0.357143
v 0.697536 -0.466079 -0.357143
v 0.777379 -0.322001 -0.357143
v 0.841195 -0.167324 -0.357143
v 0.932048 0.000000 -0.285714
v 0.939532 0.186885 -0.285714
v 0.900877 0.373156 -0.285714
v 0.812973 0.543211 -0.285714
v 0.682358 0.682358 -0.285714
v 0.522869 0.782529 -0.285714
v 0.349854 0.844623 -0.285714
v 0.174274 0.876135 -0.285714
v 0.000000 0.885445 -0.285714
v -0.174274 0.876135 -0.285714
v -0.349854 0.844623 -0.285714
v -0.522869 0.782529 -0.285714
v -0.682358 0.682358 -0.285714
v -0.812973 0.543211 -0.285714
v -0.900877 0.373156 -0.285714
v -0.939532 0.186885 -0.285714
v -0.932048 0.000000 -0.285714
v -0.888745 -0.176782 -0.285714
v -0.821322 -0.340203 -0.285714
v -0.736965 -0.492425 -0.285714
v -0.635756 -0.635756 -0.285714
v -0.512767 -0.767410 -0.285714
v -0.363504 -0.877576 -0.285714
v -0.189393 -0.952143 -0.285714
v -0.000000 -0.978650 -0.285714
v 0.189393 -0.952143 -0.285714
v 0.363504 -0.877576 -0.285714
v 0.512767 -0.767410 -0.285714
v 0.635756 -0.635756 -0.285714
v 0.736965 -0.492425 -0.285714
v 0.821322 -0.340203 -0.285714
v 0.888745 -0.176782 -0.285714
v 0.964810 0.000000 -0.214286
v 0.972557 0.193454 -0.214286
v 0.932544 0.386272 -0.214286
v 0.841550 0.562306 -0.214286
v 0.706344 0.706344 -0.214286
v 0.541248 0.810035 -0.214286
v 0.362152 0.874313 -0.214286
v 0.180400 0.906932 -0.214286
v 0.000000 0.916569 -0.214286
v -0.180400 0.906932 -0.214286
v -0.362152 0.874313 -0.214286
v -0.541248 0.810035 -0.214286
v -0.706344 0.706344 -0.214286
v -0.841550 0.562306 -0.214286
v -0.932544 0.386272 -0.214286
v -0.972557 0.193454 -0.214286
v -0.964810 0.000000 -0.214286
v -0.919985 -0.182996 -0.214286
v -0.850192 -0.352161 -0.214286
v -0.762870 -0.509734 -0.214286
v -0.658103 -0.658103 -0.214286
v -0.530791 -0.794385 -0.214286
v -0.376281 -0.908424 -0.214286
v -0.196050 -0.985611 -0.214286
v -0.000000 -1.013050 -0.214286
v 0.196050 -0.985611 -0.214286
v 0.376281 -0.908424 -0.214286
v 0.530791 -0.794385 -0.214286
v 0.658103 -0.658103 -0.214286
v 0.762870 -0.509734 -0.214286
v 0.850192 -0.352161 -0.214286
v 0.919985 -0.182996 -0.214286
v 0.976691 0.000000 -0.142857
v 0.984534 0.195836 -0.142857
v 0.944028 0.391029 -0.142857
v 0.851913 0.569230 -0.142857
v 0.715042 0.715042 -0.142857
v 0.547913 0.820010 -0.142857
v 0.366612 0.885079 -0.142857
v 0.182621 0.918100 -0.142857
v 0.000000 0.927856 -0.142857
v -0.182621 0.918100 -0.142857
v -0.366612 0.885079 -0.142857
v -0.547913 0.820010 -0.142857
v -0.715042 0.715042 -0.142857
v -0.851913 0.569230 -0.142857
v -0.944028 0.391029 -0.142857
v -0.984534 0.195836 -0.142857
v -0.976691 0.000000 -0.142857
v -0.931314 -0.185250 -0.142857
v -0.860662 -0.356498 -0.142857
v -0.772265 -0.516011 -0.142857
v -0.666207 -0.666207 -0.142857
v -0.537327 -0.804167 -0.142857
v -0.380915 -0.919610 -0.142857
v -0.198464 -0.997748 -0.142857
v -0.000000 -1.025525 -0.142857
v 0.198464 -0.997748 -0.142857
v 0.380915 -0.919610 -0.142857
v 0.537327 -0.804167 -0.142857
v 0.666207 -0.666207 -0.142857
v 0.772265 -0.516011 -0.142857
v 0.860662 -0.356498 -0.142857
v 0.931314 -0.185250 -0.142857
v 0.976987 0.000000 -0.071429
v 0.984833 0.195895 -0.071429
v 0.944314 0.391148 -0.071429
v 0.852172 0.569403 -0.071429
v 0.715259 0.715259 -0.071429
v 0.548080 0.820259 -0.071429
v 0.366723 0.885348 -0.071429
v 0.182677 0.918378 -0.071429
v 0.000000 0.928138 -0.071429
v -0.182677 0.918378 -0.071429
v -0.366723 0.885348 -0.071429
v -0.548080 0.820259 -0.071429
v -0.715259 0.715259 -0.071429
v -0.852172 0.569403 -0.071429
v -0.944314 0.391148 -0.071429
v -0.984833 0.195895 -0.071429
v -0.976987 0.000000 -0.071429
v -0.931597 -0.185306 -0.071429
v -0.860923 -0.356606 -0.071429
v -0.772499 -0.516167 -0.071429
v -0.666410 -0.666410 -0.071429
v -0.537490 -0.804411 -0.071429
v -0.381031 -0.919889 -0.071429
v -0.198525 -0.998051 -0.071429
v -0.000000 -1.025837 -0.071429
v 0.198525 -0.998051 -0.071429
v 0.381031 -0.919889 -0.071429
v 0.537490 -0.804411 -0.071429
v 0.666410 -0.666410 -0.071429
v 0.772499 -0.516167 -0.071429
v 0.860923 -0.356606 -0.071429
v 0.931597 -0.185306 -0.071429
v 0.972865 0.000000 0.000000
v 0.980677 0.195069 0.000000
v 0.940329 0.389497 0.000000
v 0.848576 0.567000 0.000000
v 0.712241 0.712241 0.000000
v 0.545767 0.816798 0.000000
v 0.365176 0.881612 0.000000
v 0.181906 0.914503 0.000000
v 0.000000 0.924222 0.000000
v -0.181906 0.914503 0.000000
v -0.365176 0.881612 0.000000
v -0.545767 0.816798 0.000000
v -0.712241 0.712241 0.000000
v -0.848576 0.567000 0.000000
v -0.940329 0.389497 0.000000
v -0.980677 0.195069 0.000000
v -0.972865 0.000000 0.000000
v -0.927666 -0.184524 0.000000
v -0.857290 -0.355101 0.000000
v -0.769239 -0.513989 0.000000
v -0.663598 -0.663598 0.000000
v -0.535222 -0.801017 0.000000
v -0.379423 -0.916008 0.000000
v -0.197687 -0.993840 0.000000
v -0.000000 -1.021508 0.000000
v 0.197687 -0.993840 0.000000
v 0.379423 -0.916008 0.000000
v 0.535222 -0.801017 0.000000
v 0.663598 -0.663598 0.000000
v 0.769239 -0.513989 0.000000
v 0.857290 -0.355101 0.000000
v 0.927666 -0.184524 0.000000
v 0.968018 0.000000 0.071429
v 0.975791 0.194097 0.071429
v 0.935645 0.387557 0.071429
v 0.844348 0.564175 0.071429
v 0.708693 0.708693 0.071429
v 0.543048 0.812729 0.071429
v 0.363356 0.877220 0.071429
v 0.181000 0.909947 0.071429
v 0.000000 0.919617 0.071429
v -0.181000 0.909947 0.071429
v -0.363356 0.877220 0.071429
v -0.543048 0.812729 0.071429
v -0.708693 0.708693 0.071429
v -0.844348 0.564175 0.071429
v -0.935645 0.387557 0.071429
v -0.975791 0.194097 0.071429
v -0.968018 0.000000 0.071429
v -0.923044 -0.183605 0.071429
v -0.853019 -0.353332 0.071429
v -0.765407 -0.511429 0.071429
v -0.660292 -0.660292 0.071429
v -0.532556 -0.797026 0.071429
v -0.377533 -0.911444 0.071429
v -0.196702 -0.988888 0.071429
v -0.000000 -1.016419 0.071429
v 0.196702 -0.988888 0.071429
v 0.377533 -0.911444 0.071429
v 0.532556 -0.797026 0.071429
v 0.660292 -0.660292 0.071429
v 0.765407 -0.511429 0.071429
v 0.853019 -0.353332 0.071429
v 0.923044 -0.183605 0.071429
v 0.936616 0.000000 0.142857
v 0.944137 0.187801 0.142857
v 0.905293 0.374985 0.142857
v 0.816958 0.545874 0.142857
v 0.685703 0.685703 0.142857
v 0.525432 0.786365 0.142857
v 0.351569 0.848764 0.142857
v 0.175128 0.880429 0.142857
v 0.000000 0.889786 0.142857
v -0.175128 0.880429 0.142857
v -0.351569 0.848764 0.142857
v -0.525432 0.786365 0.142857
v -0.685703 0.685703 0.142857
v -0.816958 0.545874 0.142857
v -0.905293 0.374985 0.142857
v -0.944137 0.187801 0.142857
v -0.936616 0.000000 0.142857
v -0.893102 -0.177649 0.142857
v -0.825348 -0.341870 0.142857
v -0.740578 -0.494838 0.142857
v -0.638872 -0.638872 0.142857
v -0.515280 -0.771172 0.142857
v -0.365286 -0.881878 0.142857
v -0.190321 -0.956810 0.142857
v -0.000000 -0.983447 0.142857
v 0.190321 -0.956810 0.142857
v 0.365286 -0.881878 0.142857
v 0.515280 -0.771172 0.142857
v 0.638872 -0.638872 0.142857
v 0.740578 -0.494838 0.142857
v 0.825348 -0.341870 0.142857
v 0.893102 -0.177649 0.142857
v 0.888937 0.000000 0.214286
v 0.896075 0.178240 0.214286
v 0.859209 0.355896 0.214286
v 0.775370 0.518086 0.214286
v 0.650797 0.650797 0.214286
v 0.498684 0.746334 0.214286
v 0.333672 0.805557 0.214286
v 0.166213 0.835610 0.214286
v 0.000000 0.844490 0.214286
v -0.166213 0.835610 0.214286
v -0.333672 0.805557 0.214286
v -0.498684 0.746334 0.214286
v -0.650797 0.650797 0.214286
v -0.775370 0.518086 0.214286
v -0.859209 0.355896 0.214286
v -0.896075 0.178240 0.214286
v -0.888937 0.000000 0.214286
v -0.847638 -0.168606 0.214286
v -0.783333 -0.324467 0.214286
v -0.702878 -0.469648 0.214286
v -0.606350 -0.606350 0.214286
v -0.489050 -0.731914 0.214286
v -0.346691 -0.836985 0.214286
v -0.180633 -0.908103 0.214286
v -0.000000 -0.933384 0.214286
v 0.180633 -0.908103 0.214286
v 0.346691 -0.836985 0.214286
v 0.489050 -0.731914 0.214286
v 0.606350 -0.606350 0.214286
v 0.702878 -0.469648 0.214286
v 0.783333 -0.324467 0.214286
v 0.847638 -0.168606 0.214286
v 0.860884 0.000000 0.285714
v 0.867797 0.172616 0.285714
v 0.832094 0.344664 0.285714
v 0.750901 0.501736 0.285714
v 0.630259 0.630259 0.285714
v 0.482947 0.722781 0.285714
v 0.323142 0.780135 0.285714
v 0.160968 0.809240 0.285714
v 0.000000 0.817840 0.285714
v -0.160968 0.809240 0.285714
v -0.323142 0.780135 0.285714
v -0.482947 0.722781 0.285714
v -0.630259 0.630259 0.285714
v -0.750901 0.501736 0.285714
v -0.832094 0.344664 0.285714
v -0.867797 0.172616 0.285714
v -0.860884 0.000000 0.285714
v -0.820888 -0.163285 0.285714
v -0.758612 -0.314228 0.285714
v -0.680697 -0.454827 0.285714
v -0.587215 -0.587215 0.285714
v -0.473616 -0.708817 0.285714
v -0.335750 -0.810571 0.285714
v -0.174932 -0.879444 0.285714
v -0.000000 -0.903928 0.285714
v 0.174932 -0.879444 0.285714
v 0.335750 -0.810571 0.285714
v 0.473616 -0.708817 0.285714
v 0.587215 -0.587215 0.285714
v 0.680697 -0.454827 0.285714
v 0.758612 -0.314228 0.285714
v 0.820888 -0.163285 0.285714
v 0.837776 0.000000 0.357143
v 0.844504 0.167982 0.357143
v 0.809759 0.335413 0.357143
v 0.730746 0.488269 0.357143
v 0.613342 0.613342 0.357143
v 0.469984 0.703381 0.357143
v 0.314469 0.759195 0.357143
v 0.156647 0.787519 0.357143
v 0.000000 0.795888 0.357143
v -0.156647 0.787519 0.357143
v -0.314469 0.759195 0.357143
v -0.469984 0.703381 0.357143
v -0.613342 0.613342 0.357143
v -0.730746 0.488269 0.357143
v -0.809759 0.335413 0.357143
v -0.844504 0.167982 0.357143
v -0.837776 0.000000 0.357143
v -0.798854 -0.158902 0.357143
v -0.738250 -0.305793 0.357143
v -0.662426 -0.442619 0.357143
v -0.571453 -0.571453 0.357143
v -0.460903 -0.689791 0.357143
v -0.326738 -0.788814 0.357143
v -0.170237 -0.855839 0.357143
v -0.000000 -0.879665 0.357143
v 0.170237 -0.855839 0.357143
v 0.326738 -0.788814 0.357143
v 0.460903 -0.689791 0.357143
v 0.571453 -0.571453 0.357143
v 0.662426 -0.442619 0.357143
v 0.738250 -0.305793 0.357143
v 0.798854 -0.158902 0.357143
v 0.765962 0.000000 0.428571
v 0.772113 0.153583 0.428571
v 0.740346 0.306661 0.428571
v 0.668106 0.446414 0.428571
v 0.560766 0.560766 0.428571
v 0.429697 0.643087 0.428571
v 0.287512 0.694116 0.428571
v 0.143219 0.720013 0.428571
v 0.000000 0.727664 0.428571
v -0.143219 0.720013 0.428571
v -0.287512 0.694116 0.428571
v -0.429697 0.643087 0.428571
v -0.560766 0.560766 0.428571
v -0.668106 0.446414 0.428571
v -0.740346 0.306661 0.428571
v -0.772113 0.153583 0.428571
v -0.765962 0.000000 0.428571
v -0.730376 -0.145281 0.428571
v -0.674967 -0.279581 0.428571
v -0.605642 -0.404677 0.428571
v -0.522468 -0.522468 0.428571
v -0.421395 -0.630662 0.428571
v -0.298730 -0.721197 0.428571
v -0.155644 -0.782476 0.428571
v -0.000000 -0.804260 0.428571
v 0.155644 -0.782476 0.428571
v 0.298730 -0.721197 0.428571
v 0.421395 -0.630662 0.428571
v 0.522468 -0.522468 0.428571
v 0.605642 -0.404677 0.428571
v 0.674967 -0.279581 0.428571
v 0.730376 -0.145281 0.428571
v 0.697188 0.000000 0.500000
v 0.702787 0.139793 0.500000
v 0.673873 0.279127 0.500000
v 0.608119 0.406332 0.500000
v 0.510416 0.510416 0.500000
v 0.391115 0.585346 0.500000
v 0.261697 0.631793 0.500000
v 0.130360 0.655365 0.500000
v 0.000000 0.662329 0.500000
v -0.130360 0.655365 0.500000
v -0.261697 0.631793 0.500000
v -0.391115 0.585346 0.500000
v -0.510416 0.510416 0.500000
v -0.608119 0.406332 0.500000
v -0.673873 0.279127 0.500000
v -0.702787 0.139793 0.500000
v -0.697188 0.000000 0.500000
v -0.664797 -0.132236 0.500000
v -0.614364 -0.254478 0.500000
v -0.551263 -0.368342 0.500000
v -0.475557 -0.475557 0.500000
v -0.383559 -0.574036 0.500000
v -0.271908 -0.656443 0.500000
v -0.141669 -0.712220 0.500000
v -0.000000 -0.732048 0.500000
v 0.141669 -0.712220 0.500000
v 0.271908 -0.656443 0.500000
v 0.383559 -0.574036 0.500000
v 0.475557 -0.475557 0.500000
v 0.551263 -0.368342 0.500000
v 0.614364 -0.254478 0.500000
v 0.664797 -0.132236 0.500000
v 0.673827 0.000000 0.571429
v 0.679238 0.135109 0.571429
v 0.651293 0.269774 0.571429
v 0.587742 0.392717 0.571429
v 0.493313 0.493313 0.571429
v 0.378010 0.565732 0.571429
v 0.252929 0.610623 0.571429
v 0.125992 0.633405 0.571429
v 0.000000 0.640136 0.571429
v -0.125992 0.633405 0.571429
v -0.252929 0.610623 0.571429
v -0.378010 0.565732 0.571429
v -0.493313 0.493313 0.571429
v -0.587742 0.392717 0.571429
v -0.651293 0.269774 0.571429
v -0.679238 0.135109 0.571429
v -0.673827 0.000000 0.571429
v -0.642522 -0.127805 0.571429
v -0.593778 -0.245951 0.571429
v -0.532792 -0.356000 0.571429
v -0.459622 -0.459622 0.571429
v -0.370707 -0.554802 0.571429
v -0.262796 -0.634447 0.571429
v -0.136922 -0.688355 0.571429
v -0.000000 -0.707519 0.571429
v 0.136922 -0.688355 0.571429
v 0.262796 -0.634447 0.571429
v 0.370707 -0.554802 0.571429
v 0.459622 -0.459622 0.571429
v 0.532792 -0.356000 0.571429
v 0.593778 -0.245951 0.571429
v 0.642522 -0.127805 0.571429
v 0.582316 0.000000 0.642857
v 0.586992 0.116760 0.642857
v 0.562842 0.233137 0.642857
v 0.507922 0.339383 0.642857
v 0.426318 0.426318 0.642857
v 0.326673 0.488901 0.642857
v 0.218579 0.527696 0.642857
v 0.108881 0.547383 0.642857
v 0.000000 0.553200 0.642857
v -0.108881 0.547383 0.642857
v -0.218579 0.527696 0.642857
v -0.326673 0.488901 0.642857
v -0.426318 0.426318 0.642857
v -0.507922 0.339383 0.642857
v -0.562842 0.233137 0.642857
v -0.586992 0.116760 0.642857
v -0.582316 0.000000 0.642857
v -0.555262 -0.110448 0.642857
v -0.513138 -0.212549 0.642857
v -0.460434 -0.307652 0.642857
v -0.397202 -0.397202 0.642857
v -0.320362 -0.479455 0.642857
v -0.227107 -0.548284 0.642857
v -0.118327 -0.594871 0.642857
v -0.000000 -0.611432 0.642857
v 0.118327 -0.594871 0.642857
v 0.227107 -0.548284 0.642857
v 0.320362 -0.479455 0.642857
v 0.397202 -0.397202 0.642857
v 0.460434 -0.307652 0.642857
v 0.513138 -0.212549 0.642857
v 0.555262 -0.110448 0.642857
v 0.476860 0.000000 0.714286
v 0.480690 0.095615 0.714286
v 0.460913 0.190916 0.714286
v 0.415939 0.277921 0.714286
v 0.349113 0.349113 0.714286
v 0.267514 0.400362 0.714286
v 0.178995 0.432132 0.714286
v 0.089163 0.448254 0.714286
v 0.000000 0.453017 0.714286
v -0.089163 0.448254 0.714286
v -0.178995 0.432132 0.714286
v -0.267514 0.400362 0.714286
v -0.349113 0.349113 0.714286
v -0.415939 0.277921 0.714286
v -0.460913 0.190916 0.714286
v -0.480690 0.095615 0.714286
v -0.476860 0.000000 0.714286
v -0.454706 -0.090447 0.714286
v -0.420210 -0.174057 0.714286
v -0.377051 -0.251937 0.714286
v -0.325270 -0.325270 0.714286
v -0.262345 -0.392627 0.714286
v -0.185978 -0.448991 0.714286
v -0.096898 -0.487141 0.714286
v -0.000000 -0.500703 0.714286
v 0.096898 -0.487141 0.714286
v 0.185978 -0.448991 0.714286
v 0.262345 -0.392627 0.714286
v 0.325270 -0.325270 0.714286
v 0.377051 -0.251937 0.714286
v 0.420210 -0.174057 0.714286
v 0.454706 -0.090447 0.714286
v 0.430636 0.000000 0.785714
v 0.434094 0.086347 0.785714
v 0.416234 0.172410 0.785714
v 0.375620 0.250981 0.785714
v 0.315271 0.315271 0.785714
v 0.241582 0.361553 0.785714
v 0.161644 0.390243 0.785714
v 0.080520 0.404802 0.785714
v 0.000000 0.409104 0.785714
v -0.080520 0.404802 0.785714
v -0.161644 0.390243 0.785714
v -0.241582 0.361553 0.785714
v -0.315271 0.315271 0.785714
v -0.375620 0.250981 0.785714
v -0.416234 0.172410 0.785714
v -0.434094 0.086347 0.785714
v -0.430636 0.000000 0.785714
v -0.410629 -0.081679 0.785714
v -0.379477 -0.157185 0.785714
v -0.340501 -0.227516 0.785714
v -0.293740 -0.293740 0.785714
v -0.236915 -0.354568 0.785714
v -0.167950 -0.405468 0.785714
v -0.087506 -0.439920 0.785714
v -0.000000 -0.452167 0.785714
v 0.087506 -0.439920 0.785714
v 0.167950 -0.405468 0.785714
v 0.236915 -0.354568 0.785714
v 0.293740 -0.293740 0.785714
v 0.340501 -0.227516 0.785714
v 0.379477 -0.157185 0.785714
v 0.410629 -0.081679 0.785714
v 0.281416 0.000000 0.857143
v 0.283676 0.056427 0.857143
v 0.272005 0.112668 0.857143
v 0.245464 0.164014 0.857143
v 0.206027 0.206027 0.857143
v 0.157872 0.236271 0.857143
v 0.105633 0.255020 0.857143
v 0.052619 0.264534 0.857143
v 0.000000 0.267345 0.857143
v -0.052619 0.264534 0.857143
v -0.105633 0.255020 0.857143
v -0.157872 0.236271 0.857143
v -0.206027 0.206027 0.857143
v -0.245464 0.164014 0.857143
v -0.272005 0.112668 0.857143
v -0.283676 0.056427 0.857143
v -0.281416 0.000000 0.857143
v -0.268342 -0.053376 0.857143
v -0.247984 -0.102719 0.857143
v -0.222514 -0.148679 0.857143
v -0.191956 -0.191956 0.857143
v -0.154821 -0.231707 0.857143
v -0.109754 -0.264969 0.857143
v -0.057184 -0.287483 0.857143
v -0.000000 -0.295487 0.857143
v 0.057184 -0.287483 0.857143
v 0.109754 -0.264969 0.857143
v 0.154821 -0.231707 0.857143
v 0.191956 -0.191956 0.857143
v 0.222514 -0.148679 0.857143
v 0.247984 -0.102719 0.857143
v 0.268342 -0.053376 0.857143
v 0.206114 0.000000 0.928571
v 0.207769 0.041328 0.928571
v 0.199221 0.082520 0.928571
v 0.179782 0.120126 0.928571
v 0.150898 0.150898 0.928571
v 0.115628 0.173049 0.928571
v 0.077367 0.186781 0.928571
v 0.038539 0.193749 0.928571
v 0.000000 0.195808 0.928571
v -0.038539 0.193749 0.928571
v -0.077367 0.186781 0.928571
v -0.115628 0.173049 0.928571
v -0.150898 0.150898 0.928571
v -0.179782 0.120126 0.928571
v -0.199221 0.082520 0.928571
v -0.207769 0.041328 0.928571
v -0.206114 0.000000 0.928571
v -0.196538 -0.039094 0.928571
v -0.181628 -0.075233 0.928571
v -0.162973 -0.108895 0.928571
v -0.140592 -0.140592 0.928571
v -0.113394 -0.169706 0.928571
v -0.080386 -0.194068 0.928571
v -0.041883 -0.210558 0.928571
v -0.000000 -0.216420 0.928571
v 0.041883 -0.210558 0.928571
v 0.080386 -0.194068 0.928571
v 0.113394 -0.169706 0.928571
v 0.140592 -0.140592 0.928571
v 0.162973 -0.108895 0.928571
v 0.181628 -0.075233 0.928571
v 0.196538 -0.039094 0.928571
v 0.060000 0.000000 1.000000
v 0.060482 0.012031 1.000000
v 0.057993 0.024022 1.000000
v 0.052335 0.034969 1.000000
v 0.043926 0.043926 1.000000
v 0.033659 0.050375 1.000000
v 0.022522 0.054372 1.000000
v 0.011219 0.056401 1.000000
v 0.000000 0.057000 1.000000
v -0.011219 0.056401 1.000000
v -0.022522 0.054372 1.000000
v -0.033659 0.050375 1.000000
v -0.043926 0.043926 1.000000
v -0.052335 0.034969 1.000000
v -0.057993 0.024022 1.000000
v -0.060482 0.012031 1.000000
v -0.060000 0.000000 1.000000
v -0.057212 -0.011380 1.000000
v -0.052872 -0.021900 1.000000
v -0.047442 -0.031700 1.000000
v -0.040926 -0.040926 1.000000
v -0.033009 -0.049402 1.000000
v -0.023400 -0.056493 1.000000
v -0.012192 -0.061294 1.000000
v -0.000000 -0.063000 1.000000
v 0.012192 -0.061294 1.000000
v 0.023400 -0.056493 1.000000
v 0.033009 -0.049402 1.000000
v 0.040926 -0.040926 1.000000
v 0.047442 -0.031700 1.000000
v 0.052872 -0.021900 1.000000
v 0.057212 -0.011380 1.000000
v 0.050000 0.000000 0.940000
v 0.035355 0.035355 0.940000
v 0.000000 0.050000 0.940000
v -0.035355 0.035355 0.940000
v -0.050000 0.000000 0.940000
v -0.035355 -0.035355 0.940000
v -0.000000 -0.050000 0.940000
v 0.035355 -0.035355 0.940000
v 0.030000 0.000000 1.290000
v 0.021213 0.021213 1.290000
v 0.000000 0.030000 1.290000
v -0.021213 0.021213 1.290000
v -0.030000 0.000000 1.290000
v -0.021213 -0.021213 1.290000
v -0.000000 -0.030000 1.290000
v 0.021213 -0.021213 1.290000
vt 0.000000 0.000000
vt 0.031250 0.000000
vt 0.062500 0.000000
vt 0.093750 0.000000
vt 0.125000 0.000000
vt 0.156250 0.000000
vt 0.187500 0.000000
vt 0.218750 0.000000
vt 0.250000 0.000000
vt 0.281250 0.000000
vt 0.312500 0.000000
vt 0.343750 0.000000
vt 0.375000 0.000000
vt 0.406250 0.000000
vt 0.437500 0.000000
vt 0.468750 0.000000
vt 0.500000 0.000000
vt 0.531250 0.000000
vt 0.562500 0.000000
vt 0.593750 0.000000
vt 0.625000 0.000000
vt 0.656250 0.000000
vt 0.687500 0.000000
vt 0.718750 0.000000
vt 0.750000 0.000000
vt 0.781250 0.000000
vt 0.812500 0.000000
vt 0.843750 0.000000
vt 0.875000 0.000000
vt 0.906250 0.000000
vt 0.937500 0.000000
vt 0.968750 0.000000
vt 0.000000 0.035714
vt 0.031250 0.035714
vt 0.062500 0.035714
vt 0.093750 0.035714
vt 0.125000 0.035714
vt 0.156250 0.035714
vt 0.187500 0.035714
vt 0.218750 0.035714
vt 0.250000 0.035714
vt 0.281250 0.035714
vt 0.312500 0.035714
vt 0.343750 0.035714
vt 0.375000 0.035714
vt 0.406250 0.035714
vt 0.437500 0.035714
vt 0.468750 0.035714
vt 0.500000 0.035714
vt 0.531250 0.035714
vt 0.562500 0.035714
vt 0.593750 0.035714
vt 0.625000 0.035714
vt 0.656250 0.035714
vt 0.687500 0.035714
vt 0.718750 0.035714
vt 0.750000 0.035714
vt 0.781250 0.035714
vt 0.812500 0.035714
vt 0.843750 0.035714
vt 0.875000 0.035714
vt 0.906250 0.035714
vt 0.937500 0.035714
vt 0.968750 0.035714
vt 0.000000 0.071429
vt 0.031250 0.071429
vt 0.062500 0.071429
vt 0.093750 0.071429
vt 0.125000 0.071429
vt 0.156250 0.071429
vt 0.187500 0.071429
vt 0.218750 0.071429
vt 0.250000 0.071429
vt 0.281250 0.071429
vt 0.312500 0.071429
vt 0.343750 0.071429
vt 0.375000 0.071429
vt 0.406250 0.071429
vt 0.437500 0.071429
vt 0.468750 0.071429
vt 0.500000 0.071429
vt 0.531250 0.071429
vt 0.562500 0.071429
vt 0.593750 0.071429
vt 0.625000 0.071429
vt 0.656250 0.071429
vt 0.687500 0.071429
vt 0.718750 0.071429
vt 0.750000 0.071429
vt 0.781250 0.071429
vt 0.812500 0.071429
vt 0.843750 0.071429
vt 0.875000 0.071429
vt 0.906250 0.071429
vt 0.937500 0.071429
vt 0.968750 0.071429
vt 0.000000 0.107143
vt 0.031250 0.107143
vt 0.062500 0.107143
vt 0.093750 0.107143
vt 0.125000 0.107143
vt 0.156250 0.107143
vt 0.187500 0.107143
vt 0.218750 0.107143
vt 0.250000 0.107143
vt 0.281250 0.107143
vt 0.312500 0.107143
vt 0.343750 0.107143
vt 0.375000 0.107143
vt 0.406250 0.107143
vt 0.437500 0.107143
vt 0.468750 0.107143
vt 0.500000 0.107143
vt 0.531250 0.107143
vt 0.562500 0.107143
vt 0.593750 0.107143
vt 0.625000 0.107143
vt 0.656250 0.107143
vt 0.687500 0.107143
vt 0.718750 0.107143
vt 0.750000 0.107143
vt 0.781250 0.107143
vt 0.812500 0.107143
vt 0.843750 0.107143
vt 0.875000 0.107143
vt 0.906250 0.107143
vt 0.937500 0.107143
vt 0.968750 0.107143
vt 0.000000 0.142857
vt 0.031250 0.142857
vt 0.062500 0.142857
vt 0.093750 0.142857
vt 0.125000 0.142857
vt 0.156250 0.142857
vt 0.187500 0.142857
vt 0.218750 0.142857
vt 0.250000 0.142857
vt 0.281250 0.142857
vt 0.312500 0.142857
vt 0.343750 0.142857
vt 0.375000 0.142857
vt 0.406250 0.142857
vt 0.437500 0.142857
vt 0.468750 0.142857
vt 0.500000 0.142857
vt 0.531250 0.142857
vt 0.562500 0.142857
vt 0.593750 0.142857
vt 0.625000 0.142857
vt 0.656250 0.142857
vt 0.687500 0.142857
vt 0.718750 0.142857
vt 0.750000 0.142857
vt 0.781250 0.142857
vt 0.812500 0.142857
vt 0.843750 0.142857
vt 0.875000 0.142857
vt 0.906250 0.142857
vt 0.937500 0.142857
vt 0.968750 0.142857
vt 0.000000 0.178571
vt 0.031250 0.178571
vt 0.062500 0.178571
vt 0.093750 0.178571
vt 0.125000 0.178571
vt 0.156250 0.178571
vt 0.187500 0.178571
vt 0.218750 0.178571
vt 0.250000 0.178571
vt 0.281250 0.178571
vt 0.312500 0.178571
vt 0.343750 0.178571
vt 0.375000 0.178571
vt 0.406250 0.178571
vt 0.437500 0.178571
vt 0.468750 0.178571
vt 0.500000 0.178571
vt 0.531250 0.178571
vt 0.562500 0.178571
vt 0.593750 0.178571
vt 0.625000 0.178571
vt 0.656250 0.178571
vt 0.687500 0.178571
vt 0.718750 0.178571
vt 0.750000 0.178571
vt 0.781250 0.178571
vt 0.812500 0.178571
vt 0.843750 0.178571
vt 0.875000 0.178571
vt 0.906250 0.178571
vt 0.937500 0.178571
vt 0.968750 0.178571
vt 0.000000 0.214286
vt 0.031250 0.214286
vt 0.062500 0.214286
vt 0.093750 0.214286
vt 0.125000 0.214286
vt 0.156250 0.214286
vt 0.187500 0.214286
vt 0.218750 0.214286
vt 0.250000 0.214286
vt 0.281250 0.214286
vt 0.312500 0.214286
vt 0.343750 0.214286
vt 0.375000 0.214286
vt 0.406250 0.214286
vt 0.437500 0.214286
vt 0.468750 0.214286
vt 0.500000 0.214286
vt 0.531250 0.214286
vt 0.562500 0.214286
vt 0.593750 0.214286
vt 0.625000 0.214286
vt 0.656250 0.214286
vt 0.687500 0.214286
vt 0.718750 0.214286
vt 0.750000 0.214286
vt 0.781250 0.214286
vt 0.812500 0.214286
vt 0.843750 0.214286
vt 0.875000 0.214286
vt 0.906250 0.214286
vt 0.937500 0.214286
vt 0.968750 0.214286
vt 0.000000 0.250000
vt 0.031250 0.250000
vt 0.062500 0.250000
vt 0.093750 0.250000
vt 0.125000 0.250000
vt 0.156250 0.250000
vt 0.187500 0.250000
vt 0.218750 0.250000
vt 0.250000 0.250000
vt 0.281250 0.250000
vt 0.312500 0.250000
vt 0.343750 0.250000
vt 0.375000 0.250000
vt 0.406250 0.250000
vt 0.437500 0.250000
vt 0.468750 0.250000
vt 0.500000 0.250000
vt 0.531250 0.250000
vt 0.562500 0.250000
vt 0.593750 0.250000
vt 0.625000 0.250000
vt 0.656250 0.250000
vt 0.687500 0.250000
vt 0.718750 0.250000
vt 0.750000 0.250000
vt 0.781250 0.250000
vt 0.812500 0.250000
vt 0.843750 0.250000
vt 0.875000 0.250000
vt 0.906250 0.250000
vt 0.937500 0.250000
vt 0.968750 0.250000
vt 0.000000 0.285714
vt 0.031250 0.285714
vt 0.062500 0.285714
vt 0.093750 0.285714
vt 0.125000 0.285714
vt 0.156250 0.285714
vt 0.187500 0.285714
vt 0.218750 0.285714
vt 0.250000 0.285714
vt 0.281250 0.285714
vt 0.312500 0.285714
vt 0.343750 0.285714
vt 0.375000 0.285714
vt 0.406250 0.285714
vt 0.437500 0.285714
vt 0.468750 0.285714
vt 0.500000 0.285714
vt 0.531250 0.285714
vt 0.562500 0.285714
vt 0.593750 0.285714
vt 0.625000 0.285714
vt 0.656250 0.285714
vt 0.687500 0.285714
vt 0.718750 0.285714
vt 0.750000 0.285714
vt 0.781250 0.285714
vt 0.812500 0.285714
vt 0.843750 0.285714
vt 0.875000 0.285714
vt 0.906250 0.285714
vt 0.937500 0.285714
vt 0.968750 0.285714
vt 0.000000 0.321429
vt 0.031250 0.321429
vt 0.062500 0.321429
vt 0.093750 0.321429
vt 0.125000 0.321429
vt 0.156250 0.321429
vt 0.187500 0.321429
vt 0.218750 0.321429
vt 0.250000 0.321429
vt 0.281250 0.321429
vt 0.312500 0.321429
vt 0.343750 0.321429
vt 0.375000 0.321429
vt 0.406250 0.321429
vt 0.437500 0.321429
vt 0.468750 0.321429
vt 0.500000 0.321429
vt 0.531250 0.321429
vt 0.562500 0.321429
vt 0.593750 0.321429
vt 0.625000 0.321429
vt 0.656250 0.321429
vt 0.687500 0.321429
vt 0.718750 0.321429
vt 0.750000 0.321429
vt 0.781250 0.321429
vt 0.812500 0.321429
vt 0.843750 0.321429
vt 0.875000 0.321429
vt 0.906250 0.321429
vt 0.937500 0.321429
vt 0.968750 0.321429
vt 0.000000 0.357143
vt 0.031250 0.357143
vt 0.062500 0.357143
vt 0.093750 0.357143
vt 0.125000 0.357143
vt 0.156250 0.357143
vt 0.187500 0.357143
vt 0.218750 0.357143
vt 0.250000 0.357143
vt 0.281250 0.357143
vt 0.312500 0.357143
vt 0.343750 0.357143
vt 0.375000 0.357143
vt 0.406250 0.357143
vt 0.437500 0.357143
vt 0.468750 0.357143
vt 0.500000 0.357143
vt 0.531250 0.357143
vt 0.562500 0.357143
vt 0.593750 0.357143
vt 0.625000 0.357143
vt 0.656250 0.357143
vt 0.687500 0.357143
vt 0.718750 0.357143
vt 0.750000 0.357143
vt 0.781250 0.357143
vt 0.812500 0.357143
vt 0.843750 0.357143
vt 0.875000 0.357143
vt 0.906250 0.357143
vt 0.937500 0.357143
vt 0.968750 0.357143
vt 0.000000 0.392857
vt 0.031250 0.392857
vt 0.062500 0.392857
vt 0.093750 0.392857
vt 0.125000 0.392857
vt 0.156250 0.392857
vt 0.187500 0.392857
vt 0.218750 0.392857
vt 0.250000 0.392857
vt 0.281250 0.392857
vt 0.312500 0.392857
vt 0.343750 0.392857
vt 0.375000 0.392857
vt 0.406250 0.392857
vt 0.437500 0.392857
vt 0.468750 0.392857
vt 0.500000 0.392857
vt 0.531250 0.392857
vt 0.562500 0.392857
vt 0.593750 0.392857
vt 0.625000 0.392857
vt 0.656250 0.392857
vt 0.687500 0.392857
vt 0.718750 0.392857
vt 0.750000 0.392857
vt 0.781250 0.392857
vt 0.812500 0.392857
vt 0.843750 0.392857
vt 0.875000 0.392857
vt 0.906250 0.392857
vt 0.937500 0.392857
vt 0.968750 0.392857
vt 0.000000 0.428571
vt 0.031250 0.428571
vt 0.062500 0.428571
vt 0.093750 0.428571
vt 0.125000 0.428571
vt 0.156250 0.428571
vt 0.187500 0.428571
vt 0.218750 0.428571
vt 0.250000 0.428571
vt 0.281250 0.428571
vt 0.312500 0.428571
vt 0.343750 0.428571
vt 0.375000 0.428571
vt 0.406250 0.428571
vt 0.437500 0.428571
vt 0.468750 0.428571
vt 0.500000 0.428571
vt 0.531250 0.428571
vt 0.562500 0.428571
vt 0.593750 0.428571
vt 0.625000 0.428571
vt 0.656250 0.428571
vt 0.687500 0.428571
vt 0.718750 0.428571
vt 0.750000 0.428571
vt 0.781250 0.428571
vt 0.812500 0.428571
vt 0.843750 0.428571
vt 0.875000 0.428571
vt 0.906250 0.428571
vt 0.937500 0.428571
vt 0.968750 0.428571
vt 0.000000 0.464286
vt 0.031250 0.464286
vt 0.062500 0.464286
vt 0.093750 0.464286
vt 0.125000 0.464286
vt 0.156250 0.464286
vt 0.187500 0.464286
vt 0.218750 0.464286
vt 0.250000 0.464286
vt 0.281250 0.464286
vt 0.312500 0.464286
vt 0.343750 0.464286
vt 0.375000 0.464286
vt 0.406250 0.464286
vt 0.437500 0.464286
vt 0.468750 0.464286
vt 0.500000 0.464286
vt 0.531250 0.464286
vt 0.562500 0.464286
vt 0.593750 0.464286
vt 0.625000 0.464286
vt 0.656250 0.464286
vt 0.687500 0.464286
vt 0.718750 0.464286
vt 0.750000 0.464286
vt 0.781250 0.464286
vt 0.812500 0.464286
vt 0.843750 0.464286
vt 0.875000 0.464286
vt 0.906250 0.464286
vt 0.937500 0.464286
vt 0.968750 0.464286
vt 0.000000 0.500000
vt 0.031250 0.500000
vt 0.062500 0.500000
vt 0.093750 0.500000
vt 0.125000 0.500000
vt 0.156250 0.500000
vt 0.187500 0.500000
vt 0.218750 0.500000
vt 0.250000 0.500000
vt 0.281250 0.500000
vt 0.312500 0.500000
vt 0.343750 0.500000
vt 0.375000 0.500000
vt 0.406250 0.500000
vt 0.437500 0.500000
vt 0.468750 0.500000
vt 0.500000 0.500000
vt 0.531250 0.500000
vt 0.562500 0.500000
vt 0.593750 0.500000
vt 0.625000 0.500000
vt 0.656250 0.500000
vt 0.687500 0.500000
vt 0.718750 0.500000
vt 0.750000 0.500000
vt 0.781250 0.500000
vt 0.812500 0.500000
vt 0.843750 0.500000
vt 0.875000 0.500000
vt 0.906250 0.500000
vt 0.937500 0.500000
vt 0.968750 0.500000
vt 0.000000 0.535714
vt 0.031250 0.535714
vt 0.062500 0.535714
vt 0.093750 0.535714
vt 0.125000 0.535714
vt 0.156250 0.535714
vt 0.187500 0.535714
vt 0.218750 0.535714
vt 0.250000 0.535714
vt 0.281250 0.535714
vt 0.312500 0.535714
vt 0.343750 0.535714
vt 0.375000 0.535714
vt 0.406250 0.535714
vt 0.437500 0.535714
vt 0.468750 0.535714
vt 0.500000 0.535714
vt 0.531250 0.535714
vt 0.562500 0.535714
vt 0.593750 0.535714
vt 0.625000 0.535714
vt 0.656250 0.535714
vt 0.687500 0.535714
vt 0.718750 0.535714
vt 0.750000 0.535714
vt 0.781250 0.535714
vt 0.812500 0.535714
vt 0.843750 0.535714
vt 0.875000 0.535714
vt 0.906250 0.535714
vt 0.937500 0.535714
vt 0.968750 0.535714
vt 0.000000 0.571429
vt 0.031250 0.571429
vt 0.062500 0.571429
vt 0.093750 0.571429
vt 0.125000 0.571429
vt 0.156250 0.571429
vt 0.187500 0.571429
vt 0.218750 0.571429
vt 0.250000 0.571429
vt 0.281250 0.571429
vt 0.312500 0.571429
vt 0.343750 0.571429
vt 0.375000 0.571429
vt 0.406250 0.571429
vt 0.437500 0.571429
vt 0.468750 0.571429
vt 0.500000 0.571429
vt 0.531250 0.571429
vt 0.562500 0.571429
vt 0.593750 0.571429
vt 0.625000 0.571429
vt 0.656250 0.571429
vt 0.687500 0.571429
vt 0.718750 0.571429
vt 0.750000 0.571429
vt 0.781250 0.571429
vt 0.812500 0.571429
vt 0.843750 0.571429
vt 0.875000 0.571429
vt 0.906250 0.571429
vt 0.937500 0.571429
vt 0.968750 0.571429
vt 0.000000 0.607143
vt 0.031250 0.607143
vt 0.062500 0.607143
vt 0.093750 0.607143
vt 0.125000 0.607143
vt 0.156250 0.607143
vt 0.187500 0.607143
vt 0.218750 0.607143
vt 0.250000 0.607143
vt 0.281250 0.607143
vt 0.312500 0.607143
vt 0.343750 0.607143
vt 0.375000 0.607143
vt 0.406250 0.607143
vt 0.437500 0.607143
vt 0.468750 0.607143
vt 0.500000 0.607143
vt 0.531250 0.607143
vt 0.562500 0.607143
vt 0.593750 0.607143
vt 0.625000 0.607143
vt 0.656250 0.607143
vt 0.687500 0.607143
vt 0.718750 0.607143
vt 0.750000 0.607143
vt 0.781250 0.607143
vt 0.812500 0.607143
vt 0.843750 0.607143
vt 0.875000 0.607143
vt 0.906250 0.607143
vt 0.937500 0.607143
vt 0.968750 0.607143
vt 0.000000 0.642857
vt 0.031250 0.642857
vt 0.062500 0.642857
vt 0.093750 0.642857
vt 0.125000 0.642857
vt 0.156250 0.642857
vt 0.187500 0.642857
vt 0.218750 0.642857
vt 0.250000 0.642857
vt 0.281250 0.642857
vt 0.312500 0.642857
vt 0.343750 0.642857
vt 0.375000 0.642857
vt 0.406250 0.642857
vt 0.437500 0.642857
vt 0.468750 0.642857
vt 0.500000 0.642857
vt 0.531250 0.642857
vt 0.562500 0.642857
vt 0.593750 0.642857
vt 0.625000 0.642857
vt 0.656250 0.642857
vt 0.687500 0.642857
vt 0.718750 0.642857
vt 0.750000 0.642857
vt 0.781250 0.642857
vt 0.812500 0.642857
vt 0.843750 0.642857
vt 0.875000 0.642857
vt 0.906250 0.642857
vt 0.937500 0.642857
vt 0.968750 0.642857
vt 0.000000 0.678571
vt 0.031250 0.678571
vt 0.062500 0.678571
vt 0.093750 0.678571
vt 0.125000 0.678571
vt 0.156250 0.678571
vt 0.187500 0.678571
vt 0.218750 0.678571
vt 0.250000 0.678571
vt 0.281250 0.678571
vt 0.312500 0.678571
vt 0.343750 0.678571
vt 0.375000 0.678571
vt 0.406250 0.678571
vt 0.437500 0.678571
vt 0.468750 0.678571
vt 0.500000 0.678571
vt 0.531250 0.678571
vt 0.562500 0.678571
vt 0.593750 0.678571
vt 0.625000 0.678571
vt 0.656250 0.678571
vt 0.687500 0.678571
vt 0.718750 0.678571
vt 0.750000 0.678571
vt 0.781250 0.678571
vt 0.812500 0.678571
vt 0.843750 0.678571
vt 0.875000 0.678571
vt 0.906250 0.678571
vt 0.937500 0.678571
vt 0.968750 0.678571
vt 0.000000 0.714286
vt 0.031250 0.714286
vt 0.062500 0.714286
vt 0.093750 0.714286
vt 0.125000 0.714286
vt 0.156250 0.714286
vt 0.187500 0.714286
vt 0.218750 0.714286
vt 0.250000 0.714286
vt 0.281250 0.714286
vt 0.312500 0.714286
vt 0.343750 0.714286
vt 0.375000 0.714286
vt 0.406250 0.714286
vt 0.437500 0.714286
vt 0.468750 0.714286
vt 0.500000 0.714286
vt 0.531250 0.714286
vt 0.562500 0.714286
vt 0.593750 0.714286
vt 0.625000 0.714286
vt 0.656250 0.714286
vt 0.687500 0.714286
vt 0.718750 0.714286
vt 0.750000 0.714286
vt 0.781250 0.714286
vt 0.812500 0.714286
vt 0.843750 0.714286
vt 0.875000 0.714286
vt 0.906250 0.714286
vt 0.937500 0.714286
vt 0.968750 0.714286
vt 0.000000 0.750000
vt 0.031250 0.750000
vt 0.062500 0.750000
vt 0.093750 0.750000
vt 0.125000 0.750000
vt 0.156250 0.750000
vt 0.187500 0.750000
vt 0.218750 0.750000
vt 0.250000 0.750000
vt 0.281250 0.750000
vt 0.312500 0.750000
vt 0.343750 0.750000
vt 0.375000 0.750000
vt 0.406250 0.750000
vt 0.437500 0.750000
vt 0.468750 0.750000
vt 0.500000 0.750000
vt 0.531250 0.750000
vt 0.562500 0.750000
vt 0.593750 0.750000
vt 0.625000 0.750000
vt 0.656250 0.750000
vt 0.687500 0.750000
vt 0.718750 0.750000
vt 0.750000 0.750000
vt 0.781250 0.750000
vt 0.812500 0.750000
vt 0.843750 0.750000
vt 0.875000 0.750000
vt 0.906250 0.750000
vt 0.937500 0.750000
vt 0.968750 0.750000
vt 0.000000 0.785714
vt 0.031250 0.785714
vt 0.062500 0.785714
vt 0.093750 0.785714
vt 0.125000 0.785714
vt 0.156250 0.785714
vt 0.187500 0.785714
vt 0.218750 0.785714
vt 0.250000 0.785714
vt 0.281250 0.785714
vt 0.312500 0.785714
vt 0.343750 0.785714
vt 0.375000 0.785714
vt 0.406250 0.785714
vt 0.437500 0.785714
vt 0.468750 0.785714
vt 0.500000 0.785714
vt 0.531250 0.785714
vt 0.562500 0.785714
vt 0.593750 0.785714
vt 0.625000 0.785714
vt 0.656250 0.785714
vt 0.687500 0.785714
vt 0.718750 0.785714
vt 0.750000 0.785714
vt 0.781250 0.785714
vt 0.812500 0.785714
vt 0.843750 0.785714
vt 0.875000 0.785714
vt 0.906250 0.785714
vt 0.937500 0.785714
vt 0.968750 0.785714
vt 0.000000 0.821429
vt 0.031250 0.821429
vt 0.062500 0.821429
vt 0.093750 0.821429
vt 0.125000 0.821429
vt 0.156250 0.821429
vt 0.187500 0.821429
vt 0.218750 0.821429
vt 0.250000 0.821429
vt 0.281250 0.821429
vt 0.312500 0.821429
vt 0.343750 0.821429
vt 0.375000 0.821429
vt 0.406250 0.821429
vt 0.437500 0.821429
vt 0.468750 0.821429
vt 0.500000 0.821429
vt 0.531250 0.821429
vt 0.562500 0.821429
vt 0.593750 0.821429
vt 0.625000 0.821429
vt 0.656250 0.821429
vt 0.687500 0.821429
vt 0.718750 0.821429
vt 0.750000 0.821429
vt 0.781250 0.821429
vt 0.812500 0.821429
vt 0.843750 0.821429
vt 0.875000 0.821429
vt 0.906250 0.821429
vt 0.937500 0.821429
vt 0.968750 0.821429
vt 0.000000 0.857143
vt 0.031250 0.857143
vt 0.062500 0.857143
vt 0.093750 0.857143
vt 0.125000 0.857143
vt 0.156250 0.857143
vt 0.187500 0.857143
vt 0.218750 0.857143
vt 0.250000 0.857143
vt 0.281250 0.857143
vt 0.312500 0.857143
vt 0.343750 0.857143
vt 0.375000 0.857143
vt 0.406250 0.857143
vt 0.437500 0.857143
vt 0.468750 0.857143
vt 0.500000 0.857143
vt 0.531250 0.857143
vt 0.562500 0.857143
vt 0.593750 0.857143
vt 0.625000 0.857143
vt 0.656250 0.857143
vt 0.687500 0.857143
vt 0.718750 0.857143
vt 0.750000 0.857143
vt 0.781250 0.857143
vt 0.812500 0.857143
vt 0.843750 0.857143
vt 0.875000 0.857143
vt 0.906250 0.857143
vt 0.937500 0.857143
vt 0.968750 0.857143
vt 0.000000 0.892857
vt 0.031250 0.892857
vt 0.062500 0.892857
vt 0.093750 0.892857
vt 0.125000 0.892857
vt 0.156250 0.892857
vt 0.187500 0.892857
vt 0.218750 0.892857
vt 0.250000 0.892857
vt 0.281250 0.892857
vt 0.312500 0.892857
vt 0.343750 0.892857
vt 0.375000 0.892857
vt 0.406250 0.892857
vt 0.437500 0.892857
vt 0.468750 0.892857
vt 0.500000 0.892857
vt 0.531250 0.892857
vt 0.562500 0.892857
vt 0.593750 0.892857
vt 0.625000 0.892857
vt 0.656250 0.892857
vt 0.687500 0.892857
vt 0.718750 0.892857
vt 0.750000 0.892857
vt 0.781250 0.892857
vt 0.812500 0.892857
vt 0.843750 0.892857
vt 0.875000 0.892857
vt 0.906250 0.892857
vt 0.937500 0.892857
vt 0.968750 0.892857
vt 0.000000 0.928571
vt 0.031250 0.928571
vt 0.062500 0.928571
vt 0.093750 0.928571
vt 0.125000 0.928571
vt 0.156250 0.928571
vt 0.187500 0.928571
vt 0.218750 0.928571
vt 0.250000 0.928571
vt 0.281250 0.928571
vt 0.312500 0.928571
vt 0.343750 0.928571
vt 0.375000 0.928571
vt 0.406250 0.928571
vt 0.437500 0.928571
vt 0.468750 0.928571
vt 0.500000 0.928571
vt 0.531250 0.928571
vt 0.562500 0.928571
vt 0.593750 0.928571
vt 0.625000 0.928571
vt 0.656250 0.928571
vt 0.687500 0.928571
vt 0.718750 0.928571
vt 0.750000 0.928571
vt 0.781250 0.928571
vt 0.812500 0.928571
vt 0.843750 0.928571
vt 0.875000 0.928571
vt 0.906250 0.928571
vt 0.937500 0.928571
vt 0.968750 0.928571
vt 0.000000 0.964286
vt 0.031250 0.964286
vt 0.062500 0.964286
vt 0.093750 0.964286
vt 0.125000 0.964286
vt 0.156250 0.964286
vt 0.187500 0.964286
vt 0.218750 0.964286
vt 0.250000 0.964286
vt 0.281250 0.964286
vt 0.312500 0.964286
vt 0.343750 0.964286
vt 0.375000 0.964286
vt 0.406250 0.964286
vt 0.437500 0.964286
vt 0.468750 0.964286
vt 0.500000 0.964286
vt 0.531250 0.964286
vt 0.562500 0.964286
vt 0.593750 0.964286
vt 0.625000 0.964286
vt 0.656250 0.964286
vt 0.687500 0.964286
vt 0.718750 0.964286
vt 0.750000 0.964286
vt 0.781250 0.964286
vt 0.812500 0.964286
vt 0.843750 0.964286
vt 0.875000 0.964286
vt 0.906250 0.964286
vt 0.937500 0.964286
vt 0.968750 0.964286
vt 0.000000 1.000000
vt 0.031250 1.000000
vt 0.062500 1.000000
vt 0.093750 1.000000
vt 0.125000 1.000000
vt 0.156250 1.000000
vt 0.187500 1.000000
vt 0.218750 1.000000
vt 0.250000 1.000000
vt 0.281250 1.000000
vt 0.312500 1.000000
vt 0.343750 1.000000
vt 0.375000 1.000000
vt 0.406250 1.000000
vt 0.437500 1.000000
vt 0.468750 1.000000
vt 0.500000 1.000000
vt 0.531250 1.000000
vt 0.562500 1.000000
vt 0.593750 1.000000
vt 0.625000 1.000000
vt 0.656250 1.000000
vt 0.687500 1.000000
vt 0.718750 1.000000
vt 0.750000 1.000000
vt 0.781250 1.000000
vt 0.812500 1.000000
vt 0.843750 1.000000
vt 0.875000 1.000000
vt 0.906250 1.000000
vt 0.937500 1.000000
vt 0.968750 1.000000
vt 0.000000 0.000000
vt 0.125000 0.000000
vt 0.250000 0.000000
vt 0.375000 0.000000
vt 0.500000 0.000000
vt 0.625000 0.000000
vt 0.750000 0.000000
vt 0.875000 0.000000
vt 0.000000 1.000000
vt 0.125000 1.000000
vt 0.250000 1.000000
vt 0.375000 1.000000
vt 0.500000 1.000000
vt 0.625000 1.000000
vt 0.750000 1.000000
vt 0.875000 1.000000
f 1/1 2/2 34/34
f 1/1 34/34 33/33
f 2/2 3/3 35/35
f 2/2 35/35 34/34
f 3/3 4/4 36/36
f 3/3 36/36 35/35
f 4/4 5/5 37/37
f 4/4 37/37 36/36
f 5/5 6/6 38/38
f 5/5 38/38 37/37
f 6/6 7/7 39/39
f 6/6 39/39 38/38
f 7/7 8/8 40/40
f 7/7 40/40 39/39
f 8/8 9/9 41/41
f 8/8 41/41 40/40
f 9/9 10/10 42/42
f 9/9 42/42 41/41
f 10/10 11/11 43/43
f 10/10 43/43 42/42
f 11/11 12/12 44/44
f 11/11 44/44 43/43
f 12/12 13/13 45/45
f 12/12 45/45 44/44
f 13/13 14/14 46/46
f 13/13 46/46 45/45
f 14/14 15/15 47/47
f 14/14 47/47 46/46
f 15/15 16/16 48/48
f 15/15 48/48 47/47
f 16/16 17/17 49/49
f 16/16 49/49 48/48
f 17/17 18/18 50/50
f 17/17 50/50 49/49
f 18/18 19/19 51/51
f 18/18 51/51 50/50
f 19/19 20/20 52/52
f 19/19 52/52 51/51
f 20/20 21/21 53/53
f 20/20 53/53 52/52
f 21/21 22/22 54/54
f 21/21 54/54 53/53
f 22/22 23/23 55/55
f 22/22 55/55 54/54
f 23/23 24/24 56/56
f 23/23 56/56 55/55
f 24/24 25/25 57/57
f 24/24 57/57 56/56
f 25/25 26/26 58/58
f 25/25 58/58 57/57
f 26/26 27/27 59/59
f 26/26 59/59 58/58
f 27/27 28/28 60/60
f 27/27 60/60 59/59
f 28/28 29/29 61/61
f 28/28 61/61 60/60
f 29/29 30/30 62/62
f 29/29 62/62 61/61
f 30/30 31/31 63/63
f 30/30 63/63 62/62
f 31/31 32/32 64/64
f 31/31 64/64 63/63
f 32/32 1/1 33/33
f 32/32 33/33 64/64
f 33/33 34/34 66/66
f 33/33 66/66 65/65
f 34/34 35/35 67/67
f 34/34 67/67 66/66
f 35/35 36/36 68/68
f 35/35 68/68 67/67
f 36/36 37/37 69/69
f 36/36 69/69 68/68
f 37/37 38/38 70/70
f 37/37 70/70 69/69
f 38/38 39/39 71/71
f 38/38 71/71 70/70
f 39/39 40/40 72/72
f 39/39 72/72 71/71
f 40/40 41/41 73/73
f 40/40 73/73 72/72
f 41/41 42/42 74/74
f 41/41 74/74 73/73
f 42/42 43/43 75/75
f 42/42 75/75 74/74
f 43/43 44/44 76/76
f 43/43 76/76 75/75
f 44/44 45/45 77/77
f 44/44 77/77 76/76
f 45/45 46/46 78/78
f 45/45 78/78 77/77
f 46/46 47/47 79/79
f 46/46 79/79 78/78
f 47/47 48/48 80/80
f 47/47 80/80 79/79
f 48/48 49/49 81/81
f 48/48 81/81 80/80
f 49/49 50/50 82/82
f 49/49 82/82 81/81
f 50/50 51/51 83/83
f 50/50 83/83 82/82
f 51/51 52/52 84/84
f 51/51 84/84 83/83
f 52/52 53/53 85/85
f 52/52 85/85 84/84
f 53/53 54/54 86/86
f 53/53 86/86 85/85
f 54/54 55/55 87/87
f 54/54 87/87 86/86
f 55/55 56/56 88/88
f 55/55 88/88 87/87
f 56/56 57/57 89/89
f 56/56 89/89 88/88
f 57/57 58/58 90/90
f 57/57 90/90 89/89
f 58/58 59/59 91/91
f 58/58 91/91 90/90
f 59/59 60/60 92/92
f 59/59 92/92 91/91
f 60/60 61/61 93/93
f 60/60 93/93 92/92
f 61/61 62/62 94/94
f 61/61 94/94 93/93
f 62/62 63/63 95/95
f 62/62 95/95 94/94
f 63/63 64/64 96/96
f 63/63 96/96 95/95
f 64/64 33/33 65/65
f 64/64 65/65 96/96
f 65/65 66/66 98/98
f 65/65 98/98 97/97
f 66/66 67/67 99/99
f 66/66 99/99 98/98
f 67/67 68/68 100/100
f 67/67 100/100 99/99
f 68/68 69/69 101/101
f 68/68 101/101 100/100
f 69/69 70/70 102/102
f 69/69 102/102 101/101
f 70/70 71/71 103/103
f 70/70 103/103 102/102
f 71/71 72/72 104/104
f 71/71 104/104 103/103
f 72/72 73/73 105/105
f 72/72 105/105 104/104
f 73/73 74/74 106/106
f 73/73 106/106 105/105
f 74/74 75/75 107/107
f 74/74 107/107 106/106
f 75/75 76/76 108/108
f 75/75 108/108 107/107
f 76/76 77/77 109/109
f 76/76 109/109 108/108
f 77/77 78/78 110/110
f 77/77 110/110 109/109
f 78/78 79/79 111/111
f 78/78 111/111 110/110
f 79/79 80/80 112/112
f 79/79 112/112 111/111
f 80/80 81/81 113/113
f 80/80 113/113 112/112
f 81/81 82/82 114/114
f 81/81 114/114 113/113
f 82/82 83/83 115/115
f 82/82 115/115 114/114
f 83/83 84/84 116/116
f 83/83 116/116 115/115
f 84/84 85/85 117/117
f 84/84 117/117 116/116
f 85/85 86/86 118/118
f 85/85 118/118 117/117
f 86/86 87/87 119/119
f 86/86 119/119 118/118
f 87/87 88/88 120/120
f 87/87 120/120 119/119
f 88/88 89/89 121/121
f 88/88 121/121 120/120
f 89/89 90/90 122/122
f 89/89 122/122 121/121
f 90/90 91/91 123/123
f 90/90 123/123 122/122
f 91/91 92/92 124/124
f 91/91 124/124 123/123
f 92/92 93/93 125/125
f 92/92 125/125 124/124
f 93/93 94/94 126/126
f 93/93 126/126 125/125
f 94/94 95/95 127/127
f 94/94 127/127 126/126
f 95/95 96/96 128/128
f 95/95 128/128 127/127
f 96/96 65/65 97/97
f 96/96 97/97 128/128
f 97/97 98/98 130/130
f 97/97 130/130 129/129
f 98/98 99/99 131/131
f 98/98 131/131 130/130
f 99/99 100/100 132/132
f 99/99 132/132 131/131
f 100/100 101/101 133/133
f 100/100 133/133 132/132
f 101/101 102/102 134/134
f 101/101 134/134 133/133
f 102/102 103/103 135/135
f 102/102 135/135 134/134
f 103/103 104/104 136/136
f 103/103 136/136 135/135
f 104/104 105/105 137/137
f 104/104 137/137 136/136
f 105/105 106/106 138/138
f 105/105 138/138 137/137
f 106/106 107/107 139/139
f 106/106 139/139 138/138
f 107/107 108/108 140/140
f 107/107 140/140 139/139
f 108/108 109/109 141/141
f 108/108 141/141 140/140
f 109/109 110/110 142/142
f 109/109 142/142 141/141
f 110/110 111/111 143/143
f 110/110 143/143 142/142
f 111/111 112/112 144/144
f 111/111 144/144 143/143
f 112/112 113/113 145/145
f 112/112 145/145 144/144
f 113/113 114/114 146/146
f 113/113 146/146 145/145
f 114/114 115/115 147/147
f 114/114 147/147 146/146
f 115/115 116/116 148/148
f 115/115 148/148 147/147
f 116/116 117/117 149/149
f 116/116 149/149 148/148
f 117/117 118/118 150/150
f 117/117 150/150 149/149
f 118/118 119/119 151/151
f 118/118 151/151 150/150
f 119/119 120/120 152/152
f 119/119 152/152 151/151
f 120/120 121/121 153/153
f 120/120 153/153 152/152
f 121/121 122/122 154/154
f 121/121 154/154 153/153
f 122/122 123/123 155/155
f 122/122 155/155 154/154
f 123/123 124/124 156/156
f 123/123 156/156 155/155
f 124/124 125/125 157/157
f 124/124 157/157 156/156
f 125/125 126/126 158/158
f 125/125 158/158 157/157
f 126/126 127/127 159/159
f 126/126 159/159 158/158
f 127/127 128/128 160/160
f 127/127 160/160 159/159
f 128/128 97/97 129/129
f 128/128 129/129 160/160
f 129/129 130/130 162/162
f 129/129 162/162 161/161
f 130/130 131/131 163/163
f 130/130 163/163 162/162
f 131/131 132/132 164/164
f 131/131 164/164 163/163
f 132/132 133/133 165/165
f 132/132 165/165 164/164
f 133/133 134/134 166/166
f 133/133 166/166 165/165
f 134/134 135/135 167/167
f 134/134 167/167 166/166
f 135/135 136/136 168/168
f 135/135 168/168 167/167
f 136/136 137/137 169/169
f 136/136 169/169 168/168
f 137/137 138/138 170/170
f 137/137 170/170 169/169
f 138/138 139/139 171/171
f 138/138 171/171 170/170
f 139/139 140/140 172/172
f 139/139 172/172 171/171
f 140/140 141/141 173/173
f 140/140 173/173 172/172
f 141/141 142/142 174/174
f 141/141 174/174 173/173
f 142/142 143/143 175/175
f 142/142 175/175 174/174
f 143/143 144/144 176/176
f 143/143 176/176 175/175
f 144/144 145/145 177/177
f 144/144 177/177 176/176
f 145/145 146/146 178/178
f 145/145 178/178 177/177
f 146/146 147/147 179/179
f 146/146 179/179 178/178
f 147/147 148/148 180/180
f 147/147 180/180 179/179
f 148/148 149/149 181/181
f 148/148 181/181 180/180
f 149/149 150/150 182/182
f 149/149 182/182 181/181
f 150/150 151/151 183/183
f 150/150 183/183 182/182
f 151/151 152/152 184/184
f 151/151 184/184 183/183
f 152/152 153/153 185/185
f 152/152 185/185 184/184
f 153/153 154/154 186/186
f 153/153 186/186 185/185
f 154/154 155/155 187/187
f 154/154 187/187 186/186
f 155/155 156/156 188/188
f 155/155 188/188 187/187
f 156/156 157/157 189/189
f 156/156 189/189 188/188
f 157/157 158/158 190/190
f 157/157 190/190 189/189
f 158/158 159/159 191/191
f 158/158 191/191 190/190
f 159/159 160/160 192/192
f 159/159 192/192 191/191
f 160/160 129/129 161/161
f 160/160 161/161 192/192
f 161/161 162/162 194/194
f 161/161 194/194 193/193
f 162/162 163/163 195/195
f 162/162 195/195 194/194
f 163/163 164/164 196/196
f 163/163 196/196 195/195
f 164/164 165/165 197/197
f 164/164 197/197 196/196
f 165/165 166/166 198/198
f 165/165 198/198 197/197
f 166/166 167/167 199/199
f 166/166 199/199 198/198
f 167/167 168/168 200/200
f 167/167 200/200 199/199
f 168/168 169/169 201/201
f 168/168 201/201 200/200
f 169/169 170/170 202/202
f 169/169 202/202 201/201
f 170/170 171/171 203/203
f 170/170 203/203 202/202
f 171/171 172/172 204/204
f 171/171 204/204 203/203
f 172/172 173/173 205/205
f 172/172 205/205 204/204
f 173/173 174/174 206/206
f 173/173 206/206 205/205
f 174/174 175/175 207/207
f 174/174 207/207 206/206
f 175/175 176/176 208/208
f 175/175 208/208 207/207
f 176/176 177/177 209/209
f 176/176 209/209 208/208
f 177/177 178/178 210/210
f 177/177 210/210 209/209
f 178/178 179/179 211/211
f 178/178 211/211 210/210
f 179/179 180/180 212/212
f 179/179 212/212 211/211
f 180/180 181/181 213/213
f 180/180 213/213 212/212
f 181/181 182/182 214/214
f 181/181 214/214 213/213
f 182/182 183/183 215/215
f 182/182 215/215 214/214
f 183/183 184/184 216/216
f 183/183 216/216 215/215
f 184/184 185/185 217/217
f 184/184 217/217 216/216
f 185/185 186/186 218/218
f 185/185 218/218 217/217
f 186/186 187/187 219/219
f 186/186 219/219 218/218
f 187/187 188/188 220/220
f 187/187 220/220 219/219
f 188/188 189/189 221/221
f 188/188 221/221 220/220
f 189/189 190/190 222/222
f 189/189 222/222 221/221
f 190/190 191/191 223/223
f 190/190 223/223 222/222
f 191/191 192/192 224/224
f 191/191 224/224 223/223
f 192/192 161/161 193/193
f 192/192 193/193 224/224
f 193/193 194/194 226/226
f 193/193 226/226 225/225
f 194/194 195/195 227/227
f 194/194 227/227 226/226
f 195/195 196/196 228/228
f 195/195 228/228 227/227
f 196/196 197/197 229/229
f 196/196 229/229 228/228
f 197/197 198/198 230/230
f 197/197 230/230 229/229
f 198/198 199/199 231/231
f 198/198 231/231 230/230
f 199/199 200/200 232/232
f 199/199 232/232 231/231
f 200/200 201/201 233/233
f 200/200 233/233 232/232
f 201/201 202/202 234/234
f 201/201 234/234 233/233
f 202/202 203/203 235/235
f 202/202 235/235 234/234
f 203/203 204/204 236/236
f 203/203 236/236 235/235
f 204/204 205/205 237/237
f 204/204 237/237 236/236
f 205/205 206/206 238/238
f 205/205 238/238 237/237
f 206/206 207/207 239/239
f 206/206 239/239 238/238
f 207/207 208/208 240/240
f 207/207 240/240 239/239
f 208/208 209/209 241/241
f 208/208 241/241 240/240
f 209/209 210/210 242/242
f 209/209 242/242 241/241
f 210/210 211/211 243/243
f 210/210 243/243 242/242
f 211/211 212/212 244/244
f 211/211 244/244 243/243
f 212/212 213/213 245/245
f 212/212 245/245 244/244
f 213/213 214/214 246/246
f 213/213 246/246 245/245
f 214/214 215/215 247/247
f 214/214 247/247 246/246
f 215/215 216/216 248/248
f 215/215 248/248 247/247
f 216/216 217/217 249/249
f 216/216 249/249 248/248
f 217/217 218/218 250/250
f 217/217 250/250 249/249
f 218/218 219/219 251/251
f 218/218 251/251 250/250
f 219/219 220/220 252/252
f 219/219 252/252 251/251
f 220/220 221/221 253/253
f 220/220 253/253 252/252
f 221/221 222/222 254/254
f 221/221 254/254 253/253
f 222/222 223/223 255/255
f 222/222 255/255 254/254
f 223/223 224/224 256/256
f 223/223 256/256 255/255
f 224/224 193/193 225/225
f 224/224 225/225 256/256
f 225/225 226/226 258/258
f 225/225 258/258 257/257
f 226/226 227/227 259/259
f 226/226 259/259 258/258
f 227/227 228/228 260/260
f 227/227 260/260 259/259
f 228/228 229/229 261/261
f 228/228 261/261 260/260
f 229/229 230/230 262/262
f 229/229 262/262 261/261
f 230/230 231/231 263/263
f 230/230 263/263 262/262
f 231/231 232/232 264/264
f 231/231 264/264 263/263
f 232/232 233/233 265/265
f 232/232 265/265 264/264
f 233/233 234/234 266/266
f 233/233 266/266 265/265
f 234/234 235/235 267/267
f 234/234 267/267 266/266
f 235/235 236/236 268/268
f 235/235 268/268 267/267
f 236/236 237/237 269/269
f 236/236 269/269 268/268
f 237/237 238/238 270/270
f 237/237 270/270 269/269
f 238/238 239/239 271/271
f 238/238 271/271 270/270
f 239/239 240/240 272/272
f 239/239 272/272 271/271
f 240/240 241/241 273/273
f 240/240 273/273 272/272
f 241/241 242/242 274/274
f 241/241 274/274 273/273
f 242/242 243/243 275/275
f 242/242 275/275 274/274
f 243/243 244/244 276/276
f 243/243 276/276 275/275
f 244/244 245/245 277/277
f 244/244 277/277 276/276
f 245/245 246/246 278/278
f 245/245 278/278 277/277
f 246/246 247/247 279/279
f 246/246 279/279 278/278
f 247/247 248/248 280/280
f 247/247 280/280 279/279
f 248/248 249/249 281/281
f 248/248 281/281 280/280
f 249/249 250/250 282/282
f 249/249 282/282 281/281
f 250/250 251/251 283/283
f 250/250 283/283 282/282
f 251/251 252/252 284/284
f 251/251 284/284 283/283
f 252/252 253/253 285/285
f 252/252 285/285 284/284
f 253/253 254/254 286/286
f 253/253 286/286 285/285
f 254/254 255/255 287/287
f 254/254 287/287 286/286
f 255/255 256/256 288/288
f 255/255 288/288 287/287
f 256/256 225/225 257/257
f 256/256 257/257 288/288
f 257/257 258/258 290/290
f 257/257 290/290 289/289
f 258/258 259/259 291/291
f 258/258 291/291 290/290
f 259/259 260/260 292/292
f 259/259 292/292 291/291
f 260/260 261/261 293/293
f 260/260 293/293 292/292
f 261/261 262/262 294/294
f 261/261 294/294 293/293
f 262/262 263/263 295/295
f 262/262 295/295 294/294
f 263/263 264/264 296/296
f 263/263 296/296 295/295
f 264/264 265/265 297/297
f 264/264 297/297 296/296
f 265/265 266/266 298/298
f 265/265 298/298 297/297
f 266/266 267/267 299/299
f 266/266 299/299 298/298
f 267/267 268/268 300/300
f 267/267 300/300 299/299
f 268/268 269/269 301/301
f 268/268 301/301 300/300
f 269/269 270/270 302/302
f 269/269 302/302 301/301
f 270/270 271/271 303/303
f 270/270 303/303 302/302
f 271/271 272/272 304/304
f 271/271 304/304 303/303
f 272/272 273/273 305/305
f 272/272 305/305 304/304
f 273/273 274/274 306/306
f 273/273 306/306 305/305
f 274/274 275/275 307/307
f 274/274 307/307 306/306
f 275/275 276/276 308/308
f 275/275 308/308 307/307
f 276/276 277/277 309/309
f 276/276 309/309 308/308
f 277/277 278/278 310/310
f 277/277 310/310 309/309
f 278/278 279/279 311/311
f 278/278 311/311 310/310
f 279/279 280/280 312/312
f 279/279 312/312 311/311
f 280/280 281/281 313/313
f 280/280 313/313 312/312
f 281/281 282/282 314/314
f 281/281 314/314 313/313
f 282/282 283/283 315/315
f 282/282 315/315 314/314
f 283/283 284/284 316/316
f 283/283 316/316 315/315
f 284/284 285/285 317/317
f 284/284 317/317 316/316
f 285/285 286/286 318/318
f 285/285 318/318 317/317
f 286/286 287/287 319/319
f 286/286 319/319 318/318
f 287/287 288/288 320/320
f 287/287 320/320 319/319
f 288/288 257/257 289/289
f 288/288 289/289 320/320
f 289/289 290/290 322/322
f 289/289 322/322 321/321
f 290/290 291/291 323/323
f 290/290 323/323 322/322
f 291/291 292/292 324/324
f 291/291 324/324 323/323
f 292/292 293/293 325/325
f 292/292 325/325 324/324
f 293/293 294/294 326/326
f 293/293 326/326 325/325
f 294/294 295/295 327/327
f 294/294 327/327 326/326
f 295/295 296/296 328/328
f 295/295 328/328 327/327
f 296/296 297/297 329/329
f 296/296 329/329 328/328
f 297/297 298/298 330/330
f 297/297 330/330 329/329
f 298/298 299/299 331/331
f 298/298 331/331 330/330
f 299/299 300/300 332/332
f 299/299 332/332 331/331
f 300/300 301/301 333/333
f 300/300 333/333 332/332
f 301/301 302/302 334/334
f 301/301 334/334 333/333
f 302/302 303/303 335/335
f 302/302 335/335 334/334
f 303/303 304/304 336/336
f 303/303 336/336 335/335
f 304/304 305/305 337/337
f 304/304 337/337 336/336
f 305/305 306/306 338/338
f 305/305 338/338 337/337
f 306/306 307/307 339/339
f 306/306 339/339 338/338
f 307/307 308/308 340/340
f 307/307 340/340 339/339
f 308/308 309/309 341/341
f 308/308 341/341 340/340
f 309/309 310/310 342/342
f 309/309 342/342 341/341
f 310/310 311/311 343/343
f 310/310 343/343 342/342
f 311/311 312/312 344/344
f 311/311 344/344 343/343
f 312/312 313/313 345/345
f 312/312 345/345 344/344
f 313/313 314/314 346/346
f 313/313 346/346 345/345
f 314/314 315/315 347/347
f 314/314 347/347 346/346
f 315/315 316/316 348/348
f 315/315 348/348 347/347
f 316/316 317/317 349/349
f 316/316 349/349 348/348
f 317/317 318/318 350/350
f 317/317 350/350 349/349
f 318/318 319/319 351/351
f 318/318 351/351 350/350
f 319/319 320/320 352/352
f 319/319 352/352 351/351
f 320/320 289/289 321/321
f 320/320 321/321 352/352
f 321/321 322/322 354/354
f 321/321 354/354 353/353
f 322/322 323/323 355/355
f 322/322 355/355 354/354
f 323/323 324/324 356/356
f 323/323 356/356 355/355
f 324/324 325/325 357/357
f 324/324 357/357 356/356
f 325/325 326/326 358/358
f 325/325 358/358 357/357
f 326/326 327/327 359/359
f 326/326 359/359 358/358
f 327/327 328/328 360/360
f 327/327 360/360 359/359
f 328/328 329/329 361/361
f 328/328 361/361 360/360
f 329/329 330/330 362/362
f 329/329 362/362 361/361
f 330/330 331/331 363/363
f 330/330 363/363 362/362
f 331/331 332/332 364/364
f 331/331 364/364 363/363
f 332/332 333/333 365/365
f 332/332 365/365 364/364
f 333/333 334/334 366/366
f 333/333 366/366 365/365
f 334/334 335/335 367/367
f 334/334 367/367 366/366
f 335/335 336/336 368/368
f 335/335 368/368 367/367
f 336/336 337/337 369/369
f 336/336 369/369 368/368
f 337/337 338/338 370/370
f 337/337 370/370 369/369
f 338/338 339/339 371/371
f 338/338 371/371 370/370
f 339/339 340/340 372/372
f 339/339 372/372 371/371
f 340/340 341/341 373/373
f 340/340 373/373 372/372
f 341/341 342/342 374/374
f 341/341 374/374 373/373
f 342/342 343/343 375/375
f 342/342 375/375 374/374
f 343/343 344/344 376/376
f 343/343 376/376 375/375
f 344/344 345/345 377/377
f 344/344 377/377 376/376
f 345/345 346/346 378/378
f 345/345 378/378 377/377
f 346/346 347/347 379/379
f 346/346 379/379 378/378
f 347/347 348/348 380/380
f 347/347 380/380 379/379
f 348/348 349/349 381/381
f 348/348 381/381 380/380
f 349/349 350/350 382/382
f 349/349 382/382 381/381
f 350/350 351/351 383/383
f 350/350 383/383 382/382
f 351/351 352/352 384/384
f 351/351 384/384 383/383
f 352/352 321/321 353/353
f 352/352 353/353 384/384
f 353/353 354/354 386/386
f 353/353 386/386 385/385
f 354/354 355/355 387/387
f 354/354 387/387 386/386
f 355/355 356/356 388/388
f 355/355 388/388 387/387
f 356/356 357/357 389/389
f 356/356 389/389 388/388
f 357/357 358/358 390/390
f 357/357 390/390 389/389
f 358/358 359/359 391/391
f 358/358 391/391 390/390
f 359/359 360/360 392/392
f 359/359 392/392 391/391
f 360/360 361/361 393/393
f 360/360 393/393 392/392
f 361/361 362/362 394/394
f 361/361 394/394 393/393
f 362/362 363/363 395/395
f 362/362 395/395 394/394
f 363/363 364/364 396/396
f 363/363 396/396 395/395
f 364/364 365/365 397/397
f 364/364 397/397 396/396
f 365/365 366/366 398/398
f 365/365 398/398 397/397
f 366/366 367/367 399/399
f 366/366 399/399 398/398
f 367/367 368/368 400/400
f 367/367 400/400 399/399
f 368/368 369/369 401/401
f 368/368 401/401 400/400
f 369/369 370/370 402/402
f 369/369 402/402 401/401
f 370/370 371/371 403/403
f 370/370 403/403 402/402
f 371/371 372/372 404/404
f 371/371 404/404 403/403
f 372/372 373/373 405/405
f 372/372 405/405 404/404
f 373/373 374/374 406/406
f 373/373 406/406 405/405
f 374/374 375/375 407/407
f 374/374 407/407 406/406
f 375/375 376/376 408/408
f 375/375 408/408 407/407
f 376/376 377/377 409/409
f 376/376 409/409 408/408
f 377/377 378/378 410/410
f 377/377 410/410 409/409
f 378/378 379/379 411/411
f 378/378 411/411 410/410
f 379/379 380/380 412/412
f 379/379 412/412 411/411
f 380/380 381/381 413/413
f 380/380 413/413 412/412
f 381/381 382/382 414/414
f 381/381 414/414 413/413
f 382/382 383/383 415/415
f 382/382 415/415 414/414
f 383/383 384/384 416/416
f 383/383 416/416 415/415
f 384/384 353/353 385/385
f 384/384 385/385 416/416
f 385/385 386/386 418/418
f 385/385 418/418 417/417
f 386/386 387/387 419/419
f 386/386 419/419 418/418
f 387/387 388/388 420/420
f 387/387 420/420 419/419
f 388/388 389/389 421/421
f 388/388 421/421 420/420
f 389/389 390/390 422/422
f 389/389 422/422 421/421
f 390/390 391/391 423/423
f 390/390 423/423 422/422
f 391/391 392/392 424/424
f 391/391 424/424 423/423
f 392/392 393/393 425/425
f 392/392 425/425 424/424
f 393/393 394/394 426/426
f 393/393 426/426 425/425
f 394/394 395/395 427/427
f 394/394 427/427 426/426
f 395/395 396/396 428/428
f 395/395 428/428 427/427
f 396/396 397/397 429/429
f 396/396 429/429 428/428
f 397/397 398/398 430/430
f 397/397 430/430 429/429
f 398/398 399/399 431/431
f 398/398 431/431 430/430
f 399/399 400/400 432/432
f 399/399 432/432 431/431
f 400/400 401/401 433/433
f 400/400 433/433 432/432
f 401/401 402/402 434/434
f 401/401 434/434 433/433
f 402/402 403/403 435/435
f 402/402 435/435 434/434
f 403/403 404/404 436/436
f 403/403 436/436 435/435
f 404/404 405/405 437/437
f 404/404 437/437 436/436
f 405/405 406/406 438/438
f 405/405 438/438 437/437
f 406/406 407/407 439/439
f 406/406 439/439 438/438
f 407/407 408/408 440/440
f 407/407 440/440 439/439
f 408/408 409/409 441/441
f 408/408 441/441 440/440
f 409/409 410/410 442/442
f 409/409 442/442 441/441
f 410/410 411/411 443/443
f 410/410 443/443 442/442
f 411/411 412/412 444/444
f 411/411 444/444 443/443
f 412/412 413/413 445/445
f 412/412 445/445 444/444
f 413/413 414/414 446/446
f 413/413 446/446 445/445
f 414/414 415/415 447/447
f 414/414 447/447 446/446
f 415/415 416/416 448/448
f 415/415 448/448 447/447
f 416/416 385/385 417/417
f 416/416 417/417 448/448
f 417/417 418/418 450/450
f 417/417 450/450 449/449
f 418/418 419/419 451/451
f 418/418 451/451 450/450
f 419/419 420/420 452/452
f 419/419 452/452 451/451
f 420/420 421/421 453/453
f 420/420 453/453 452/452
f 421/421 422/422 454/454
f 421/421 454/454 453/453
f 422/422 423/423 455/455
f 422/422 455/455 454/454
f 423/423 424/424 456/456
f 423/423 456/456 455/455
f 424/424 425/425 457/457
f 424/424 457/457 456/456
f 425/425 426/426 458/458
f 425/425 458/458 457/457
f 426/426 427/427 459/459
f 426/426 459/459 458/458
f 427/427 428/428 460/460
f 427/427 460/460 459/459
f 428/428 429/429 461/461
f 428/428 461/461 460/460
f 429/429 430/430 462/462
f 429/429 462/462 461/461
f 430/430 431/431 463/463
f 430/430 463/463 462/462
f 431/431 432/432 464/464
f 431/431 464/464 463/463
f 432/432 433/433 465/465
f 432/432 465/465 464/464
f 433/433 434/434 466/466
f 433/433 466/466 465/465
f 434/434 435/435 467/467
f 434/434 467/467 466/466
f 435/435 436/436 468/468
f 435/435 468/468 467/467
f 436/436 437/437 469/469
f 436/436 469/469 468/468
f 437/437 438/438 470/470
f 437/437 470/470 469/469
f 438/438 439/439 471/471
f 438/438 471/471 470/470
f 439/439 440/440 472/472
f 439/439 472/472 471/471
f 440/440 441/441 473/473
f 440/440 473/473 472/472
f 441/441 442/442 474/474
f 441/441 474/474 473/473
f 442/442 443/443 475/475
f 442/442 475/475 474/474
f 443/443 444/444 476/476
f 443/443 476/476 475/475
f 444/444 445/445 477/477
f 444/444 477/477 476/476
f 445/445 446/446 478/478
f 445/445 478/478 477/477
f 446/446 447/447 479/479
f 446/446 479/479 478/478
f 447/447 448/448 480/480
f 447/447 480/480 479/479
f 448/448 417/417 449/449
f 448/448 449/449 480/480
f 449/449 450/450 482/482
f 449/449 482/482 481/481
f 450/450 451/451 483/483
f 450/450 483/483 482/482
f 451/451 452/452 484/484
f 451/451 484/484 483/483
f 452/452 453/453 485/485
f 452/452 485/485 484/484
f 453/453 454/454 486/486
f 453/453 486/486 485/485
f 454/454 455/455 487/487
f 454/454 487/487 486/486
f 455/455 456/456 488/488
f 455/455 488/488 487/487
f 456/456 457/457 489/489
f 456/456 489/489 488/488
f 457/457 458/458 490/490
f 457/457 490/490 489/489
f 458/458 459/459 491/491
f 458/458 491/491 490/490
f 459/459 460/460 492/492
f 459/459 492/492 491/491
f 460/460 461/461 493/493
f 460/460 493/493 492/492
f 461/461 462/462 494/494
f 461/461 494/494 493/493
f 462/462 463/463 495/495
f 462/462 495/495 494/494
f 463/463 464/464 496/496
f 463/463 496/496 495/495
f 464/464 465/465 497/497
f 464/464 497/497 496/496
f 465/465 466/466 498/498
f 465/465 498/498 497/497
f 466/466 467/467 499/499
f 466/466 499/499 498/498
f 467/467 468/468 500/500
f 467/467 500/500 499/499
f 468/468 469/469 501/501
f 468/468 501/501 500/500
f 469/469 470/470 502/502
f 469/469 502/502 501/501
f 470/470 471/471 503/503
f 470/470 503/503 502/502
f 471/471 472/472 504/504
f 471/471 504/504 503/503
f 472/472 473/473 505/505
f 472/472 505/505 504/504
f 473/473 474/474 506/506
f 473/473 506/506 505/505
f 474/474 475/475 507/507
f 474/474 507/507 506/506
f 475/475 476/476 508/508
f 475/475 508/508 507/507
f 476/476 477/477 509/509
f 476/476 509/509 508/508
f 477/477 478/478 510/510
f 477/477 510/510 509/509
f 478/478 479/479 511/511
f 478/478 511/511 510/510
f 479/479 480/480 512/512
f 479/479 512/512 511/511
f 480/480 449/449 481/481
f 480/480 481/481 512/512
f 481/481 482/482 514/514
f 481/481 514/514 513/513
f 482/482 483/483 515/515
f 482/482 515/515 514/514
f 483/483 484/484 516/516
f 483/483 516/516 515/515
f 484/484 485/485 517/517
f 484/484 517/517 516/516
f 485/485 486/486 518/518
f 485/485 518/518 517/517
f 486/486 487/487 519/519
f 486/486 519/519 518/518
f 487/487 488/488 520/520
f 487/487 520/520 519/519
f 488/488 489/489 521/521
f 488/488 521/521 520/520
f 489/489 490/490 522/522
f 489/489 522/522 521/521
f 490/490 491/491 523/523
f 490/490 523/523 522/522
f 491/491 492/492 524/524
f 491/491 524/524 523/523
f 492/492 493/493 525/525
f 492/492 525/525 524/524
f 493/493 494/494 526/526
f 493/493 526/526 525/525
f 494/494 495/495 527/527
f 494/494 527/527 526/526
f 495/495 496/496 528/528
f 495/495 528/528 527/527
f 496/496 497/497 529/529
f 496/496 529/529 528/528
f 497/497 498/498 530/530
f 497/497 530/530 529/529
f 498/498 499/499 531/531
f 498/498 531/531 530/530
f 499/499 500/500 532/532
f 499/499 532/532 531/531
f 500/500 501/501 533/533
f 500/500 533/533 532/532
f 501/501 502/502 534/534
f 501/501 534/534 533/533
f 502/502 503/503 535/535
f 502/502 535/535 534/534
f 503/503 504/504 536/536
f 503/503 536/536 535/535
f 504/504 505/505 537/537
f 504/504 537/537 536/536
f 505/505 506/506 538/538
f 505/505 538/538 537/537
f 506/506 507/507 539/539
f 506/506 539/539 538/538
f 507/507 508/508 540/540
f 507/507 540/540 539/539
f 508/508 509/509 541/541
f 508/508 541/541 540/540
f 509/509 510/510 542/542
f 509/509 542/542 541/541
f 510/510 511/511 543/543
f 510/510 543/543 542/542
f 511/511 512/512 544/544
f 511/511 544/544 543/543
f 512/512 481/481 513/513
f 512/512 513/513 544/544
f 513/513 514/514 546/546
f 513/513 546/546 545/545
f 514/514 515/515 547/547
f 514/514 547/547 546/546
f 515/515 516/516 548/548
f 515/515 548/548 547/547
f 516/516 517/517 549/549
f 516/516 549/549 548/548
f 517/517 518/518 550/550
f 517/517 550/550 549/549
f 518/518 519/519 551/551
f 518/518 551/551 550/550
f 519/519 520/520 552/552
f 519/519 552/552 551/551
f 520/520 521/521 553/553
f 520/520 553/553 552/552
f 521/521 522/522 554/554
f 521/521 554/554 553/553
f 522/522 523/523 555/555
f 522/522 555/555 554/554
f 523/523 524/524 556/556
f 523/523 556/556 555/555
f 524/524 525/525 557/557
f 524/524 557/557 556/556
f 525/525 526/526 558/558
f 525/525 558/558 557/557
f 526/526 527/527 559/559
f 526/526 559/559 558/558
f 527/527 528/528 560/560
f 527/527 560/560 559/559
f 528/528 529/529 561/561
f 528/528 561/561 560/560
f 529/529 530/530 562/562
f 529/529 562/562 561/561
f 530/530 531/531 563/563
f 530/530 563/563 562/562
f 531/531 532/532 564/564
f 531/531 564/564 563/563
f 532/532 533/533 565/565
f 532/532 565/565 564/564
f 533/533 534/534 566/566
f 533/533 566/566 565/565
f 534/534 535/535 567/567
f 534/534 567/567 566/566
f 535/535 536/536 568/568
f 535/535 568/568 567/567
f 536/536 537/537 569/569
f 536/536 569/569 568/568
f 537/537 538/538 570/570
f 537/537 570/570 569/569
f 538/538 539/539 571/571
f 538/538 571/571 570/570
f 539/539 540/540 572/572
f 539/539 572/572 571/571
f 540/540 541/541 573/573
f 540/540 573/573 572/572
f 541/541 542/542 574/574
f 541/541 574/574 573/573
f 542/542 543/543 575/575
f 542/542 575/575 574/574
f 543/543 544/544 576/576
f 543/543 576/576 575/575
f 544/544 513/513 545/545
f 544/544 545/545 576/576
f 545/545 546/546 578/578
f 545/545 578/578 577/577
f 546/546 547/547 579/579
f 546/546 579/579 578/578
f 547/547 548/548 580/580
f 547/547 580/580 579/579
f 548/548 549/549 581/581
f 548/548 581/581 580/580
f 549/549 550/550 582/582
f 549/549 582/582 581/581
f 550/550 551/551 583/583
f 550/550 583/583 582/582
f 551/551 552/552 584/584
f 551/551 584/584 583/583
f 552/552 553/553 585/585
f 552/552 585/585 584/584
f 553/553 554/554 586/586
f 553/553 586/586 585/585
f 554/554 555/555 587/587
f 554/554 587/587 586/586
f 555/555 556/556 588/588
f 555/555 588/588 587/587
f 556/556 557/557 589/589
f 556/556 589/589 588/588
f 557/557 558/558 590/590
f 557/557 590/590 589/589
f 558/558 559/559 591/591
f 558/558 591/591 590/590
f 559/559 560/560 592/592
f 559/559 592/592 591/591
f 560/560 561/561 593/593
f 560/560 593/593 592/592
f 561/561 562/562 594/594
f 561/561 594/594 593/593
f 562/562 563/563 595/595
f 562/562 595/595 594/594
f 563/563 564/564 596/596
f 563/563 596/596 595/595
f 564/564 565/565 597/597
f 564/564 597/597 596/596
f 565/565 566/566 598/598
f 565/565 598/598 597/597
f 566/566 567/567 599/599
f 566/566 599/599 598/598
f 567/567 568/568 600/600
f 567/567 600/600 599/599
f 568/568 569/569 601/601
f 568/568 601/601 600/600
f 569/569 570/570 602/602
f 569/569 602/602 601/601
f 570/570 571/571 603/603
f 570/570 603/603 602/602
f 571/571 572/572 604/604
f 571/571 604/604 603/603
f 572/572 573/573 605/605
f 572/572 605/605 604/604
f 573/573 574/574 606/606
f 573/573 606/606 605/605
f 574/574 575/575 607/607
f 574/574 607/607 606/606
f 575/575 576/576 608/608
f 575/575 608/608 607/607
f 576/576 545/545 577/577
f 576/576 577/577 608/608
f 577/577 578/578 610/610
f 577/577 610/610 609/609
f 578/578 579/579 611/611
f 578/578 611/611 610/610
f 579/579 580/580 612/612
f 579/579 612/612 611/611
f 580/580 581/581 613/613
f 580/580 613/613 612/612
f 581/581 582/582 614/614
f 581/581 614/614 613/613
f 582/582 583/583 615/615
f 582/582 615/615 614/614
f 583/583 584/584 616/616
f 583/583 616/616 615/615
f 584/584 585/585 617/617
f 584/584 617/617 616/616
f 585/585 586/586 618/618
f 585/585 618/618 617/617
f 586/586 587/587 619/619
f 586/586 619/619 618/618
f 587/587 588/588 620/620
f 587/587 620/620 619/619
f 588/588 589/589 621/621
f 588/588 621/621 620/620
f 589/589 590/590 622/622
f 589/589 622/622 621/621
f 590/590 591/591 623/623
f 590/590 623/623 622/622
f 591/591 592/592 624/624
f 591/591 624/624 623/623
f 592/592 593/593 625/625
f 592/592 625/625 624/624
f 593/593 594/594 626/626
f 593/593 626/626 625/625
f 594/594 595/595 627/627
f 594/594 627/627 626/626
f 595/595 596/596 628/628
f 595/595 628/628 627/627
f 596/596 597/597 629/629
f 596/596 629/629 628/628
f 597/597 598/598 630/630
f 597/597 630/630 629/629
f 598/598 599/599 631/631
f 598/598 631/631 630/630
f 599/599 600/600 632/632
f 599/599 632/632 631/631
f 600/600 601/601 633/633
f 600/600 633/633 632/632
f 601/601 602/602 634/634
f 601/601 634/634 633/633
f 602/602 603/603 635/635
f 602/602 635/635 634/634
f 603/603 604/604 636/636
f 603/603 636/636 635/635
f 604/604 605/605 637/637
f 604/604 637/637 636/636
f 605/605 606/606 638/638
f 605/605 638/638 637/637
f 606/606 607/607 639/639
f 606/606 639/639 638/638
f 607/607 608/608 640/640
f 607/607 640/640 639/639
f 608/608 577/577 609/609
f 608/608 609/609 640/640
f 609/609 610/610 642/642
f 609/609 642/642 641/641
f 610/610 611/611 643/643
f 610/610 643/643 642/642
f 611/611 612/612 644/644
f 611/611 644/644 643/643
f 612/612 613/613 645/645
f 612/612 645/645 644/644
f 613/613 614/614 646/646
f 613/613 646/646 645/645
f 614/614 615/615 647/647
f 614/614 647/647 646/646
f 615/615 616/616 648/648
f 615/615 648/648 647/647
f 616/616 617/617 649/649
f 616/616 649/649 648/648
f 617/617 618/618 650/650
f 617/617 650/650 649/649
f 618/618 619/619 651/651
f 618/618 651/651 650/650
f 619/619 620/620 652/652
f 619/619 652/652 651/651
f 620/620 621/621 653/653
f 620/620 653/653 652/652
f 621/621 622/622 654/654
f 621/621 654/654 653/653
f 622/622 623/623 655/655
f 622/622 655/655 654/654
f 623/623 624/624 656/656
f 623/623 656/656 655/655
f 624/624 625/625 657/657
f 624/624 657/657 656/656
f 625/625 626/626 658/658
f 625/625 658/658 657/657
f 626/626 627/627 659/659
f 626/626 659/659 658/658
f 627/627 628/628 660/660
f 627/627 660/660 659/659
f 628/628 629/629 661/661
f 628/628 661/661 660/660
f 629/629 630/630 662/662
f 629/629 662/662 661/661
f 630/630 631/631 663/663
f 630/630 663/663 662/662
f 631/631 632/632 664/664
f 631/631 664/664 663/663
f 632/632 633/633 665/665
f 632/632 665/665 664/664
f 633/633 634/634 666/666
f 633/633 666/666 665/665
f 634/634 635/635 667/667
f 634/634 667/667 666/666
f 635/635 636/636 668/668
f 635/635 668/668 667/667
f 636/636 637/637 669/669
f 636/636 669/669 668/668
f 637/637 638/638 670/670
f 637/637 670/670 669/669
f 638/638 639/639 671/671
f 638/638 671/671 670/670
f 639/639 640/640 672/672
f 639/639 672/672 671/671
f 640/640 609/609 641/641
f 640/640 641/641 672/672
f 641/641 642/642 674/674
f 641/641 674/674 673/673
f 642/642 643/643 675/675
f 642/642 675/675 674/674
f 643/643 644/644 676/676
f 643/643 676/676 675/675
f 644/644 645/645 677/677
f 644/644 677/677 676/676
f 645/645 646/646 678/678
f 645/645 678/678 677/677
f 646/646 647/647 679/679
f 646/646 679/679 678/678
f 647/647 648/648 680/680
f 647/647 680/680 679/679
f 648/648 649/649 681/681
f 648/648 681/681 680/680
f 649/649 650/650 682/682
f 649/649 682/682 681/681
f 650/650 651/651 683/683
f 650/650 683/683 682/682
f 651/651 652/652 684/684
f 651/651 684/684 683/683
f 652/652 653/653 685/685
f 652/652 685/685 684/684
f 653/653 654/654 686/686
f 653/653 686/686 685/685
f 654/654 655/655 687/687
f 654/654 687/687 686/686
f 655/655 656/656 688/688
f 655/655 688/688 687/687
f 656/656 657/657 689/689
f 656/656 689/689 688/688
f 657/657 658/658 690/690
f 657/657 690/690 689/689
f 658/658 659/659 691/691
f 658/658 691/691 690/690
f 659/659 660/660 692/692
f 659/659 692/692 691/691
f 660/660 661/661 693/693
f 660/660 693/693 692/692
f 661/661 662/662 694/694
f 661/661 694/694 693/693
f 662/662 663/663 695/695
f 662/662 695/695 694/694
f 663/663 664/664 696/696
f 663/663 696/696 695/695
f 664/664 665/665 697/697
f 664/664 697/697 696/696
f 665/665 666/666 698/698
f 665/665 698/698 697/697
f 666/666 667/667 699/699
f 666/666 699/699 698/698
f 667/667 668/668 700/700
f 667/667 700/700 699/699
f 668/668 669/669 701/701
f 668/668 701/701 700/700
f 669/669 670/670 702/702
f 669/669 702/702 701/701
f 670/670 671/671 703/703
f 670/670 703/703 702/702
f 671/671 672/672 704/704
f 671/671 704/704 703/703
f 672/672 641/641 673/673
f 672/672 673/673 704/704
f 673/673 674/674 706/706
f 673/673 706/706 705/705
f 674/674 675/675 707/707
f 674/674 707/707 706/706
f 675/675 676/676 708/708
f 675/675 708/708 707/707
f 676/676 677/677 709/709
f 676/676 709/709 708/708
f 677/677 678/678 710/710
f 677/677 710/710 709/709
f 678/678 679/679 711/711
f 678/678 711/711 710/710
f 679/679 680/680 712/712
f 679/679 712/712 711/711
f 680/680 681/681 713/713
f 680/680 713/713 712/712
f 681/681 682/682 714/714
f 681/681 714/714 713/713
f 682/682 683/683 715/715
f 682/682 715/715 714/714
f 683/683 684/684 716/716
f 683/683 716/716 715/715
f 684/684 685/685 717/717
f 684/684 717/717 716/716
f 685/685 686/686 718/718
f 685/685 718/718 717/717
f 686/686 687/687 719/719
f 686/686 719/719 718/718
f 687/687 688/688 720/720
f 687/687 720/720 719/719
f 688/688 689/689 721/721
f 688/688 721/721 720/720
f 689/689 690/690 722/722
f 689/689 722/722 721/721
f 690/690 691/691 723/723
f 690/690 723/723 722/722
f 691/691 692/692 724/724
f 691/691 724/724 723/723
f 692/692 693/693 725/725
f 692/692 725/725 724/724
f 693/693 694/694 726/726
f 693/693 726/726 725/725
f 694/694 695/695 727/727
f 694/694 727/727 726/726
f 695/695 696/696 728/728
f 695/695 728/728 727/727
f 696/696 697/697 729/729
f 696/696 729/729 728/728
f 697/697 698/698 730/730
f 697/697 730/730 729/729
f 698/698 699/699 731/731
f 698/698 731/731 730/730
f 699/699 700/700 732/732
f 699/699 732/732 731/731
f 700/700 701/701 733/733
f 700/700 733/733 732/732
f 701/701 702/702 734/734
f 701/701 734/734 733/733
f 702/702 703/703 735/735
f 702/702 735/735 734/734
f 703/703 704/704 736/736
f 703/703 736/736 735/735
f 704/704 673/673 705/705
f 704/704 705/705 736/736
f 705/705 706/706 738/738
f 705/705 738/738 737/737
f 706/706 707/707 739/739
f 706/706 739/739 738/738
f 707/707 708/708 740/740
f 707/707 740/740 739/739
f 708/708 709/709 741/741
f 708/708 741/741 740/740
f 709/709 710/710 742/742
f 709/709 742/742 741/741
f 710/710 711/711 743/743
f 710/710 743/743 742/742
f 711/711 712/712 744/744
f 711/711 744/744 743/743
f 712/712 713/713 745/745
f 712/712 745/745 744/744
f 713/713 714/714 746/746
f 713/713 746/746 745/745
f 714/714 715/715 747/747
f 714/714 747/747 746/746
f 715/715 716/716 748/748
f 715/715 748/748 747/747
f 716/716 717/717 749/749
f 716/716 749/749 748/748
f 717/717 718/718 750/750
f 717/717 750/750 749/749
f 718/718 719/719 751/751
f 718/718 751/751 750/750
f 719/719 720/720 752/752
f 719/719 752/752 751/751
f 720/720 721/721 753/753
f 720/720 753/753 752/752
f 721/721 722/722 754/754
f 721/721 754/754 753/753
f 722/722 723/723 755/755
f 722/722 755/755 754/754
f 723/723 724/724 756/756
f 723/723 756/756 755/755
f 724/724 725/725 757/757
f 724/724 757/757 756/756
f 725/725 726/726 758/758
f 725/725 758/758 757/757
f 726/726 727/727 759/759
f 726/726 759/759 758/758
f 727/727 728/728 760/760
f 727/727 760/760 759/759
f 728/728 729/729 761/761
f 728/728 761/761 760/760
f 729/729 730/730 762/762
f 729/729 762/762 761/761
f 730/730 731/731 763/763
f 730/730 763/763 762/762
f 731/731 732/732 764/764
f 731/731 764/764 763/763
f 732/732 733/733 765/765
f 732/732 765/765 764/764
f 733/733 734/734 766/766
f 733/733 766/766 765/765
f 734/734 735/735 767/767
f 734/734 767/767 766/766
f 735/735 736/736 768/768
f 735/735 768/768 767/767
f 736/736 705/705 737/737
f 736/736 737/737 768/768
f 737/737 738/738 770/770
f 737/737 770/770 769/769
f 738/738 739/739 771/771
f 738/738 771/771 770/770
f 739/739 740/740 772/772
f 739/739 772/772 771/771
f 740/740 741/741 773/773
f 740/740 773/773 772/772
f 741/741 742/742 774/774
f 741/741 774/774 773/773
f 742/742 743/743 775/775
f 742/742 775/775 774/774
f 743/743 744/744 776/776
f 743/743 776/776 775/775
f 744/744 745/745 777/777
f 744/744 777/777 776/776
f 745/745 746/746 778/778
f 745/745 778/778 777/777
f 746/746 747/747 779/779
f 746/746 779/779 778/778
f 747/747 748/748 780/780
f 747/747 780/780 779/779
f 748/748 749/749 781/781
f 748/748 781/781 780/780
f 749/749 750/750 782/782
f 749/749 782/782 781/781
f 750/750 751/751 783/783
f 750/750 783/783 782/782
f 751/751 752/752 784/784
f 751/751 784/784 783/783
f 752/752 753/753 785/785
f 752/752 785/785 784/784
f 753/753 754/754 786/786
f 753/753 786/786 785/785
f 754/754 755/755 787/787
f 754/754 787/787 786/786
f 755/755 756/756 788/788
f 755/755 788/788 787/787
f 756/756 757/757 789/789
f 756/756 789/789 788/788
f 757/757 758/758 790/790
f 757/757 790/790 789/789
f 758/758 759/759 791/791
f 758/758 791/791 790/790
f 759/759 760/760 792/792
f 759/759 792/792 791/791
f 760/760 761/761 793/793
f 760/760 793/793 792/792
f 761/761 762/762 794/794
f 761/761 794/794 793/793
f 762/762 763/763 795/795
f 762/762 795/795 794/794
f 763/763 764/764 796/796
f 763/763 796/796 795/795
f 764/764 765/765 797/797
f 764/764 797/797 796/796
f 765/765 766/766 798/798
f 765/765 798/798 797/797
f 766/766 767/767 799/799
f 766/766 799/799 798/798
f 767/767 768/768 800/800
f 767/767 800/800 799/799
f 768/768 737/737 769/769
f 768/768 769/769 800/800
f 769/769 770/770 802/802
f 769/769 802/802 801/801
f 770/770 771/771 803/803
f 770/770 803/803 802/802
f 771/771 772/772 804/804
f 771/771 804/804 803/803
f 772/772 773/773 805/805
f 772/772 805/805 804/804
f 773/773 774/774 806/806
f 773/773 806/806 805/805
f 774/774 775/775 807/807
f 774/774 807/807 806/806
f 775/775 776/776 808/808
f 775/775 808/808 807/807
f 776/776 777/777 809/809
f 776/776 809/809 808/808
f 777/777 778/778 810/810
f 777/777 810/810 809/809
f 778/778 779/779 811/811
f 778/778 811/811 810/810
f 779/779 780/780 812/812
f 779/779 812/812 811/811
f 780/780 781/781 813/813
f 780/780 813/813 812/812
f 781/781 782/782 814/814
f 781/781 814/814 813/813
f 782/782 783/783 815/815
f 782/782 815/815 814/814
f 783/783 784/784 816/816
f 783/783 816/816 815/815
f 784/784 785/785 817/817
f 784/784 817/817 816/816
f 785/785 786/786 818/818
f 785/785 818/818 817/817
f 786/786 787/787 819/819
f 786/786 819/819 818/818
f 787/787 788/788 820/820
f 787/787 820/820 819/819
f 788/788 789/789 821/821
f 788/788 821/821 820/820
f 789/789 790/790 822/822
f 789/789 822/822 821/821
f 790/790 791/791 823/823
f 790/790 823/823 822/822
f 791/791 792/792 824/824
f 791/791 824/824 823/823
f 792/792 793/793 825/825
f 792/792 825/825 824/824
f 793/793 794/794 826/826
f 793/793 826/826 825/825
f 794/794 795/795 827/827
f 794/794 827/827 826/826
f 795/795 796/796 828/828
f 795/795 828/828 827/827
f 796/796 797/797 829/829
f 796/796 829/829 828/828
f 797/797 798/798 830/830
f 797/797 830/830 829/829
f 798/798 799/799 831/831
f 798/798 831/831 830/830
f 799/799 800/800 832/832
f 799/799 832/832 831/831
f 800/800 769/769 801/801
f 800/800 801/801 832/832
f 801/801 802/802 834/834
f 801/801 834/834 833/833
f 802/802 803/803 835/835
f 802/802 835/835 834/834
f 803/803 804/804 836/836
f 803/803 836/836 835/835
f 804/804 805/805 837/837
f 804/804 837/837 836/836
f 805/805 806/806 838/838
f 805/805 838/838 837/837
f 806/806 807/807 839/839
f 806/806 839/839 838/838
f 807/807 808/808 840/840
f 807/807 840/840 839/839
f 808/808 809/809 841/841
f 808/808 841/841 840/840
f 809/809 810/810 842/842
f 809/809 842/842 841/841
f 810/810 811/811 843/843
f 810/810 843/843 842/842
f 811/811 812/812 844/844
f 811/811 844/844 843/843
f 812/812 813/813 845/845
f 812/812 845/845 844/844
f 813/813 814/814 846/846
f 813/813 846/846 845/845
f 814/814 815/815 847/847
f 814/814 847/847 846/846
f 815/815 816/816 848/848
f 815/815 848/848 847/847
f 816/816 817/817 849/849
f 816/816 849/849 848/848
f 817/817 818/818 850/850
f 817/817 850/850 849/849
f 818/818 819/819 851/851
f 818/818 851/851 850/850
f 819/819 820/820 852/852
f 819/819 852/852 851/851
f 820/820 821/821 853/853
f 820/820 853/853 852/852
f 821/821 822/822 854/854
f 821/821 854/854 853/853
f 822/822 823/823 855/855
f 822/822 855/855 854/854
f 823/823 824/824 856/856
f 823/823 856/856 855/855
f 824/824 825/825 857/857
f 824/824 857/857 856/856
f 825/825 826/826 858/858
f 825/825 858/858 857/857
f 826/826 827/827 859/859
f 826/826 859/859 858/858
f 827/827 828/828 860/860
f 827/827 860/860 859/859
f 828/828 829/829 861/861
f 828/828 861/861 860/860
f 829/829 830/830 862/862
f 829/829 862/862 861/861
f 830/830 831/831 863/863
f 830/830 863/863 862/862
f 831/831 832/832 864/864
f 831/831 864/864 863/863
f 832/832 801/801 833/833
f 832/832 833/833 864/864
f 833/833 834/834 866/866
f 833/833 866/866 865/865
f 834/834 835/835 867/867
f 834/834 867/867 866/866
f 835/835 836/836 868/868
f 835/835 868/868 867/867
f 836/836 837/837 869/869
f 836/836 869/869 868/868
f 837/837 838/838 870/870
f 837/837 870/870 869/869
f 838/838 839/839 871/871
f 838/838 871/871 870/870
f 839/839 840/840 872/872
f 839/839 872/872 871/871
f 840/840 841/841 873/873
f 840/840 873/873 872/872
f 841/841 842/842 874/874
f 841/841 874/874 873/873
f 842/842 843/843 875/875
f 842/842 875/875 874/874
f 843/843 844/844 876/876
f 843/843 876/876 875/875
f 844/844 845/845 877/877
f 844/844 877/877 876/876
f 845/845 846/846 878/878
f 845/845 878/878 877/877
f 846/846 847/847 879/879
f 846/846 879/879 878/878
f 847/847 848/848 880/880
f 847/847 880/880 879/879
f 848/848 849/849 881/881
f 848/848 881/881 880/880
f 849/849 850/850 882/882
f 849/849 882/882 881/881
f 850/850 851/851 883/883
f 850/850 883/883 882/882
f 851/851 852/852 884/884
f 851/851 884/884 883/883
f 852/852 853/853 885/885
f 852/852 885/885 884/884
f 853/853 854/854 886/886
f 853/853 886/886 885/885
f 854/854 855/855 887/887
f 854/854 887/887 886/886
f 855/855 856/856 888/888
f 855/855 888/888 887/887
f 856/856 857/857 889/889
f 856/856 889/889 888/888
f 857/857 858/858 890/890
f 857/857 890/890 889/889
f 858/858 859/859 891/891
f 858/858 891/891 890/890
f 859/859 860/860 892/892
f 859/859 892/892 891/891
f 860/860 861/861 893/893
f 860/860 893/893 892/892
f 861/861 862/862 894/894
f 861/861 894/894 893/893
f 862/862 863/863 895/895
f 862/862 895/895 894/894
f 863/863 864/864 896/896
f 863/863 896/896 895/895
f 864/864 833/833 865/865
f 864/864 865/865 896/896
f 865/865 866/866 898/898
f 865/865 898/898 897/897
f 866/866 867/867 899/899
f 866/866 899/899 898/898
f 867/867 868/868 900/900
f 867/867 900/900 899/899
f 868/868 869/869 901/901
f 868/868 901/901 900/900
f 869/869 870/870 902/902
f 869/869 902/902 901/901
f 870/870 871/871 903/903
f 870/870 903/903 902/902
f 871/871 872/872 904/904
f 871/871 904/904 903/903
f 872/872 873/873 905/905
f 872/872 905/905 904/904
f 873/873 874/874 906/906
f 873/873 906/906 905/905
f 874/874 875/875 907/907
f 874/874 907/907 906/906
f 875/875 876/876 908/908
f 875/875 908/908 907/907
f 876/876 877/877 909/909
f 876/876 909/909 908/908
f 877/877 878/878 910/910
f 877/877 910/910 909/909
f 878/878 879/879 911/911
f 878/878 911/911 910/910
f 879/879 880/880 912/912
f 879/879 912/912 911/911
f 880/880 881/881 913/913
f 880/880 913/913 912/912
f 881/881 882/882 914/914
f 881/881 914/914 913/913
f 882/882 883/883 915/915
f 882/882 915/915 914/914
f 883/883 884/884 916/916
f 883/883 916/916 915/915
f 884/884 885/885 917/917
f 884/884 917/917 916/916
f 885/885 886/886 918/918
f 885/885 918/918 917/917
f 886/886 887/887 919/919
f 886/886 919/919 918/918
f 887/887 888/888 920/920
f 887/887 920/920 919/919
f 888/888 889/889 921/921
f 888/888 921/921 920/920
f 889/889 890/890 922/922
f 889/889 922/922 921/921
f 890/890 891/891 923/923
f 890/890 923/923 922/922
f 891/891 892/892 924/924
f 891/891 924/924 923/923
f 892/892 893/893 925/925
f 892/892 925/925 924/924
f 893/893 894/894 926/926
f 893/893 926/926 925/925
f 894/894 895/895 927/927
f 894/894 927/927 926/926
f 895/895 896/896 928/928
f 895/895 928/928 927/927
f 896/896 865/865 897/897
f 896/896 897/897 928/928
f 929/929 930/930 938/938
f 929/929 938/938 937/937
f 930/930 931/931 939/939
f 930/930 939/939 938/938
f 931/931 932/932 940/940
f 931/931 940/940 939/939
f 932/932 933/933 941/941
f 932/932 941/941 940/940
f 933/933 934/934 942/942
f 933/933 942/942 941/941
f 934/934 935/935 943/943
f 934/934 943/943 942/942
f 935/935 936/936 944/944
f 935/935 944/944 943/943
f 936/936 929/929 937/937
f 936/936 937/937 944/944
