# procedurally generated apple mesh
v 0.000000 0.000000 0.973590
v 0.000000 0.000000 0.919873
v 0.000000 0.000000 1.007249
v 0.000000 0.000000 0.981342
v 0.000000 0.000000 0.918979
v 0.000000 0.000000 0.963241
v 0.000000 0.000000 1.026721
v -0.000000 0.000000 0.990699
v -0.000000 0.000000 0.996926
v -0.000000 0.000000 0.993153
v -0.000000 0.000000 0.927980
v -0.000000 0.000000 0.955206
v -0.000000 0.000000 0.916792
v -0.000000 -0.000000 0.901372
v -0.000000 -0.000000 0.934034
v -0.000000 -0.000000 1.003747
v -0.000000 -0.000000 0.976744
v -0.000000 -0.000000 0.962406
v -0.000000 -0.000000 0.968971
v 0.000000 -0.000000 1.051563
v 0.000000 -0.000000 0.974700
v 0.000000 -0.000000 0.975497
v 0.000000 -0.000000 0.959918
v 0.000000 -0.000000 0.953258
v 0.131502 0.000000 0.998857
v 0.123973 0.033218 0.974885
v 0.106617 0.061556 0.935122
v 0.084845 0.084845 0.911404
v 0.066404 0.115016 1.008780
v 0.037867 0.141321 1.111305
v 0.000000 0.151010 1.147032
v -0.034178 0.127554 1.003045
v -0.063329 0.109689 0.962058
v -0.088678 0.088678 0.952578
v -0.118481 0.068405 1.039176
v -0.125767 0.033699 0.988995
v -0.129045 0.000000 0.980194
v -0.110271 -0.029547 0.867140
v -0.119930 -0.069242 1.051883
v -0.095613 -0.095613 1.027082
v -0.059776 -0.103535 0.908083
v -0.033358 -0.124494 0.978982
v -0.000000 -0.138393 1.051200
v 0.034728 -0.129608 1.019202
v 0.067430 -0.116793 1.024368
v 0.095814 -0.095814 1.029236
v 0.110488 -0.063790 0.969067
v 0.128184 -0.034347 1.008004
v 0.246675 0.000000 0.920605
v 0.223427 0.059867 0.863254
v 0.206593 0.119276 0.890290
v 0.175685 0.175685 0.927249
v 0.133971 0.232045 0.999975
v 0.069098 0.257878 0.996366
v 0.000000 0.264253 0.986204
v -0.065615 0.244877 0.946132
v -0.131962 0.228564 0.984975
v -0.190512 0.190512 1.005506
v -0.229734 0.132637 0.990014
v -0.248313 0.066535 0.959409
v -0.261354 0.000000 0.975385
v -0.236670 -0.063416 0.914423
v -0.206780 -0.119384 0.891096
v -0.178672 -0.178672 0.943014
v -0.120043 -0.207921 0.896015
v -0.069774 -0.260399 1.006106
v -0.000000 -0.268932 1.003670
v 0.072393 -0.270174 1.043870
v 0.139801 -0.242143 1.043490
v 0.197703 -0.197703 1.043458
v 0.215400 -0.124361 0.928246
v 0.265106 -0.071035 1.024290
v 0.384333 0.000000 0.927862
v 0.341623 0.091538 0.853846
v 0.312150 0.180220 0.870179
v 0.262646 0.262646 0.896731
v 0.197209 0.341577 0.952211
v 0.111277 0.415292 1.037972
v 0.000000 0.431991 1.042919
v -0.098485 0.367550 0.918646
v -0.187994 0.325614 0.907713
v -0.273276 0.273276 0.933023
v -0.314553 0.181607 0.876877
v -0.344850 0.092402 0.861911
v -0.343097 0.000000 0.828309
v -0.344407 -0.092284 0.860804
v -0.332112 -0.191745 0.925827
v -0.262743 -0.262743 0.897060
v -0.191610 -0.331878 0.925174
v -0.098232 -0.366608 0.916291
v -0.000000 -0.414030 0.999556
v 0.101058 -0.377152 0.942646
v 0.192802 -0.333942 0.930929
v 0.275647 -0.275647 0.941117
v 0.329150 -0.190035 0.917568
v 0.355645 -0.095295 0.888890
v 0.482650 0.000000 0.835974
v 0.464399 0.124435 0.832738
v 0.388063 0.224048 0.776125
v 0.361873 0.361873 0.886405
v 0.272565 0.472096 0.944193
v 0.145431 0.542755 0.973241
v 0.000000 0.537074 0.930240
v -0.138165 0.515640 0.924621
v -0.257174 0.445438 0.890876
v -0.331003 0.331003 0.810789
v -0.438225 0.253009 0.876450
v -0.447655 0.119949 0.802713
v -0.456288 0.000000 0.790314
v -0.435924 -0.116806 0.781678
v -0.418510 -0.241627 0.837020
v -0.363802 -0.363802 0.891129
v -0.262323 -0.454357 0.908713
v -0.126941 -0.473750 0.849506
v -0.000000 -0.519846 0.900400
v 0.140425 -0.524072 0.939740
v 0.269420 -0.466649 0.933298
v 0.370696 -0.370696 0.908015
v 0.428746 -0.247537 0.857492
v 0.490590 -0.131453 0.879702
v 0.602179 0.000000 0.784776
v 0.560292 0.150130 0.755944
v 0.490100 0.282959 0.737519
v 0.425394 0.425394 0.784018
v 0.337450 0.584480 0.879547
v 0.167791 0.626206 0.844876
v 0.000000 0.607648 0.791902
v -0.157317 0.587116 0.792136
v -0.316575 0.548324 0.825137
v -0.415775 0.415775 0.766289
v -0.545317 0.314839 0.820612
v -0.599750 0.160702 0.809181
v -0.617165 0.000000 0.804305
v -0.583679 -0.156396 0.787499
v -0.509607 -0.294222 0.766874
v -0.455962 -0.455962 0.840356
v -0.312326 -0.540964 0.814062
v -0.160875 -0.600394 0.810050
v -0.000000 -0.641269 0.835717
v 0.167166 -0.623872 0.841727
v 0.289898 -0.502118 0.755605
v 0.413367 -0.413367 0.761852
v 0.535233 -0.309017 0.805437
v 0.566619 -0.151825 0.764481
v 0.717877 0.000000 0.717877
v 0.623327 0.167020 0.645316
v 0.610233 0.352318 0.704637
v 0.513910 0.513910 0.726778
v 0.379221 0.656830 0.758441
v 0.201245 0.751055 0.777549
v 0.000000 0.725967 0.725967
v -0.189198 0.706097 0.731006
v -0.352256 0.610125 0.704512
v -0.522289 0.522289 0.738629
v -0.606377 0.350092 0.700183
v -0.623869 0.167165 0.645877
v -0.716228 0.000000 0.716228
v -0.711249 -0.190579 0.736339
v -0.620427 -0.358203 0.716407
v -0.499277 -0.499277 0.706085
v -0.363004 -0.628741 0.726008
v -0.197945 -0.738742 0.764802
v -0.000000 -0.704633 0.704633
v 0.182308 -0.680384 0.704385
v 0.365843 -0.633659 0.731686
v 0.515112 -0.515112 0.728479
v 0.598342 -0.345453 0.690906
v 0.715938 -0.191835 0.741194
v 0.738022 0.000000 0.566304
v 0.694662 0.186134 0.551836
v 0.637748 0.368204 0.565066
v 0.587179 0.587179 0.637186
v 0.441834 0.765279 0.678063
v 0.207907 0.775918 0.616386
v 0.000000 0.812235 0.623250
v -0.213143 0.795459 0.631909
v -0.414996 0.718794 0.636876
v -0.538799 0.538799 0.584686
v -0.639742 0.369355 0.566833
v -0.765627 0.205149 0.608211
v -0.788874 0.000000 0.605324
v -0.763015 -0.204449 0.606135
v -0.675552 -0.390030 0.598562
v -0.585227 -0.585227 0.635068
v -0.398859 -0.690843 0.612110
v -0.211914 -0.790873 0.628266
v -0.000000 -0.875251 0.671604
v 0.211350 -0.788770 0.626595
v 0.372075 -0.644452 0.571006
v 0.561735 -0.561735 0.609575
v 0.685883 -0.395994 0.607715
v 0.769964 -0.206311 0.611656
v 0.826817 0.000000 0.477363
v 0.762692 0.204363 0.455874
v 0.799341 0.461500 0.532894
v 0.667100 0.667100 0.544685
v 0.470359 0.814685 0.543123
v 0.223051 0.832438 0.497563
v 0.000000 0.878417 0.507154
v -0.218213 0.814384 0.486771
v -0.427804 0.740979 0.493986
v -0.561056 0.561056 0.458101
v -0.733119 0.423266 0.488746
v -0.837931 0.224523 0.500846
v -0.788611 0.000000 0.455305
v -0.766600 -0.205410 0.458210
v -0.777649 -0.448976 0.518432
v -0.593001 -0.593001 0.484183
v -0.447908 -0.775799 0.517200
v -0.221484 -0.826588 0.494066
v -0.000000 -0.899110 0.519102
v 0.239828 -0.895048 0.534986
v 0.467029 -0.808918 0.539279
v 0.616905 -0.616905 0.503701
v 0.744272 -0.429706 0.496182
v 0.752058 -0.201513 0.449518
v 0.863743 0.000000 0.357774
v 0.881681 0.236246 0.378087
v 0.802758 0.463472 0.383953
v 0.687034 0.687034 0.402455
v 0.490633 0.849801 0.406453
v 0.265339 0.990257 0.424647
v 0.000000 0.982343 0.406900
v -0.238283 0.889284 0.381348
v -0.421652 0.730322 0.349308
v -0.592544 0.592544 0.347104
v -0.766810 0.442718 0.366760
v -0.886498 0.237536 0.380153
v -0.894497 0.000000 0.370513
v -0.890595 -0.238634 0.381910
v -0.760800 -0.439248 0.363885
v -0.614802 -0.614802 0.360143
v -0.478398 -0.828609 0.396318
v -0.239437 -0.893590 0.383194
v -0.000000 -0.921469 0.381685
v 0.248510 -0.927451 0.397715
v 0.459163 -0.795294 0.380383
v 0.623536 -0.623536 0.365259
v 0.736880 -0.425438 0.352444
v 0.862082 -0.230994 0.369683
v 0.938701 0.000000 0.251524
v 0.960590 0.257389 0.266469
v 0.920283 0.531326 0.284736
v 0.751736 0.751736 0.284861
v 0.490330 0.849276 0.262767
v 0.248691 0.928129 0.257464
v 0.000000 0.974396 0.261089
v -0.262543 0.979822 0.271804
v -0.448652 0.777089 0.240432
v -0.644947 0.644947 0.244395
v -0.814908 0.470488 0.252134
v -0.889351 0.238301 0.246707
v -0.910584 0.000000 0.243990
v -0.943429 -0.252791 0.261708
v -0.826879 -0.477399 0.255837
v -0.680474 -0.680474 0.257857
v -0.474053 -0.821085 0.254044
v -0.249302 -0.930408 0.258096
v -0.000000 -0.983904 0.263636
v 0.265382 -0.990419 0.274744
v 0.500821 -0.867448 0.268389
v 0.665522 -0.665522 0.252191
v 0.758071 -0.437673 0.234548
v 0.859036 -0.230178 0.238298
v 0.950031 0.000000 0.125074
v 1.000179 0.267997 0.136321
v 0.925389 0.534274 0.140677
v 0.731895 0.731895 0.136268
v 0.491512 0.851324 0.129418
v 0.253461 0.945930 0.128927
v 0.000000 1.017548 0.133963
v -0.260260 0.971303 0.132385
v -0.499528 0.865209 0.131528
v -0.686040 0.686040 0.127730
v -0.843798 0.487167 0.128274
v -0.873485 0.234050 0.119053
v -0.992622 0.000000 0.130681
v -1.032113 -0.276554 0.140674
v -0.867349 -0.500764 0.131854
v -0.715170 -0.715170 0.133154
v -0.524428 -0.908336 0.138085
v -0.257374 -0.960532 0.130917
v -0.000000 -1.011228 0.133131
v 0.273703 -1.021474 0.139224
v 0.481358 -0.833736 0.126744
v 0.730663 -0.730663 0.136038
v 0.795550 -0.459311 0.120939
v 0.941866 -0.252372 0.128373
v 1.042115 0.000000 0.000000
v 0.989322 0.265088 0.000000
v 0.918081 0.530054 0.000000
v 0.735131 0.735131 0.000000
v 0.540683 0.936491 0.000000
v 0.254710 0.950592 0.000000
v 0.000000 0.970684 0.000000
v -0.271376 1.012788 0.000000
v -0.472524 0.818436 0.000000
v -0.665214 0.665214 0.000000
v -0.882305 0.509399 0.000000
v -0.987606 0.264628 0.000000
v -0.966592 0.000000 0.000000
v -0.960988 -0.257496 0.000000
v -0.857979 -0.495354 0.000000
v -0.727154 -0.727154 0.000000
v -0.507107 -0.878334 0.000000
v -0.253307 -0.945355 0.000000
v -0.000000 -1.056619 0.000000
v 0.273480 -1.020641 0.000000
v 0.488780 -0.846593 0.000000
v 0.650815 -0.650815 0.000000
v 0.777653 -0.448978 0.000000
v 0.906428 -0.242877 0.000000
v 0.972282 0.000000 -0.128003
v 1.021724 0.273770 -0.139258
v 0.867476 0.500838 -0.131873
v 0.715566 0.715566 -0.133227
v 0.476159 0.824731 -0.125375
v 0.240987 0.899377 -0.122582
v 0.000000 0.923114 -0.121530
v -0.250480 0.934803 -0.127411
v -0.453610 0.785676 -0.119438
v -0.712848 0.712848 -0.132721
v -0.837253 0.483388 -0.127279
v -0.881752 0.236265 -0.120180
v -0.932891 0.000000 -0.122817
v -0.897526 -0.240491 -0.122330
v -0.841018 -0.485562 -0.127851
v -0.690902 -0.690902 -0.128635
v -0.517220 -0.895852 -0.136187
v -0.246855 -0.921275 -0.125567
v -0.000000 -1.015949 -0.133752
v 0.252902 -0.943845 -0.128643
v 0.488571 -0.846230 -0.128643
v 0.617087 -0.617087 -0.114892
v 0.774958 -0.447422 -0.117809
v 0.904960 -0.242483 -0.123343
v 0.922184 0.000000 -0.247098
v 0.928089 0.248681 -0.257453
v 0.817576 0.472028 -0.252959
v 0.639408 0.639408 -0.242296
v 0.482070 0.834971 -0.258341
v 0.232252 0.866776 -0.240445
v 0.000000 0.951529 -0.254961
v -0.240810 0.898714 -0.249305
v -0.440297 0.762617 -0.235955
v -0.619399 0.619399 -0.234713
v -0.801187 0.462565 -0.247888
v -0.901925 0.241670 -0.250195
v -0.944043 0.000000 -0.252955
v -0.936148 -0.250840 -0.259689
v -0.788309 -0.455130 -0.243904
v -0.701363 -0.701363 -0.265773
v -0.489215 -0.847345 -0.262169
v -0.262577 -0.979951 -0.271840
v -0.000000 -0.882949 -0.236585
v 0.234704 -0.875927 -0.242983
v 0.463118 -0.802144 -0.248184
v 0.613454 -0.613454 -0.232461
v 0.769158 -0.444074 -0.237978
v 0.871731 -0.233580 -0.241819
v 0.968920 0.000000 -0.401340
v 0.923326 0.247404 -0.395946
v 0.755939 0.436442 -0.361560
v 0.656013 0.656013 -0.384284
v 0.430099 0.744953 -0.356306
v 0.223608 0.834515 -0.357861
v 0.000000 0.824457 -0.341501
v -0.224054 0.836180 -0.358575
v -0.405516 0.702374 -0.335940
v -0.626872 0.626872 -0.367213
v -0.691265 0.399102 -0.330627
v -0.874314 0.234272 -0.374928
v -0.857586 0.000000 -0.355224
v -0.843639 -0.226052 -0.361774
v -0.786715 -0.454210 -0.376280
v -0.618449 -0.618449 -0.362279
v -0.405750 -0.702780 -0.336134
v -0.218153 -0.814159 -0.349132
v -0.000000 -0.810370 -0.335666
v 0.209553 -0.782063 -0.335369
v 0.395661 -0.685305 -0.327776
v 0.556487 -0.556487 -0.325982
v 0.693830 -0.400583 -0.331854
v 0.828965 -0.222120 -0.355481
v 0.789031 0.000000 -0.455547
v 0.762948 0.204431 -0.456027
v 0.681340 0.393372 -0.454226
v 0.544946 0.544946 -0.444946
v 0.382474 0.662464 -0.441643
v 0.210998 0.787457 -0.470676
v 0.000000 0.738078 -0.426130
v -0.196974 0.735115 -0.439391
v -0.385900 0.668398 -0.445599
v -0.558817 0.558817 -0.456273
v -0.703375 0.406094 -0.468917
v -0.727873 0.195033 -0.435062
v -0.823191 0.000000 -0.475270
v -0.764711 -0.204904 -0.457081
v -0.681173 -0.393275 -0.454115
v -0.538134 -0.538134 -0.439384
v -0.401540 -0.695488 -0.463659
v -0.197660 -0.737676 -0.440922
v -0.000000 -0.796089 -0.459622
v 0.173837 -0.648767 -0.387779
v 0.349890 -0.606027 -0.404018
v 0.499575 -0.499575 -0.407901
v 0.647182 -0.373651 -0.431455
v 0.811887 -0.217544 -0.485278
v 0.766585 0.000000 -0.588222
v 0.665457 0.178309 -0.528636
v 0.610338 0.352379 -0.540780
v 0.466156 0.466156 -0.505856
v 0.339358 0.587785 -0.520796
v 0.168786 0.629918 -0.500404
v 0.000000 0.640366 -0.491370
v -0.181114 0.675926 -0.536952
v -0.351136 0.608186 -0.538873
v -0.470390 0.470390 -0.510450
v -0.618992 0.357375 -0.548447
v -0.648935 0.173881 -0.515511
v -0.674138 0.000000 -0.517284
v -0.705524 -0.189045 -0.560465
v -0.605674 -0.349686 -0.536647
v -0.495206 -0.495206 -0.537380
v -0.362476 -0.627828 -0.556276
v -0.182002 -0.679241 -0.539586
v -0.000000 -0.641922 -0.492564
v 0.162383 -0.606021 -0.481420
v 0.313242 -0.542552 -0.480719
v 0.460755 -0.460755 -0.499995
v 0.622347 -0.359312 -0.551420
v 0.742152 -0.198859 -0.589562
v 0.608766 0.000000 -0.608766
v 0.586959 0.157275 -0.607665
v 0.500789 0.289131 -0.578262
v 0.430267 0.430267 -0.608490
v 0.281726 0.487963 -0.563451
v 0.145801 0.544135 -0.563330
v 0.000000 0.592830 -0.592830
v -0.158515 0.591586 -0.612455
v -0.285152 0.493897 -0.570304
v -0.420889 0.420889 -0.595227
v -0.532401 0.307382 -0.614764
v -0.609635 0.163351 -0.631141
v -0.634886 0.000000 -0.634886
v -0.553870 -0.148409 -0.573409
v -0.533325 -0.307915 -0.615831
v -0.418186 -0.418186 -0.591404
v -0.308333 -0.534049 -0.616666
v -0.154857 -0.577936 -0.598323
v -0.000000 -0.598411 -0.598411
v 0.142293 -0.531044 -0.549777
v 0.269147 -0.466176 -0.538294
v 0.436734 -0.436734 -0.617636
v 0.558046 -0.322188 -0.644376
v 0.586716 -0.157210 -0.607413
v 0.511860 0.000000 -0.667069
v 0.456752 0.122386 -0.616249
v 0.392931 0.226859 -0.591296
v 0.358248 0.358248 -0.660265
v 0.242899 0.420714 -0.633105
v 0.124828 0.465863 -0.628541
v 0.000000 0.479180 -0.624480
v -0.120899 0.451202 -0.608761
v -0.236752 0.410066 -0.617082
v -0.358555 0.358555 -0.660831
v -0.427932 0.247067 -0.643967
v -0.504512 0.135184 -0.680687
v -0.532215 0.000000 -0.693596
v -0.515786 -0.138204 -0.695898
v -0.418001 -0.241333 -0.629022
v -0.333402 -0.333402 -0.614473
v -0.263024 -0.455571 -0.685559
v -0.122274 -0.456335 -0.615686
v -0.000000 -0.477637 -0.622469
v 0.114008 -0.425484 -0.574062
v 0.239679 -0.415137 -0.624713
v 0.344975 -0.344975 -0.635802
v 0.455993 -0.263267 -0.686194
v 0.522473 -0.139996 -0.704920
v 0.433255 0.000000 -0.750420
v 0.376137 0.100786 -0.674470
v 0.331010 0.191109 -0.662021
v 0.276688 0.276688 -0.677744
v 0.195023 0.337790 -0.675580
v 0.094841 0.353950 -0.634686
v 0.000000 0.395447 -0.684935
v -0.106260 0.396569 -0.711107
v -0.184164 0.318981 -0.637963
v -0.261406 0.261406 -0.640311
v -0.345581 0.199522 -0.691163
v -0.404181 0.108300 -0.724757
v -0.416187 0.000000 -0.720858
v -0.418052 -0.112017 -0.749631
v -0.353700 -0.204209 -0.707400
v -0.293570 -0.293570 -0.719096
v -0.207251 -0.358970 -0.717940
v -0.098697 -0.368343 -0.660494
v -0.000000 -0.348434 -0.603505
v 0.097120 -0.362456 -0.649939
v 0.187424 -0.324628 -0.649257
v 0.278911 -0.278911 -0.683188
v 0.361157 -0.208514 -0.722313
v 0.392091 -0.105061 -0.703079
v 0.298090 0.000000 -0.719652
v 0.280550 0.075173 -0.701199
v 0.246710 0.142438 -0.687751
v 0.218803 0.218803 -0.747040
v 0.147032 0.254667 -0.709935
v 0.069742 0.260282 -0.650542
v 0.000000 0.292900 -0.707123
v -0.071501 0.266846 -0.666949
v -0.146080 0.253018 -0.705337
v -0.214237 0.214237 -0.731451
v -0.266060 0.153610 -0.741693
v -0.281261 0.075364 -0.702978
v -0.309002 0.000000 -0.745997
v -0.295584 -0.079201 -0.738775
v -0.252494 -0.145777 -0.703875
v -0.215743 -0.215743 -0.736594
v -0.159044 -0.275472 -0.767931
v -0.074843 -0.279317 -0.698120
v -0.000000 -0.275612 -0.665387
v 0.066988 -0.250004 -0.624856
v 0.136365 -0.236192 -0.658431
v 0.214156 -0.214156 -0.731175
v 0.297761 -0.171912 -0.830066
v 0.311175 -0.083379 -0.777743
v 0.194847 0.000000 -0.727179
v 0.193946 0.051968 -0.749350
v 0.156705 0.090474 -0.675305
v 0.133904 0.133904 -0.706732
v 0.096693 0.167477 -0.721727
v 0.051519 0.192273 -0.742884
v 0.000000 0.184195 -0.687424
v -0.051512 0.192247 -0.742785
v -0.095595 0.165575 -0.713530
v -0.135860 0.135860 -0.717056
v -0.167663 0.096800 -0.722526
v -0.202931 0.054375 -0.784064
v -0.203355 0.000000 -0.758931
v -0.193564 -0.051865 -0.747873
v -0.177921 -0.102723 -0.766734
v -0.144954 -0.144954 -0.765057
v -0.103562 -0.179374 -0.772996
v -0.050585 -0.188784 -0.729407
v -0.000000 -0.179362 -0.669389
v 0.046238 -0.172562 -0.666730
v 0.101925 -0.176540 -0.760780
v 0.146031 -0.146031 -0.770742
v 0.187475 -0.108239 -0.807906
v 0.201206 -0.053913 -0.777401
v 0.099885 0.000000 -0.758699
v 0.096650 0.025897 -0.760030
v 0.090689 0.052359 -0.795414
v 0.069628 0.069628 -0.747946
v 0.047974 0.083093 -0.728794
v 0.025761 0.096143 -0.756040
v 0.000000 0.100430 -0.762842
v -0.024418 0.091129 -0.716609
v -0.050984 0.088307 -0.774523
v -0.072722 0.072722 -0.781183
v -0.082353 0.047546 -0.722301
v -0.092773 0.024858 -0.729537
v -0.100099 0.000000 -0.760326
v -0.090130 -0.024150 -0.708758
v -0.085649 -0.049449 -0.751210
v -0.067073 -0.067073 -0.720501
v -0.050508 -0.087482 -0.767288
v -0.023582 -0.088007 -0.692064
v -0.000000 -0.085327 -0.648122
v 0.023682 -0.088383 -0.695016
v 0.047083 -0.081550 -0.715259
v 0.070995 -0.070995 -0.762625
v 0.091777 -0.052987 -0.804959
v 0.096388 -0.025827 -0.757969
v 0.000000 0.000000 -0.801892
v 0.000000 0.000000 -0.721221
v 0.000000 0.000000 -0.752812
v 0.000000 0.000000 -0.759618
v 0.000000 0.000000 -0.753551
v 0.000000 0.000000 -0.725824
v 0.000000 0.000000 -0.770238
v -0.000000 0.000000 -0.763120
v -0.000000 0.000000 -0.812346
v -0.000000 0.000000 -0.785705
v -0.000000 0.000000 -0.796025
v -0.000000 0.000000 -0.753994
v -0.000000 0.000000 -0.764303
v -0.000000 -0.000000 -0.787044
v -0.000000 -0.000000 -0.749140
v -0.000000 -0.000000 -0.726819
v -0.000000 -0.000000 -0.780544
v -0.000000 -0.000000 -0.711345
v -0.000000 -0.000000 -0.712874
v 0.000000 -0.000000 -0.677753
v 0.000000 -0.000000 -0.758369
v 0.000000 -0.000000 -0.828654
v 0.000000 -0.000000 -0.802669
v 0.000000 -0.000000 -0.771711
f 1 2 26
f 1 26 25
f 2 3 27
f 2 27 26
f 3 4 28
f 3 28 27
f 4 5 29
f 4 29 28
f 5 6 30
f 5 30 29
f 6 7 31
f 6 31 30
f 7 8 32
f 7 32 31
f 8 9 33
f 8 33 32
f 9 10 34
f 9 34 33
f 10 11 35
f 10 35 34
f 11 12 36
f 11 36 35
f 12 13 37
f 12 37 36
f 13 14 38
f 13 38 37
f 14 15 39
f 14 39 38
f 15 16 40
f 15 40 39
f 16 17 41
f 16 41 40
f 17 18 42
f 17 42 41
f 18 19 43
f 18 43 42
f 19 20 44
f 19 44 43
f 20 21 45
f 20 45 44
f 21 22 46
f 21 46 45
f 22 23 47
f 22 47 46
f 23 24 48
f 23 48 47
f 24 1 25
f 24 25 48
f 25 26 50
f 25 50 49
f 26 27 51
f 26 51 50
f 27 28 52
f 27 52 51
f 28 29 53
f 28 53 52
f 29 30 54
f 29 54 53
f 30 31 55
f 30 55 54
f 31 32 56
f 31 56 55
f 32 33 57
f 32 57 56
f 33 34 58
f 33 58 57
f 34 35 59
f 34 59 58
f 35 36 60
f 35 60 59
f 36 37 61
f 36 61 60
f 37 38 62
f 37 62 61
f 38 39 63
f 38 63 62
f 39 40 64
f 39 64 63
f 40 41 65
f 40 65 64
f 41 42 66
f 41 66 65
f 42 43 67
f 42 67 66
f 43 44 68
f 43 68 67
f 44 45 69
f 44 69 68
f 45 46 70
f 45 70 69
f 46 47 71
f 46 71 70
f 47 48 72
f 47 72 71
f 48 25 49
f 48 49 72
f 49 50 74
f 49 74 73
f 50 51 75
f 50 75 74
f 51 52 76
f 51 76 75
f 52 53 77
f 52 77 76
f 53 54 78
f 53 78 77
f 54 55 79
f 54 79 78
f 55 56 80
f 55 80 79
f 56 57 81
f 56 81 80
f 57 58 82
f 57 82 81
f 58 59 83
f 58 83 82
f 59 60 84
f 59 84 83
f 60 61 85
f 60 85 84
f 61 62 86
f 61 86 85
f 62 63 87
f 62 87 86
f 63 64 88
f 63 88 87
f 64 65 89
f 64 89 88
f 65 66 90
f 65 90 89
f 66 67 91
f 66 91 90
f 67 68 92
f 67 92 91
f 68 69 93
f 68 93 92
f 69 70 94
f 69 94 93
f 70 71 95
f 70 95 94
f 71 72 96
f 71 96 95
f 72 49 73
f 72 73 96
f 73 74 98
f 73 98 97
f 74 75 99
f 74 99 98
f 75 76 100
f 75 100 99
f 76 77 101
f 76 101 100
f 77 78 102
f 77 102 101
f 78 79 103
f 78 103 102
f 79 80 104
f 79 104 103
f 80 81 105
f 80 105 104
f 81 82 106
f 81 106 105
f 82 83 107
f 82 107 106
f 83 84 108
f 83 108 107
f 84 85 109
f 84 109 108
f 85 86 110
f 85 110 109
f 86 87 111
f 86 111 110
f 87 88 112
f 87 112 111
f 88 89 113
f 88 113 112
f 89 90 114
f 89 114 113
f 90 91 115
f 90 115 114
f 91 92 116
f 91 116 115
f 92 93 117
f 92 117 116
f 93 94 118
f 93 118 117
f 94 95 119
f 94 119 118
f 95 96 120
f 95 120 119
f 96 73 97
f 96 97 120
f 97 98 122
f 97 122 121
f 98 99 123
f 98 123 122
f 99 100 124
f 99 124 123
f 100 101 125
f 100 125 124
f 101 102 126
f 101 126 125
f 102 103 127
f 102 127 126
f 103 104 128
f 103 128 127
f 104 105 129
f 104 129 128
f 105 106 130
f 105 130 129
f 106 107 131
f 106 131 130
f 107 108 132
f 107 132 131
f 108 109 133
f 108 133 132
f 109 110 134
f 109 134 133
f 110 111 135
f 110 135 134
f 111 112 136
f 111 136 135
f 112 113 137
f 112 137 136
f 113 114 138
f 113 138 137
f 114 115 139
f 114 139 138
f 115 116 140
f 115 140 139
f 116 117 141
f 116 141 140
f 117 118 142
f 117 142 141
f 118 119 143
f 118 143 142
f 119 120 144
f 119 144 143
f 120 97 121
f 120 121 144
f 121 122 146
f 121 146 145
f 122 123 147
f 122 147 146
f 123 124 148
f 123 148 147
f 124 125 149
f 124 149 148
f 125 126 150
f 125 150 149
f 126 127 151
f 126 151 150
f 127 128 152
f 127 152 151
f 128 129 153
f 128 153 152
f 129 130 154
f 129 154 153
f 130 131 155
f 130 155 154
f 131 132 156
f 131 156 155
f 132 133 157
f 132 157 156
f 133 134 158
f 133 158 157
f 134 135 159
f 134 159 158
f 135 136 160
f 135 160 159
f 136 137 161
f 136 161 160
f 137 138 162
f 137 162 161
f 138 139 163
f 138 163 162
f 139 140 164
f 139 164 163
f 140 141 165
f 140 165 164
f 141 142 166
f 141 166 165
f 142 143 167
f 142 167 166
f 143 144 168
f 143 168 167
f 144 121 145
f 144 145 168
f 145 146 170
f 145 170 169
f 146 147 171
f 146 171 170
f 147 148 172
f 147 172 171
f 148 149 173
f 148 173 172
f 149 150 174
f 149 174 173
f 150 151 175
f 150 175 174
f 151 152 176
f 151 176 175
f 152 153 177
f 152 177 176
f 153 154 178
f 153 178 177
f 154 155 179
f 154 179 178
f 155 156 180
f 155 180 179
f 156 157 181
f 156 181 180
f 157 158 182
f 157 182 181
f 158 159 183
f 158 183 182
f 159 160 184
f 159 184 183
f 160 161 185
f 160 185 184
f 161 162 186
f 161 186 185
f 162 163 187
f 162 187 186
f 163 164 188
f 163 188 187
f 164 165 189
f 164 189 188
f 165 166 190
f 165 190 189
f 166 167 191
f 166 191 190
f 167 168 192
f 167 192 191
f 168 145 169
f 168 169 192
f 169 170 194
f 169 194 193
f 170 171 195
f 170 195 194
f 171 172 196
f 171 196 195
f 172 173 197
f 172 197 196
f 173 174 198
f 173 198 197
f 174 175 199
f 174 199 198
f 175 176 200
f 175 200 199
f 176 177 201
f 176 201 200
f 177 178 202
f 177 202 201
f 178 179 203
f 178 203 202
f 179 180 204
f 179 204 203
f 180 181 205
f 180 205 204
f 181 182 206
f 181 206 205
f 182 183 207
f 182 207 206
f 183 184 208
f 183 208 207
f 184 185 209
f 184 209 208
f 185 186 210
f 185 210 209
f 186 187 211
f 186 211 210
f 187 188 212
f 187 212 211
f 188 189 213
f 188 213 212
f 189 190 214
f 189 214 213
f 190 191 215
f 190 215 214
f 191 192 216
f 191 216 215
f 192 169 193
f 192 193 216
f 193 194 218
f 193 218 217
f 194 195 219
f 194 219 218
f 195 196 220
f 195 220 219
f 196 197 221
f 196 221 220
f 197 198 222
f 197 222 221
f 198 199 223
f 198 223 222
f 199 200 224
f 199 224 223
f 200 201 225
f 200 225 224
f 201 202 226
f 201 226 225
f 202 203 227
f 202 227 226
f 203 204 228
f 203 228 227
f 204 205 229
f 204 229 228
f 205 206 230
f 205 230 229
f 206 207 231
f 206 231 230
f 207 208 232
f 207 232 231
f 208 209 233
f 208 233 232
f 209 210 234
f 209 234 233
f 210 211 235
f 210 235 234
f 211 212 236
f 211 236 235
f 212 213 237
f 212 237 236
f 213 214 238
f 213 238 237
f 214 215 239
f 214 239 238
f 215 216 240
f 215 240 239
f 216 193 217
f 216 217 240
f 217 218 242
f 217 242 241
f 218 219 243
f 218 243 242
f 219 220 244
f 219 244 243
f 220 221 245
f 220 245 244
f 221 222 246
f 221 246 245
f 222 223 247
f 222 247 246
f 223 224 248
f 223 248 247
f 224 225 249
f 224 249 248
f 225 226 250
f 225 250 249
f 226 227 251
f 226 251 250
f 227 228 252
f 227 252 251
f 228 229 253
f 228 253 252
f 229 230 254
f 229 254 253
f 230 231 255
f 230 255 254
f 231 232 256
f 231 256 255
f 232 233 257
f 232 257 256
f 233 234 258
f 233 258 257
f 234 235 259
f 234 259 258
f 235 236 260
f 235 260 259
f 236 237 261
f 236 261 260
f 237 238 262
f 237 262 261
f 238 239 263
f 238 263 262
f 239 240 264
f 239 264 263
f 240 217 241
f 240 241 264
f 241 242 266
f 241 266 265
f 242 243 267
f 242 267 266
f 243 244 268
f 243 268 267
f 244 245 269
f 244 269 268
f 245 246 270
f 245 270 269
f 246 247 271
f 246 271 270
f 247 248 272
f 247 272 271
f 248 249 273
f 248 273 272
f 249 250 274
f 249 274 273
f 250 251 275
f 250 275 274
f 251 252 276
f 251 276 275
f 252 253 277
f 252 277 276
f 253 254 278
f 253 278 277
f 254 255 279
f 254 279 278
f 255 256 280
f 255 280 279
f 256 257 281
f 256 281 280
f 257 258 282
f 257 282 281
f 258 259 283
f 258 283 282
f 259 260 284
f 259 284 283
f 260 261 285
f 260 285 284
f 261 262 286
f 261 286 285
f 262 263 287
f 262 287 286
f 263 264 288
f 263 288 287
f 264 241 265
f 264 265 288
f 265 266 290
f 265 290 289
f 266 267 291
f 266 291 290
f 267 268 292
f 267 292 291
f 268 269 293
f 268 293 292
f 269 270 294
f 269 294 293
f 270 271 295
f 270 295 294
f 271 272 296
f 271 296 295
f 272 273 297
f 272 297 296
f 273 274 298
f 273 298 297
f 274 275 299
f 274 299 298
f 275 276 300
f 275 300 299
f 276 277 301
f 276 301 300
f 277 278 302
f 277 302 301
f 278 279 303
f 278 303 302
f 279 280 304
f 279 304 303
f 280 281 305
f 280 305 304
f 281 282 306
f 281 306 305
f 282 283 307
f 282 307 306
f 283 284 308
f 283 308 307
f 284 285 309
f 284 309 308
f 285 286 310
f 285 310 309
f 286 287 311
f 286 311 310
f 287 288 312
f 287 312 311
f 288 265 289
f 288 289 312
f 289 290 314
f 289 314 313
f 290 291 315
f 290 315 314
f 291 292 316
f 291 316 315
f 292 293 317
f 292 317 316
f 293 294 318
f 293 318 317
f 294 295 319
f 294 319 318
f 295 296 320
f 295 320 319
f 296 297 321
f 296 321 320
f 297 298 322
f 297 322 321
f 298 299 323
f 298 323 322
f 299 300 324
f 299 324 323
f 300 301 325
f 300 325 324
f 301 302 326
f 301 326 325
f 302 303 327
f 302 327 326
f 303 304 328
f 303 328 327
f 304 305 329
f 304 329 328
f 305 306 330
f 305 330 329
f 306 307 331
f 306 331 330
f 307 308 332
f 307 332 331
f 308 309 333
f 308 333 332
f 309 310 334
f 309 334 333
f 310 311 335
f 310 335 334
f 311 312 336
f 311 336 335
f 312 289 313
f 312 313 336
f 313 314 338
f 313 338 337
f 314 315 339
f 314 339 338
f 315 316 340
f 315 340 339
f 316 317 341
f 316 341 340
f 317 318 342
f 317 342 341
f 318 319 343
f 318 343 342
f 319 320 344
f 319 344 343
f 320 321 345
f 320 345 344
f 321 322 346
f 321 346 345
f 322 323 347
f 322 347 346
f 323 324 348
f 323 348 347
f 324 325 349
f 324 349 348
f 325 326 350
f 325 350 349
f 326 327 351
f 326 351 350
f 327 328 352
f 327 352 351
f 328 329 353
f 328 353 352
f 329 330 354
f 329 354 353
f 330 331 355
f 330 355 354
f 331 332 356
f 331 356 355
f 332 333 357
f 332 357 356
f 333 334 358
f 333 358 357
f 334 335 359
f 334 359 358
f 335 336 360
f 335 360 359
f 336 313 337
f 336 337 360
f 337 338 362
f 337 362 361
f 338 339 363
f 338 363 362
f 339 340 364
f 339 364 363
f 340 341 365
f 340 365 364
f 341 342 366
f 341 366 365
f 342 343 367
f 342 367 366
f 343 344 368
f 343 368 367
f 344 345 369
f 344 369 368
f 345 346 370
f 345 370 369
f 346 347 371
f 346 371 370
f 347 348 372
f 347 372 371
f 348 349 373
f 348 373 372
f 349 350 374
f 349 374 373
f 350 351 375
f 350 375 374
f 351 352 376
f 351 376 375
f 352 353 377
f 352 377 376
f 353 354 378
f 353 378 377
f 354 355 379
f 354 379 378
f 355 356 380
f 355 380 379
f 356 357 381
f 356 381 380
f 357 358 382
f 357 382 381
f 358 359 383
f 358 383 382
f 359 360 384
f 359 384 383
f 360 337 361
f 360 361 384
f 361 362 386
f 361 386 385
f 362 363 387
f 362 387 386
f 363 364 388
f 363 388 387
f 364 365 389
f 364 389 388
f 365 366 390
f 365 390 389
f 366 367 391
f 366 391 390
f 367 368 392
f 367 392 391
f 368 369 393
f 368 393 392
f 369 370 394
f 369 394 393
f 370 371 395
f 370 395 394
f 371 372 396
f 371 396 395
f 372 373 397
f 372 397 396
f 373 374 398
f 373 398 397
f 374 375 399
f 374 399 398
f 375 376 400
f 375 400 399
f 376 377 401
f 376 401 400
f 377 378 402
f 377 402 401
f 378 379 403
f 378 403 402
f 379 380 404
f 379 404 403
f 380 381 405
f 380 405 404
f 381 382 406
f 381 406 405
f 382 383 407
f 382 407 406
f 383 384 408
f 383 408 407
f 384 361 385
f 384 385 408
f 385 386 410
f 385 410 409
f 386 387 411
f 386 411 410
f 387 388 412
f 387 412 411
f 388 389 413
f 388 413 412
f 389 390 414
f 389 414 413
f 390 391 415
f 390 415 414
f 391 392 416
f 391 416 415
f 392 393 417
f 392 417 416
f 393 394 418
f 393 418 417
f 394 395 419
f 394 419 418
f 395 396 420
f 395 420 419
f 396 397 421
f 396 421 420
f 397 398 422
f 397 422 421
f 398 399 423
f 398 423 422
f 399 400 424
f 399 424 423
f 400 401 425
f 400 425 424
f 401 402 426
f 401 426 425
f 402 403 427
f 402 427 426
f 403 404 428
f 403 428 427
f 404 405 429
f 404 429 428
f 405 406 430
f 405 430 429
f 406 407 431
f 406 431 430
f 407 408 432
f 407 432 431
f 408 385 409
f 408 409 432
f 409 410 434
f 409 434 433
f 410 411 435
f 410 435 434
f 411 412 436
f 411 436 435
f 412 413 437
f 412 437 436
f 413 414 438
f 413 438 437
f 414 415 439
f 414 439 438
f 415 416 440
f 415 440 439
f 416 417 441
f 416 441 440
f 417 418 442
f 417 442 441
f 418 419 443
f 418 443 442
f 419 420 444
f 419 444 443
f 420 421 445
f 420 445 444
f 421 422 446
f 421 446 445
f 422 423 447
f 422 447 446
f 423 424 448
f 423 448 447
f 424 425 449
f 424 449 448
f 425 426 450
f 425 450 449
f 426 427 451
f 426 451 450
f 427 428 452
f 427 452 451
f 428 429 453
f 428 453 452
f 429 430 454
f 429 454 453
f 430 431 455
f 430 455 454
f 431 432 456
f 431 456 455
f 432 409 433
f 432 433 456
f 433 434 458
f 433 458 457
f 434 435 459
f 434 459 458
f 435 436 460
f 435 460 459
f 436 437 461
f 436 461 460
f 437 438 462
f 437 462 461
f 438 439 463
f 438 463 462
f 439 440 464
f 439 464 463
f 440 441 465
f 440 465 464
f 441 442 466
f 441 466 465
f 442 443 467
f 442 467 466
f 443 444 468
f 443 468 467
f 444 445 469
f 444 469 468
f 445 446 470
f 445 470 469
f 446 447 471
f 446 471 470
f 447 448 472
f 447 472 471
f 448 449 473
f 448 473 472
f 449 450 474
f 449 474 473
f 450 451 475
f 450 475 474
f 451 452 476
f 451 476 475
f 452 453 477
f 452 477 476
f 453 454 478
f 453 478 477
f 454 455 479
f 454 479 478
f 455 456 480
f 455 480 479
f 456 433 457
f 456 457 480
f 457 458 482
f 457 482 481
f 458 459 483
f 458 483 482
f 459 460 484
f 459 484 483
f 460 461 485
f 460 485 484
f 461 462 486
f 461 486 485
f 462 463 487
f 462 487 486
f 463 464 488
f 463 488 487
f 464 465 489
f 464 489 488
f 465 466 490
f 465 490 489
f 466 467 491
f 466 491 490
f 467 468 492
f 467 492 491
f 468 469 493
f 468 493 492
f 469 470 494
f 469 494 493
f 470 471 495
f 470 495 494
f 471 472 496
f 471 496 495
f 472 473 497
f 472 497 496
f 473 474 498
f 473 498 497
f 474 475 499
f 474 499 498
f 475 476 500
f 475 500 499
f 476 477 501
f 476 501 500
f 477 478 502
f 477 502 501
f 478 479 503
f 478 503 502
f 479 480 504
f 479 504 503
f 480 457 481
f 480 481 504
f 481 482 506
f 481 506 505
f 482 483 507
f 482 507 506
f 483 484 508
f 483 508 507
f 484 485 509
f 484 509 508
f 485 486 510
f 485 510 509
f 486 487 511
f 486 511 510
f 487 488 512
f 487 512 511
f 488 489 513
f 488 513 512
f 489 490 514
f 489 514 513
f 490 491 515
f 490 515 514
f 491 492 516
f 491 516 515
f 492 493 517
f 492 517 516
f 493 494 518
f 493 518 517
f 494 495 519
f 494 519 518
f 495 496 520
f 495 520 519
f 496 497 521
f 496 521 520
f 497 498 522
f 497 522 521
f 498 499 523
f 498 523 522
f 499 500 524
f 499 524 523
f 500 501 525
f 500 525 524
f 501 502 526
f 501 526 525
f 502 503 527
f 502 527 526
f 503 504 528
f 503 528 527
f 504 481 505
f 504 505 528
f 505 506 530
f 505 530 529
f 506 507 531
f 506 531 530
f 507 508 532
f 507 532 531
f 508 509 533
f 508 533 532
f 509 510 534
f 509 534 533
f 510 511 535
f 510 535 534
f 511 512 536
f 511 536 535
f 512 513 537
f 512 537 536
f 513 514 538
f 513 538 537
f 514 515 539
f 514 539 538
f 515 516 540
f 515 540 539
f 516 517 541
f 516 541 540
f 517 518 542
f 517 542 541
f 518 519 543
f 518 543 542
f 519 520 544
f 519 544 543
f 520 521 545
f 520 545 544
f 521 522 546
f 521 546 545
f 522 523 547
f 522 547 546
f 523 524 548
f 523 548 547
f 524 525 549
f 524 549 548
f 525 526 550
f 525 550 549
f 526 527 551
f 526 551 550
f 527 528 552
f 527 552 551
f 528 505 529
f 528 529 552
f 529 530 554
f 529 554 553
f 530 531 555
f 530 555 554
f 531 532 556
f 531 556 555
f 532 533 557
f 532 557 556
f 533 534 558
f 533 558 557
f 534 535 559
f 534 559 558
f 535 536 560
f 535 560 559
f 536 537 561
f 536 561 560
f 537 538 562
f 537 562 561
f 538 539 563
f 538 563 562
f 539 540 564
f 539 564 563
f 540 541 565
f 540 565 564
f 541 542 566
f 541 566 565
f 542 543 567
f 542 567 566
f 543 544 568
f 543 568 567
f 544 545 569
f 544 569 568
f 545 546 570
f 545 570 569
f 546 547 571
f 546 571 570
f 547 548 572
f 547 572 571
f 548 549 573
f 548 573 572
f 549 550 574
f 549 574 573
f 550 551 575
f 550 575 574
f 551 552 576
f 551 576 575
f 552 529 553
f 552 553 576
f 553 554 578
f 553 578 577
f 554 555 579
f 554 579 578
f 555 556 580
f 555 580 579
f 556 557 581
f 556 581 580
f 557 558 582
f 557 582 581
f 558 559 583
f 558 583 582
f 559 560 584
f 559 584 583
f 560 561 585
f 560 585 584
f 561 562 586
f 561 586 585
f 562 563 587
f 562 587 586
f 563 564 588
f 563 588 587
f 564 565 589
f 564 589 588
f 565 566 590
f 565 590 589
f 566 567 591
f 566 591 590
f 567 568 592
f 567 592 591
f 568 569 593
f 568 593 592
f 569 570 594
f 569 594 593
f 570 571 595
f 570 595 594
f 571 572 596
f 571 596 595
f 572 573 597
f 572 597 596
f 573 574 598
f 573 598 597
f 574 575 599
f 574 599 598
f 575 576 600
f 575 600 599
f 576 553 577
f 576 577 600
